<svg width="410" height="401" viewBox="0 0 410 401" fill="none" xmlns="http://www.w3.org/2000/svg">
<g clip-path="url(#clip0_786_7895)">
<path d="M263.038 168.364H40.6643C38.8316 168.364 37.2477 167.081 36.8675 165.289L20.2865 87.162C19.5692 83.7816 22.1464 80.6002 25.6015 80.6002H278.103C281.558 80.6002 284.135 83.7816 283.418 87.162L266.835 165.291C266.455 167.083 264.871 168.366 263.038 168.366V168.364Z" fill="#E0E2DE"/>
<path d="M39.5899 168.364H264.109C265.251 168.364 266.179 169.291 266.179 170.434V323.417C266.179 326.465 263.706 328.938 260.658 328.938H43.0405C39.9927 328.938 37.5195 326.465 37.5195 323.417V170.434C37.5195 169.291 38.4472 168.364 39.5899 168.364Z" fill="#E0E2DE"/>
<path d="M259.015 164.035H44.6826C42.9155 164.035 41.3904 162.879 41.0239 161.263L25.8162 90.8434C25.1239 87.7978 26.8322 84.9287 30.1629 84.9287H273.534C276.865 84.9287 278.573 87.7978 277.881 90.8434L262.674 161.263C262.307 162.879 260.782 164.035 259.015 164.035Z" fill="white"/>
<path d="M255.479 188.042H48.2266V258.491H255.479V188.042Z" fill="#C9C9C9"/>
<path d="M260.659 330.104H43.0418C39.3558 330.104 36.3555 327.106 36.3555 323.417V170.434C36.3555 168.651 37.8059 167.198 39.5911 167.198H264.11C265.893 167.198 267.346 168.649 267.346 170.434V323.417C267.346 327.103 264.347 330.104 260.659 330.104ZM39.5911 169.529C39.0911 169.529 38.6861 169.936 38.6861 170.434V323.417C38.6861 325.82 40.641 327.773 43.0418 327.773H260.659C263.062 327.773 265.015 325.82 265.015 323.417V170.434C265.015 169.934 264.608 169.529 264.11 169.529H39.5911Z" fill="#121314"/>
<path d="M263.037 169.529H40.6633C38.2943 169.529 36.2194 167.848 35.7284 165.531L19.145 87.4019C18.731 85.4469 19.2129 83.4331 20.471 81.8787C21.729 80.3242 23.598 79.4349 25.5983 79.4349H278.1C280.1 79.4349 281.969 80.3264 283.227 81.8809C284.485 83.4354 284.969 85.4469 284.553 87.4042L267.97 165.533C267.479 167.85 265.404 169.531 263.035 169.531L263.037 169.529ZM25.5983 81.7633C24.304 81.7633 23.0957 82.3402 22.2811 83.3449C21.4666 84.3495 21.1543 85.6528 21.4236 86.9177L38.0069 165.046C38.2716 166.293 39.3894 167.198 40.6633 167.198H263.037C264.313 167.198 265.431 166.293 265.696 165.046L282.279 86.9177C282.548 85.6528 282.236 84.3495 281.421 83.3449C280.607 82.3402 279.399 81.7633 278.104 81.7633H25.5983Z" fill="#121314"/>
<path d="M259.017 165.198H44.6847C42.3903 165.198 40.3742 163.65 39.89 161.519L24.6824 91.0878C24.2366 89.1283 24.6258 87.1892 25.7504 85.7795C26.7889 84.4784 28.357 83.7634 30.1672 83.7634H273.539C275.349 83.7634 276.917 84.4784 277.956 85.7795C279.08 87.1892 279.469 89.1283 279.021 91.0991L263.816 161.508C263.329 163.65 261.313 165.198 259.019 165.198H259.017ZM30.1649 86.094C29.063 86.094 28.1647 86.4877 27.5696 87.2344C26.8885 88.0874 26.6645 89.3093 26.9541 90.5855L42.164 161.019C42.4061 162.087 43.4673 162.872 44.6847 162.872H259.017C260.234 162.872 261.295 162.087 261.54 161.007L276.745 90.599C277.037 89.3093 276.813 88.0875 276.134 87.2367C275.537 86.49 274.641 86.0963 273.536 86.0963H30.1649V86.094Z" fill="#121314"/>
<path d="M255.478 259.655H48.2258C47.5832 259.655 47.0605 259.132 47.0605 258.489V188.04C47.0605 187.397 47.581 186.875 48.2258 186.875H255.478C256.121 186.875 256.643 187.395 256.643 188.04V258.489C256.643 259.132 256.121 259.655 255.478 259.655ZM49.3889 257.326H254.313V189.208H49.3889V257.326Z" fill="#121314"/>
<path d="M255.478 202.374H48.2258C47.5832 202.374 47.0605 201.854 47.0605 201.209C47.0605 200.564 47.581 200.044 48.2258 200.044H255.478C256.121 200.044 256.643 200.564 256.643 201.209C256.643 201.854 256.121 202.374 255.478 202.374Z" fill="#121314"/>
<path d="M255.478 217.141H48.2258C47.5832 217.141 47.0605 216.618 47.0605 215.975C47.0605 215.333 47.581 214.81 48.2258 214.81H255.478C256.121 214.81 256.643 215.333 256.643 215.975C256.643 216.618 256.121 217.141 255.478 217.141Z" fill="#121314"/>
<path d="M255.478 231.905H48.2258C47.5832 231.905 47.0605 231.382 47.0605 230.74C47.0605 230.097 47.581 229.574 48.2258 229.574H255.478C256.121 229.574 256.643 230.097 256.643 230.74C256.643 231.382 256.121 231.905 255.478 231.905Z" fill="#121314"/>
<path d="M255.478 246.669H48.2258C47.5832 246.669 47.0605 246.146 47.0605 245.504C47.0605 244.861 47.581 244.338 48.2258 244.338H255.478C256.121 244.338 256.643 244.861 256.643 245.504C256.643 246.146 256.121 246.669 255.478 246.669Z" fill="#121314"/>
<path d="M61.1223 202.374C60.4797 202.374 59.957 201.854 59.957 201.209V188.04C59.957 187.397 60.4775 186.875 61.1223 186.875C61.7672 186.875 62.2876 187.395 62.2876 188.04V201.209C62.2876 201.852 61.7672 202.374 61.1223 202.374Z" fill="#121314"/>
<path d="M75.5266 202.374C74.884 202.374 74.3613 201.854 74.3613 201.209V188.04C74.3613 187.397 74.8818 186.875 75.5266 186.875C76.1715 186.875 76.6919 187.395 76.6919 188.04V201.209C76.6919 201.852 76.1715 202.374 75.5266 202.374Z" fill="#121314"/>
<path d="M89.9309 202.374C89.2883 202.374 88.7656 201.854 88.7656 201.209V188.04C88.7656 187.397 89.2861 186.875 89.9309 186.875C90.5758 186.875 91.0962 187.395 91.0962 188.04V201.209C91.0962 201.852 90.5758 202.374 89.9309 202.374Z" fill="#121314"/>
<path d="M104.333 202.374C103.691 202.374 103.168 201.854 103.168 201.209V188.04C103.168 187.397 103.688 186.875 104.333 186.875C104.978 186.875 105.499 187.395 105.499 188.04V201.209C105.499 201.852 104.978 202.374 104.333 202.374Z" fill="#121314"/>
<path d="M118.738 202.374C118.095 202.374 117.572 201.854 117.572 201.209V188.04C117.572 187.397 118.093 186.875 118.738 186.875C119.382 186.875 119.903 187.395 119.903 188.04V201.209C119.903 201.852 119.382 202.374 118.738 202.374Z" fill="#121314"/>
<path d="M133.142 202.374C132.499 202.374 131.977 201.854 131.977 201.209V188.04C131.977 187.397 132.497 186.875 133.142 186.875C133.787 186.875 134.307 187.395 134.307 188.04V201.209C134.307 201.852 133.787 202.374 133.142 202.374Z" fill="#121314"/>
<path d="M147.544 202.374C146.902 202.374 146.379 201.854 146.379 201.209V188.04C146.379 187.397 146.899 186.875 147.544 186.875C148.189 186.875 148.709 187.395 148.709 188.04V201.209C148.709 201.852 148.189 202.374 147.544 202.374Z" fill="#121314"/>
<path d="M161.948 202.374C161.306 202.374 160.783 201.854 160.783 201.209V188.04C160.783 187.397 161.306 186.875 161.948 186.875C162.591 186.875 163.114 187.395 163.114 188.04V201.209C163.114 201.852 162.591 202.374 161.948 202.374Z" fill="#121314"/>
<path d="M176.353 202.374C175.71 202.374 175.188 201.854 175.188 201.209V188.04C175.188 187.397 175.71 186.875 176.353 186.875C176.995 186.875 177.518 187.395 177.518 188.04V201.209C177.518 201.852 176.995 202.374 176.353 202.374Z" fill="#121314"/>
<path d="M190.755 202.374C190.113 202.374 189.59 201.854 189.59 201.209V188.04C189.59 187.397 190.113 186.875 190.755 186.875C191.398 186.875 191.92 187.395 191.92 188.04V201.209C191.92 201.852 191.398 202.374 190.755 202.374Z" fill="#121314"/>
<path d="M205.159 202.374C204.517 202.374 203.994 201.854 203.994 201.209V188.04C203.994 187.397 204.517 186.875 205.159 186.875C205.802 186.875 206.325 187.395 206.325 188.04V201.209C206.325 201.852 205.802 202.374 205.159 202.374Z" fill="#121314"/>
<path d="M219.564 202.374C218.921 202.374 218.398 201.854 218.398 201.209V188.04C218.398 187.397 218.921 186.875 219.564 186.875C220.206 186.875 220.729 187.395 220.729 188.04V201.209C220.729 201.852 220.206 202.374 219.564 202.374Z" fill="#121314"/>
<path d="M233.966 202.374C233.323 202.374 232.801 201.854 232.801 201.209V188.04C232.801 187.397 233.323 186.875 233.966 186.875C234.609 186.875 235.131 187.395 235.131 188.04V201.209C235.131 201.852 234.609 202.374 233.966 202.374Z" fill="#121314"/>
<path d="M68.4153 217.141C67.7727 217.141 67.25 216.618 67.25 215.975V202.806C67.25 202.164 67.7704 201.641 68.4153 201.641C69.0602 201.641 69.5806 202.162 69.5806 202.806V215.975C69.5806 216.618 69.0602 217.141 68.4153 217.141Z" fill="#121314"/>
<path d="M82.8196 217.141C82.177 217.141 81.6543 216.618 81.6543 215.975V202.806C81.6543 202.164 82.1747 201.641 82.8196 201.641C83.4645 201.641 83.9849 202.162 83.9849 202.806V215.975C83.9849 216.618 83.4645 217.141 82.8196 217.141Z" fill="#121314"/>
<path d="M97.2219 217.141C96.5793 217.141 96.0566 216.618 96.0566 215.975V202.806C96.0566 202.164 96.5771 201.641 97.2219 201.641C97.8668 201.641 98.3872 202.162 98.3872 202.806V215.975C98.3872 216.618 97.8668 217.141 97.2219 217.141Z" fill="#121314"/>
<path d="M111.626 217.141C110.984 217.141 110.461 216.618 110.461 215.975V202.806C110.461 202.164 110.981 201.641 111.626 201.641C112.271 201.641 112.792 202.162 112.792 202.806V215.975C112.792 216.618 112.271 217.141 111.626 217.141Z" fill="#121314"/>
<path d="M126.029 217.141C125.386 217.141 124.863 216.618 124.863 215.975V202.806C124.863 202.164 125.384 201.641 126.029 201.641C126.673 201.641 127.194 202.162 127.194 202.806V215.975C127.194 216.618 126.673 217.141 126.029 217.141Z" fill="#121314"/>
<path d="M140.433 217.141C139.79 217.141 139.268 216.618 139.268 215.975V202.806C139.268 202.164 139.788 201.641 140.433 201.641C141.078 201.641 141.598 202.162 141.598 202.806V215.975C141.598 216.618 141.078 217.141 140.433 217.141Z" fill="#121314"/>
<path d="M154.837 217.141C154.195 217.141 153.672 216.618 153.672 215.975V202.806C153.672 202.164 154.192 201.641 154.837 201.641C155.482 201.641 156.002 202.162 156.002 202.806V215.975C156.002 216.618 155.482 217.141 154.837 217.141Z" fill="#121314"/>
<path d="M169.241 217.141C168.599 217.141 168.076 216.618 168.076 215.975V202.806C168.076 202.164 168.599 201.641 169.241 201.641C169.884 201.641 170.407 202.162 170.407 202.806V215.975C170.407 216.618 169.884 217.141 169.241 217.141Z" fill="#121314"/>
<path d="M183.644 217.141C183.001 217.141 182.479 216.618 182.479 215.975V202.806C182.479 202.164 183.001 201.641 183.644 201.641C184.286 201.641 184.809 202.162 184.809 202.806V215.975C184.809 216.618 184.286 217.141 183.644 217.141Z" fill="#121314"/>
<path d="M198.048 217.141C197.405 217.141 196.883 216.618 196.883 215.975V202.806C196.883 202.164 197.405 201.641 198.048 201.641C198.691 201.641 199.213 202.162 199.213 202.806V215.975C199.213 216.618 198.691 217.141 198.048 217.141Z" fill="#121314"/>
<path d="M212.452 217.141C211.81 217.141 211.287 216.618 211.287 215.975V202.806C211.287 202.164 211.81 201.641 212.452 201.641C213.095 201.641 213.618 202.162 213.618 202.806V215.975C213.618 216.618 213.095 217.141 212.452 217.141Z" fill="#121314"/>
<path d="M226.855 217.141C226.212 217.141 225.689 216.618 225.689 215.975V202.806C225.689 202.164 226.212 201.641 226.855 201.641C227.497 201.641 228.02 202.162 228.02 202.806V215.975C228.02 216.618 227.497 217.141 226.855 217.141Z" fill="#121314"/>
<path d="M241.259 217.141C240.616 217.141 240.094 216.618 240.094 215.975V202.806C240.094 202.164 240.616 201.641 241.259 201.641C241.902 201.641 242.424 202.162 242.424 202.806V215.975C242.424 216.618 241.902 217.141 241.259 217.141Z" fill="#121314"/>
<path d="M62.3251 231.106C61.6825 231.106 61.1621 230.583 61.1621 229.941V216.772C61.1621 216.129 61.6825 215.606 62.3251 215.606C62.9677 215.606 63.4904 216.129 63.4904 216.772V229.941C63.4904 230.583 62.97 231.106 62.3251 231.106Z" fill="#121314"/>
<path d="M76.7278 231.106C76.0852 231.106 75.5625 230.583 75.5625 229.941V216.772C75.5625 216.129 76.0829 215.606 76.7278 215.606C77.3727 215.606 77.8931 216.129 77.8931 216.772V229.941C77.8931 230.583 77.3727 231.106 76.7278 231.106Z" fill="#121314"/>
<path d="M91.1321 231.106C90.4895 231.106 89.9668 230.583 89.9668 229.941V216.772C89.9668 216.129 90.4872 215.606 91.1321 215.606C91.777 215.606 92.2974 216.129 92.2974 216.772V229.941C92.2974 230.583 91.777 231.106 91.1321 231.106Z" fill="#121314"/>
<path d="M105.536 231.106C104.894 231.106 104.371 230.583 104.371 229.941V216.772C104.371 216.129 104.892 215.606 105.536 215.606C106.181 215.606 106.702 216.129 106.702 216.772V229.941C106.702 230.583 106.181 231.106 105.536 231.106Z" fill="#121314"/>
<path d="M119.941 231.106C119.298 231.106 118.775 230.583 118.775 229.941V216.772C118.775 216.129 119.296 215.606 119.941 215.606C120.586 215.606 121.106 216.129 121.106 216.772V229.941C121.106 230.583 120.586 231.106 119.941 231.106Z" fill="#121314"/>
<path d="M134.343 231.106C133.7 231.106 133.178 230.583 133.178 229.941V216.772C133.178 216.129 133.698 215.606 134.343 215.606C134.988 215.606 135.508 216.129 135.508 216.772V229.941C135.508 230.583 134.988 231.106 134.343 231.106Z" fill="#121314"/>
<path d="M148.747 231.106C148.105 231.106 147.582 230.583 147.582 229.941V216.772C147.582 216.129 148.102 215.606 148.747 215.606C149.392 215.606 149.913 216.129 149.913 216.772V229.941C149.913 230.583 149.392 231.106 148.747 231.106Z" fill="#121314"/>
<path d="M163.152 231.106C162.509 231.106 161.986 230.583 161.986 229.941V216.772C161.986 216.129 162.507 215.606 163.152 215.606C163.796 215.606 164.317 216.129 164.317 216.772V229.941C164.317 230.583 163.796 231.106 163.152 231.106Z" fill="#121314"/>
<path d="M177.552 231.106C176.909 231.106 176.387 230.583 176.387 229.941V216.772C176.387 216.129 176.909 215.606 177.552 215.606C178.195 215.606 178.717 216.129 178.717 216.772V229.941C178.717 230.583 178.197 231.106 177.552 231.106Z" fill="#121314"/>
<path d="M191.958 231.106C191.316 231.106 190.793 230.583 190.793 229.941V216.772C190.793 216.129 191.316 215.606 191.958 215.606C192.601 215.606 193.124 216.129 193.124 216.772V229.941C193.124 230.583 192.601 231.106 191.958 231.106Z" fill="#121314"/>
<path d="M206.361 231.106C205.718 231.106 205.195 230.583 205.195 229.941V216.772C205.195 216.129 205.718 215.606 206.361 215.606C207.003 215.606 207.526 216.129 207.526 216.772V229.941C207.526 230.583 207.003 231.106 206.361 231.106Z" fill="#121314"/>
<path d="M220.763 231.106C220.12 231.106 219.598 230.583 219.598 229.941V216.772C219.598 216.129 220.12 215.606 220.763 215.606C221.406 215.606 221.928 216.129 221.928 216.772V229.941C221.928 230.583 221.406 231.106 220.763 231.106Z" fill="#121314"/>
<path d="M235.167 231.106C234.525 231.106 234.002 230.583 234.002 229.941V216.772C234.002 216.129 234.525 215.606 235.167 215.606C235.81 215.606 236.333 216.129 236.333 216.772V229.941C236.333 230.583 235.81 231.106 235.167 231.106Z" fill="#121314"/>
<path d="M67.1692 245.872C66.5266 245.872 66.0039 245.35 66.0039 244.707V231.538C66.0039 230.895 66.5243 230.373 67.1692 230.373C67.8141 230.373 68.3345 230.895 68.3345 231.538V244.707C68.3345 245.35 67.8141 245.872 67.1692 245.872Z" fill="#121314"/>
<path d="M81.5735 245.872C80.9309 245.872 80.4082 245.35 80.4082 244.707V231.538C80.4082 230.895 80.9286 230.373 81.5735 230.373C82.2184 230.373 82.7388 230.895 82.7388 231.538V244.707C82.7388 245.35 82.2184 245.872 81.5735 245.872Z" fill="#121314"/>
<path d="M95.9758 245.872C95.3332 245.872 94.8105 245.35 94.8105 244.707V231.538C94.8105 230.895 95.331 230.373 95.9758 230.373C96.6207 230.373 97.1411 230.895 97.1411 231.538V244.707C97.1411 245.35 96.6207 245.872 95.9758 245.872Z" fill="#121314"/>
<path d="M110.38 245.872C109.738 245.872 109.215 245.35 109.215 244.707V231.538C109.215 230.895 109.735 230.373 110.38 230.373C111.025 230.373 111.545 230.895 111.545 231.538V244.707C111.545 245.35 111.025 245.872 110.38 245.872Z" fill="#121314"/>
<path d="M124.784 245.872C124.142 245.872 123.619 245.35 123.619 244.707V231.538C123.619 230.895 124.14 230.373 124.784 230.373C125.429 230.373 125.95 230.895 125.95 231.538V244.707C125.95 245.35 125.429 245.872 124.784 245.872Z" fill="#121314"/>
<path d="M139.187 245.872C138.544 245.872 138.021 245.35 138.021 244.707V231.538C138.021 230.895 138.542 230.373 139.187 230.373C139.832 230.373 140.352 230.895 140.352 231.538V244.707C140.352 245.35 139.832 245.872 139.187 245.872Z" fill="#121314"/>
<path d="M153.591 245.872C152.948 245.872 152.426 245.35 152.426 244.707V231.538C152.426 230.895 152.946 230.373 153.591 230.373C154.236 230.373 154.756 230.895 154.756 231.538V244.707C154.756 245.35 154.236 245.872 153.591 245.872Z" fill="#121314"/>
<path d="M167.995 245.872C167.353 245.872 166.83 245.35 166.83 244.707V231.538C166.83 230.895 167.35 230.373 167.995 230.373C168.64 230.373 169.161 230.895 169.161 231.538V244.707C169.161 245.35 168.64 245.872 167.995 245.872Z" fill="#121314"/>
<path d="M182.398 245.872C181.755 245.872 181.232 245.35 181.232 244.707V231.538C181.232 230.895 181.753 230.373 182.398 230.373C183.043 230.373 183.563 230.895 183.563 231.538V244.707C183.563 245.35 183.04 245.872 182.398 245.872Z" fill="#121314"/>
<path d="M196.802 245.872C196.159 245.872 195.637 245.35 195.637 244.707V231.538C195.637 230.895 196.157 230.373 196.802 230.373C197.447 230.373 197.967 230.895 197.967 231.538V244.707C197.967 245.35 197.445 245.872 196.802 245.872Z" fill="#121314"/>
<path d="M211.206 245.872C210.564 245.872 210.041 245.35 210.041 244.707V231.538C210.041 230.895 210.561 230.373 211.206 230.373C211.851 230.373 212.372 230.895 212.372 231.538V244.707C212.372 245.35 211.849 245.872 211.206 245.872Z" fill="#121314"/>
<path d="M225.607 245.872C224.964 245.872 224.441 245.35 224.441 244.707V231.538C224.441 230.895 224.962 230.373 225.607 230.373C226.252 230.373 226.772 230.895 226.772 231.538V244.707C226.772 245.35 226.249 245.872 225.607 245.872Z" fill="#121314"/>
<path d="M240.013 245.872C239.37 245.872 238.848 245.35 238.848 244.707V231.538C238.848 230.895 239.368 230.373 240.013 230.373C240.658 230.373 241.178 230.895 241.178 231.538V244.707C241.178 245.35 240.656 245.872 240.013 245.872Z" fill="#121314"/>
<path d="M60.8606 259.654C60.218 259.654 59.6953 259.132 59.6953 258.489V245.504C59.6953 244.861 60.2157 244.338 60.8606 244.338C61.5055 244.338 62.0259 244.861 62.0259 245.504V258.489C62.0259 259.132 61.5055 259.654 60.8606 259.654Z" fill="#121314"/>
<path d="M102.064 259.655C101.421 259.655 100.898 259.132 100.898 258.489V245.504C100.898 244.861 101.419 244.338 102.064 244.338C102.709 244.338 103.229 244.861 103.229 245.504V258.489C103.229 259.132 102.709 259.655 102.064 259.655Z" fill="#121314"/>
<path d="M179.73 259.654C179.087 259.654 178.564 259.132 178.564 258.489V245.504C178.564 244.861 179.087 244.338 179.73 244.338C180.372 244.338 180.895 244.861 180.895 245.504V258.489C180.895 259.132 180.375 259.654 179.73 259.654Z" fill="#121314"/>
<path d="M242.96 259.655C242.318 259.655 241.795 259.132 241.795 258.489V245.504C241.795 244.861 242.315 244.338 242.96 244.338C243.605 244.338 244.126 244.861 244.126 245.504V258.489C244.126 259.132 243.605 259.655 242.96 259.655Z" fill="#121314"/>
<path d="M37.5195 373.018C37.5195 373.018 48.299 327.296 48.9507 320.555C49.8218 310.986 49.6024 299.023 49.8218 292.061C50.2563 281.403 52.433 268.789 53.0846 267.483C54.173 265.092 62.2192 259.654 63.742 262.698C65.2648 265.743 59.8275 266.829 59.3908 270.527C58.7391 274.878 58.3024 282.055 60.4792 282.707C63.742 283.578 65.0475 271.396 67.222 261.392C68.3104 256.389 70.2676 250.952 71.5732 248.343C72.8788 245.732 76.1416 245.08 76.7932 247.689C77.4449 250.3 75.4877 255.955 74.836 262.915C74.4016 268.569 73.9649 280.532 73.9649 280.532C73.9649 280.532 78.1237 238.08 83.5338 239.424C88.9439 240.768 81.7825 281.157 84.8394 280.75C87.894 280.342 93.63 239.392 93.63 239.392C93.63 239.392 96.5127 236.722 98.1079 242.686C99.7031 248.651 95.0623 288.144 95.0623 288.144C95.0623 288.144 102.674 277.921 106.591 279.661C110.505 281.618 104.633 287.275 102.24 293.581C98.9767 302.064 97.4539 310.11 94.1934 315.55C90.7134 321.204 83.7533 327.076 79.1849 332.516C74.1821 341.139 74.1821 371.049 74.1821 371.049C65.9368 381.924 37.5195 378.064 37.5195 373.018Z" fill="#FFDDC0"/>
<path d="M74.1829 372.215C73.5403 372.215 73.0176 371.692 73.0176 371.05C73.0176 369.816 73.0764 340.725 78.1765 331.932C78.2105 331.873 78.2489 331.819 78.2919 331.767C80.0365 329.69 82.1566 327.517 84.2044 325.42C87.5916 321.949 91.0966 318.358 93.1986 314.941C95.1242 311.733 96.423 307.563 97.9277 302.736C98.887 299.657 99.8781 296.473 101.152 293.165C101.989 290.959 103.229 288.839 104.324 286.97C105.643 284.714 107.01 282.381 106.693 281.322C106.664 281.225 106.587 280.965 106.069 280.704C104.021 279.797 98.844 285.019 95.9953 288.841C95.6106 289.357 94.8821 289.463 94.3662 289.079C93.8503 288.694 93.7439 287.965 94.1286 287.45C95.493 285.617 102.525 276.582 107.062 278.598C108.053 279.093 108.664 279.779 108.927 280.657C109.529 282.684 108.119 285.094 106.334 288.144C105.286 289.934 104.098 291.964 103.329 293.996C102.082 297.238 101.1 300.385 100.152 303.429C98.6676 308.192 97.2647 312.69 95.1898 316.15C92.9429 319.799 89.3475 323.483 85.8697 327.047C83.7858 329.183 81.815 331.201 80.1406 333.185C75.3979 341.557 75.3436 370.753 75.3436 371.05C75.3436 371.692 74.8232 372.215 74.1783 372.215H74.1829Z" fill="#121314"/>
<path d="M91.3686 305.624C91.2826 305.624 91.1966 305.614 91.1084 305.594C90.4816 305.452 90.0879 304.827 90.2305 304.2C90.2848 303.963 95.6677 280.148 97.1656 262.813C97.8196 255.828 97.3693 245.956 96.953 242.84C96.7108 240.897 95.8827 240.012 95.1699 239.992C94.43 239.974 93.5023 240.804 93.1629 242.68C92.948 244.268 92.6991 246.291 92.423 248.524C91.8845 252.898 91.2736 257.856 90.5563 262.444C90.2621 264.248 89.9951 266.044 89.7372 267.773C88.2438 277.774 87.4654 282.184 84.7231 281.91C82.0372 281.641 82.1368 276.573 83.9221 257.994C84.0623 256.527 84.2026 255.077 84.3316 253.672C84.8882 248.115 85.3838 242.089 84.2479 240.831C84.1347 240.704 83.9673 240.589 83.5351 240.589C81.9105 240.589 80.9195 243.003 79.4577 250.522C77.1023 262.508 75.3577 280.679 75.3419 280.861C75.2808 281.501 74.7151 281.965 74.0725 281.908C73.4322 281.847 72.9638 281.279 73.0249 280.639C73.043 280.455 74.7988 262.171 77.1747 250.074C78.6047 242.723 79.7451 238.258 83.5374 238.258C84.5511 238.258 85.3725 238.598 85.9789 239.268C87.4722 240.917 87.6238 244.198 86.6554 253.894C86.5264 255.292 86.3861 256.745 86.2459 258.215C85.5557 265.395 84.5488 275.878 85.1236 279.032C85.9902 277.127 86.8138 271.608 87.4383 267.427C87.6985 265.689 87.9678 263.881 88.2619 262.073C88.9724 257.53 89.5788 252.593 90.1173 248.237C90.3934 245.992 90.6445 243.96 90.8685 242.311C91.4659 239.016 93.5182 237.634 95.2401 237.661C96.8217 237.706 98.8265 239.01 99.2677 242.539C99.6931 245.734 100.159 255.874 99.4894 263.019C97.978 280.505 92.561 304.472 92.5067 304.712C92.3846 305.252 91.9049 305.619 91.3731 305.619L91.3686 305.624Z" fill="#121314"/>
<path d="M37.5206 374.181C37.4323 374.181 37.3418 374.172 37.2513 374.149C36.6246 374.002 36.2376 373.376 36.3847 372.749C36.4933 372.292 47.1529 327.026 47.791 320.44C48.3929 313.83 48.4721 305.922 48.5354 299.569C48.5626 296.781 48.5897 294.149 48.6553 292.022C49.083 281.524 51.2145 268.61 52.0403 266.961C53.0133 264.818 58.5117 260.695 61.9668 260.63C63.7159 260.58 64.4852 261.585 64.7816 262.175C65.9944 264.601 64.1548 266.262 62.8108 267.474C61.7247 268.456 60.6974 269.382 60.5481 270.663C59.6181 276.858 60.082 281.195 60.8219 281.594C62.2044 281.367 63.7747 273.047 64.7115 268.074C65.1436 265.78 65.5917 263.406 66.0849 261.143C67.1914 256.052 69.2007 250.479 70.5311 247.821C71.4928 245.895 73.407 244.682 75.1878 244.884C76.5409 245.033 77.5636 245.976 77.9211 247.407C78.3533 249.133 77.8623 251.703 77.2423 254.957C76.7875 257.349 76.2693 260.06 75.9933 263.021C75.5656 268.57 75.1312 280.453 75.1267 280.573C75.104 281.216 74.5814 281.732 73.9207 281.693C73.278 281.671 72.7757 281.13 72.8006 280.487C72.8051 280.367 73.2418 268.436 73.674 262.822C73.9636 259.729 74.4909 256.962 74.957 254.52C75.5 251.665 75.9707 249.199 75.6629 247.97C75.5023 247.332 75.1719 247.223 74.9343 247.196C74.2465 247.126 73.183 247.721 72.6128 248.861C71.3457 251.393 69.4247 256.733 68.3589 261.637C67.8747 263.87 67.429 266.225 66.9991 268.506C65.4152 276.905 64.3313 282.125 62.1048 283.526C61.5075 283.902 60.8422 284.006 60.1793 283.829C56.8757 282.838 57.55 274.962 58.2401 270.353C58.4868 268.239 60.0186 266.857 61.2495 265.746C62.8221 264.325 63.0529 263.924 62.6999 263.216C62.6569 263.128 62.5687 262.933 62.0098 262.958C59.5887 263.003 54.8416 266.424 54.1424 267.963C53.545 269.255 51.409 281.673 50.9837 292.106C50.918 294.197 50.8909 296.817 50.8637 299.591C50.8004 305.988 50.7189 313.948 50.1103 320.657C49.4563 327.407 39.0932 371.412 38.6519 373.283C38.5252 373.819 38.0478 374.181 37.5206 374.181Z" fill="#121314"/>
<path d="M85.492 292.138C85.3178 292.138 85.139 292.097 84.9716 292.016C84.3969 291.728 84.1638 291.029 84.4512 290.454C85.1187 289.122 85.4151 288.006 85.4151 286.843C85.4151 286.201 85.9355 285.678 86.5781 285.678C87.2207 285.678 87.7434 286.198 87.7434 286.843C87.7434 288.386 87.3701 289.823 86.5329 291.495C86.3292 291.903 85.9174 292.138 85.4898 292.138H85.492Z" fill="#121314"/>
<path d="M172.126 259.654C171.484 259.654 170.961 259.132 170.961 258.489V245.504C170.961 244.861 171.481 244.338 172.126 244.338C172.771 244.338 173.292 244.861 173.292 245.504V258.489C173.292 259.132 172.771 259.654 172.126 259.654Z" fill="#121314"/>
<path d="M271.523 354.082C271.523 354.082 260.743 308.359 260.091 301.619C259.22 292.05 259.44 280.087 259.22 273.124C258.786 262.467 256.609 249.853 255.957 248.547C254.869 246.155 246.823 240.718 245.3 243.761C243.777 246.807 249.215 247.893 249.651 251.59C250.303 255.941 250.74 263.119 248.563 263.77C245.3 264.642 243.995 252.459 241.82 242.456C240.732 237.453 238.775 232.016 237.469 229.407C236.163 226.796 232.901 226.144 232.249 228.753C231.597 231.364 233.554 237.018 234.206 243.979C234.641 249.633 235.077 261.596 235.077 261.596C235.077 261.596 230.918 219.143 225.508 220.487C220.098 221.831 227.26 262.22 224.203 261.813C221.148 261.406 215.412 220.456 215.412 220.456C215.412 220.456 212.529 217.786 210.934 223.75C209.339 229.714 213.98 269.208 213.98 269.208C213.98 269.208 206.368 258.985 202.451 260.725C198.537 262.682 204.409 268.339 206.803 274.645C210.065 283.128 211.588 291.174 214.849 296.613C218.329 302.268 225.289 308.14 229.857 313.579C234.86 322.202 234.86 352.113 234.86 352.113C243.105 362.988 271.523 359.127 271.523 354.082Z" fill="#FFDDC0"/>
<path d="M234.861 353.278C235.504 353.278 236.027 352.756 236.027 352.113C236.027 350.88 235.968 321.788 230.868 312.995C230.834 312.937 230.795 312.882 230.752 312.83C229.008 310.753 226.888 308.581 224.84 306.483C221.453 303.012 217.948 299.421 215.846 296.005C213.92 292.796 212.621 288.626 211.117 283.8C210.157 280.72 209.166 277.537 207.892 274.229C207.055 272.022 205.815 269.902 204.72 268.033C203.401 265.777 202.034 263.445 202.351 262.386C202.38 262.288 202.457 262.028 202.975 261.768C205.023 260.861 210.2 266.083 213.049 269.905C213.434 270.42 214.162 270.527 214.678 270.142C215.194 269.757 215.3 269.029 214.916 268.513C213.551 266.68 206.519 257.645 201.982 259.661C200.991 260.157 200.38 260.842 200.118 261.72C199.516 263.748 200.925 266.158 202.711 269.208C203.758 270.997 204.946 273.027 205.716 275.059C206.962 278.301 207.944 281.449 208.892 284.492C210.377 289.255 211.78 293.753 213.855 297.213C216.101 300.863 219.697 304.546 223.175 308.11C225.259 310.246 227.229 312.265 228.904 314.249C233.646 322.621 233.701 351.817 233.701 352.113C233.701 352.756 234.221 353.278 234.866 353.278H234.861Z" fill="#121314"/>
<path d="M217.676 286.687C217.762 286.687 217.848 286.678 217.936 286.658C218.563 286.515 218.957 285.891 218.814 285.264C218.76 285.026 213.377 261.211 211.879 243.877C211.225 236.892 211.676 227.02 212.092 223.904C212.334 221.96 213.162 221.075 213.875 221.055C214.615 221.037 215.542 221.867 215.882 223.743C216.097 225.332 216.346 227.354 216.622 229.588C217.16 233.962 217.771 238.919 218.489 243.508C218.783 245.311 219.05 247.108 219.308 248.837C220.801 258.838 221.579 263.248 224.322 262.974C227.008 262.705 226.908 257.636 225.123 239.057C224.982 237.591 224.842 236.141 224.713 234.735C224.157 229.178 223.661 223.153 224.797 221.895C224.91 221.768 225.078 221.652 225.51 221.652C227.134 221.652 228.125 224.067 229.587 231.586C231.943 243.571 233.687 261.743 233.703 261.924C233.764 262.564 234.33 263.028 234.972 262.972C235.613 262.911 236.081 262.343 236.02 261.702C236.002 261.519 234.246 243.234 231.87 231.138C230.44 223.786 229.3 219.322 225.507 219.322C224.494 219.322 223.672 219.661 223.066 220.331C221.573 221.981 221.421 225.261 222.389 234.957C222.518 236.355 222.659 237.808 222.799 239.279C223.489 246.458 224.496 256.942 223.921 260.096C223.055 258.191 222.231 252.672 221.607 248.49C221.346 246.753 221.077 244.945 220.783 243.137C220.072 238.593 219.466 233.656 218.927 229.3C218.651 227.056 218.4 225.024 218.176 223.374C217.579 220.08 215.527 218.697 213.805 218.725C212.223 218.77 210.218 220.073 209.777 223.603C209.352 226.798 208.886 236.937 209.555 244.083C211.067 261.569 216.484 285.535 216.538 285.775C216.66 286.316 217.14 286.682 217.672 286.682L217.676 286.687Z" fill="#121314"/>
<path d="M271.521 355.245C271.61 355.245 271.7 355.236 271.791 355.213C272.417 355.066 272.804 354.439 272.657 353.812C272.549 353.355 261.889 308.09 261.251 301.503C260.649 294.894 260.57 286.986 260.507 280.632C260.479 277.844 260.452 275.213 260.387 273.086C259.959 262.587 257.828 249.674 257.002 248.024C256.029 245.881 250.53 241.759 247.075 241.693C245.326 241.643 244.557 242.648 244.26 243.239C243.048 245.664 244.887 247.325 246.231 248.538C247.317 249.52 248.345 250.445 248.494 251.726C249.424 257.921 248.96 262.259 248.22 262.657C246.838 262.431 245.267 254.111 244.331 249.137C243.898 246.843 243.45 244.47 242.957 242.207C241.851 237.116 239.841 231.543 238.511 228.884C237.549 226.958 235.635 225.746 233.854 225.947C232.501 226.096 231.478 227.04 231.121 228.47C230.689 230.196 231.18 232.767 231.8 236.021C232.255 238.412 232.773 241.123 233.049 244.085C233.476 249.633 233.911 261.517 233.915 261.637C233.938 262.279 234.461 262.795 235.121 262.757C235.764 262.734 236.266 262.193 236.241 261.551C236.237 261.431 235.8 249.5 235.368 243.886C235.078 240.793 234.551 238.025 234.085 235.584C233.542 232.728 233.071 230.262 233.379 229.033C233.54 228.395 233.87 228.287 234.108 228.26C234.796 228.189 235.859 228.784 236.429 229.925C237.696 232.457 239.617 237.797 240.683 242.7C241.167 244.933 241.613 247.289 242.043 249.57C243.627 257.969 244.711 263.189 246.937 264.589C247.535 264.965 248.2 265.069 248.863 264.893C252.166 263.902 251.494 256.025 250.802 251.416C250.555 249.303 249.023 247.92 247.792 246.809C246.22 245.388 245.989 244.988 246.342 244.279C246.385 244.191 246.473 243.997 247.032 244.022C249.453 244.067 254.2 247.488 254.9 249.027C255.497 250.319 257.633 262.736 258.058 273.17C258.124 275.26 258.151 277.881 258.178 280.655C258.242 287.051 258.323 295.011 258.932 301.72C259.586 308.47 269.949 352.475 270.39 354.346C270.517 354.883 270.994 355.245 271.521 355.245Z" fill="#121314"/>
<path d="M223.552 273.201C223.726 273.201 223.905 273.16 224.073 273.079C224.647 272.792 224.88 272.093 224.593 271.518C223.926 270.185 223.629 269.07 223.629 267.907C223.629 267.264 223.109 266.741 222.466 266.741C221.823 266.741 221.301 267.262 221.301 267.907C221.301 269.45 221.674 270.886 222.511 272.559C222.715 272.966 223.127 273.201 223.554 273.201H223.552Z" fill="#121314"/>
<path d="M231.709 160.193C235.576 115.566 239.443 70.9408 243.31 26.3135C181.638 26.1008 119.961 26.9086 58.3136 28.7346L57.2207 28.35C73.6321 69.7347 81.0537 114.661 78.8204 159.125L231.709 160.195V160.193Z" fill="white"/>
<path d="M232.612 160.279C234.121 142.849 235.632 125.42 237.141 107.99C238.646 90.6353 240.149 73.2804 241.653 55.9255C242.506 46.0827 243.359 36.2423 244.212 26.3995C244.251 25.9447 243.891 25.4152 243.396 25.413C218.877 25.3293 194.358 25.4062 169.84 25.6438C145.398 25.8813 120.956 26.2773 96.5191 26.8362C89.6767 26.9923 82.8343 27.1598 75.9919 27.3408C72.5345 27.4313 69.0748 27.5263 65.6174 27.6259C63.9634 27.6734 62.3094 27.7209 60.6553 27.7684C59.9878 27.7888 59.0986 27.9472 58.4582 27.8273C58.1505 27.7707 57.8315 27.6055 57.5373 27.5014C56.7589 27.2277 56.1186 28.0173 56.406 28.7391C62.7913 44.8745 67.8213 61.5302 71.4348 78.5027C75.0212 95.344 77.2228 112.482 78.0012 129.685C78.4447 139.464 78.4062 149.264 77.922 159.039C77.8994 159.494 78.232 160.021 78.7388 160.026C83.8095 160.062 88.8802 160.096 93.951 160.132C106.127 160.218 118.304 160.302 130.48 160.388C145.208 160.492 159.938 160.593 174.666 160.698L212.851 160.965C219.024 161.008 225.201 161.121 231.374 161.094C231.458 161.094 231.544 161.094 231.627 161.094C232.786 161.103 232.962 159.299 231.797 159.29C226.726 159.254 221.656 159.22 216.585 159.184C204.409 159.098 192.231 159.014 180.056 158.928C165.328 158.824 150.598 158.722 135.87 158.618L97.6844 158.351L85.1106 158.263C83.8186 158.254 82.5243 158.245 81.2323 158.236C80.5716 158.231 79.8159 158.123 79.1619 158.222C79.0828 158.233 78.99 158.222 78.9085 158.222L79.7254 159.209C80.5874 141.788 79.9969 124.3 77.9627 106.979C75.9285 89.6578 72.4553 72.5269 67.5814 55.792C64.8368 46.3724 61.6532 37.084 58.0419 27.9608L56.9105 29.1985C57.526 29.4157 58.0283 29.6216 58.6822 29.6239C60.334 29.6284 61.9926 29.5266 63.6443 29.479C66.6515 29.3931 69.6586 29.3093 72.6657 29.2279C78.8316 29.0604 84.9952 28.9043 91.161 28.7595C103.493 28.4676 115.824 28.2142 128.156 28.0038C152.673 27.5852 177.189 27.325 201.708 27.2277C215.546 27.1734 229.385 27.1688 243.224 27.2163L242.407 26.2298C240.898 43.6594 239.386 61.089 237.877 78.5186C236.372 95.8735 234.87 113.228 233.365 130.583C232.512 140.426 231.659 150.267 230.806 160.109C230.706 161.27 232.507 161.442 232.609 160.279H232.612Z" fill="#121314"/>
<path d="M111.169 41.847C110.422 41.8425 109.739 42.4466 109.65 43.1865L108.064 56.4912C107.976 57.2334 108.514 57.8398 109.261 57.8398H216.049C216.796 57.8398 217.486 57.2334 217.583 56.4935C217.583 56.4935 219.575 41.2406 216.744 41.8402C213.913 42.4376 111.169 41.847 111.169 41.847Z" fill="url(#paint0_linear_786_7895)"/>
<path d="M111.169 41.847C110.422 41.8425 109.739 42.4466 109.65 43.1865L108.064 56.4912C107.976 57.2334 108.514 57.8398 109.261 57.8398H216.049C216.796 57.8398 217.486 57.2334 217.583 56.4935C217.583 56.4935 219.575 41.2406 216.744 41.8402C213.913 42.4376 111.169 41.847 111.169 41.847Z" fill="white" fill-opacity="0.4"/>
<path d="M111.169 41.847C110.422 41.8425 109.739 42.4466 109.65 43.1865L108.064 56.4912C107.976 57.2334 108.514 57.8398 109.261 57.8398H216.049C216.796 57.8398 217.486 57.2334 217.583 56.4935C217.583 56.4935 219.575 41.2406 216.744 41.8402C213.913 42.4376 111.169 41.847 111.169 41.847Z" stroke="#121314" stroke-width="1.49349" stroke-linecap="round" stroke-linejoin="round"/>
<path d="M215.507 159.243C215.898 140.967 216.512 122.695 217.152 104.429C217.403 97.2468 217.663 90.065 217.933 82.8855C218.012 80.7879 218.091 78.6927 218.17 76.5952C218.202 75.7467 218.378 74.7465 218.22 73.898C217.921 72.3096 216.532 72.115 215.247 72.1241L211.511 72.1512L196.765 72.2621C180.928 72.3798 165.092 72.4974 149.253 72.6151C132.441 72.7395 115.627 72.8662 98.815 72.9907C97.0659 73.0043 95.3146 73.0178 93.5655 73.0291C93.113 73.0314 92.579 73.3165 92.579 73.846V148.558C92.579 152 92.4364 155.477 92.579 158.917C92.579 158.969 92.579 159.021 92.579 159.071C92.579 160.227 94.3824 160.406 94.3824 159.24V77.5206C94.3824 76.4933 94.6041 75.181 94.3824 74.1718C94.371 74.1243 94.3824 74.0655 94.3824 74.018L93.3958 74.8348C109.536 74.7149 125.673 74.5949 141.813 74.475C158.123 74.3528 174.434 74.2329 190.744 74.1107C196.414 74.0677 202.085 74.027 207.757 73.984C209.527 73.9704 211.294 73.9569 213.063 73.9455C213.928 73.9388 214.864 73.8301 215.724 73.9252C216.507 74.0134 216.448 74.3958 216.421 75.0611C216.36 76.6563 216.299 78.2537 216.238 79.8512C215.996 86.2773 215.758 92.7011 215.53 99.1271C214.889 117.127 214.281 135.129 213.839 153.133C213.792 155.113 213.744 157.095 213.704 159.075C213.679 160.236 215.482 160.412 215.507 159.245V159.243Z" fill="#121314"/>
<path d="M201.141 86.094H107.902V152.993H201.141V86.094Z" stroke="#121314" stroke-width="1.49349" stroke-linecap="round" stroke-linejoin="round"/>
<path d="M122.306 84.8427C122.044 102.243 121.783 119.641 121.521 137.041L121.297 151.891C121.279 153.05 123.082 153.228 123.1 152.061C123.363 134.661 123.623 117.263 123.886 99.8625C123.96 94.9117 124.035 89.9632 124.11 85.0124C124.128 83.8539 122.324 83.6752 122.306 84.8427Z" fill="#121314"/>
<path d="M107.902 98.842L199.976 97.3057" stroke="#121314" stroke-width="1.49349" stroke-linecap="round" stroke-linejoin="round"/>
<path d="M107.883 112.552L199.957 111.178" stroke="#121314" stroke-width="1.49349" stroke-linecap="round" stroke-linejoin="round"/>
<path d="M107.902 129.189L199.976 127.816" stroke="#121314" stroke-width="1.49349" stroke-linecap="round" stroke-linejoin="round"/>
<path d="M107.902 142.451L199.976 141.078" stroke="#121314" stroke-width="1.49349" stroke-linecap="round" stroke-linejoin="round"/>
<path d="M84.2334 39.993H87.3828L92.7148 49.6464L98.0322 39.993H101.211L96.377 48.2108H100.068V49.8368H95.4541L94.1943 52.0487V52.5614H100.068V54.1874H94.1943V61.8632H91.2207V54.1874H85.376V52.5614H91.2207V52.0487L89.9023 49.8368H85.376V48.2108H88.9355L84.2334 39.993Z" fill="#121314"/>
<path fill-rule="evenodd" clip-rule="evenodd" d="M315.965 106.875C344.916 106.875 368.385 88.5581 368.385 65.9627C368.385 43.3673 344.916 25.05 315.965 25.05C287.015 25.05 263.546 43.3673 263.546 65.9627C263.546 75.6446 267.855 84.5411 275.058 91.5475C273.1 96.9245 271.5 101.545 271.5 101.545C271.5 101.545 264.509 112.914 261.841 116.25C261.017 117.279 259.277 118.481 258.01 119.357C256.938 120.098 256.204 120.605 256.651 120.575C261.583 120.246 267.344 117.431 272.903 114.716C276.145 113.133 279.317 111.583 282.216 110.579C285.661 109.387 289.294 108.408 292.934 107.428C295.62 106.704 298.309 105.979 300.929 105.167C305.692 106.278 310.739 106.875 315.965 106.875Z" fill="url(#paint1_linear_786_7895)"/>
<path fill-rule="evenodd" clip-rule="evenodd" d="M315.965 106.875C344.916 106.875 368.385 88.5581 368.385 65.9627C368.385 43.3673 344.916 25.05 315.965 25.05C287.015 25.05 263.546 43.3673 263.546 65.9627C263.546 75.6446 267.855 84.5411 275.058 91.5475C273.1 96.9245 271.5 101.545 271.5 101.545C271.5 101.545 264.509 112.914 261.841 116.25C261.017 117.279 259.277 118.481 258.01 119.357C256.938 120.098 256.204 120.605 256.651 120.575C261.583 120.246 267.344 117.431 272.903 114.716C276.145 113.133 279.317 111.583 282.216 110.579C285.661 109.387 289.294 108.408 292.934 107.428C295.62 106.704 298.309 105.979 300.929 105.167C305.692 106.278 310.739 106.875 315.965 106.875Z" fill="white" fill-opacity="0.4"/>
<path opacity="0.2" d="M341.981 57.1354L307.78 91.3359C307.582 91.534 307.347 91.6912 307.089 91.7984C306.83 91.9056 306.553 91.9608 306.273 91.9608C305.993 91.9608 305.715 91.9056 305.457 91.7984C305.198 91.6912 304.963 91.534 304.765 91.3359L285.694 72.1581C285.295 71.7585 285.07 71.2167 285.07 70.6518C285.07 70.0869 285.295 69.5451 285.694 69.1455L292.087 62.7529C292.284 62.5548 292.519 62.3976 292.778 62.2904C293.037 62.1832 293.314 62.128 293.594 62.128C293.874 62.128 294.151 62.1832 294.41 62.2904C294.669 62.3976 294.904 62.5548 295.102 62.7529L304.872 72.1607C305.07 72.3588 305.305 72.516 305.563 72.6232C305.822 72.7305 306.099 72.7857 306.379 72.7857C306.659 72.7857 306.937 72.7305 307.195 72.6232C307.454 72.516 307.689 72.3588 307.887 72.1607L332.573 47.8369C332.771 47.6387 333.006 47.4816 333.265 47.3743C333.523 47.2671 333.801 47.2119 334.081 47.2119C334.361 47.2119 334.638 47.2671 334.897 47.3743C335.155 47.4816 335.39 47.6387 335.588 47.8369L341.981 54.1229C342.38 54.5225 342.604 55.0643 342.604 55.6292C342.604 56.1941 342.38 56.7359 341.981 57.1354Z" fill="#009EDB"/>
<path d="M343.479 52.6021L337.086 46.3266C336.287 45.5313 335.206 45.0847 334.079 45.0847C332.952 45.0847 331.87 45.5313 331.072 46.3266L306.38 70.6505L306.351 70.6212L296.592 61.2267C295.791 60.4343 294.709 59.9911 293.582 59.9941C292.456 59.9971 291.376 60.446 290.58 61.2427L284.187 67.6353C283.39 68.4344 282.941 69.5174 282.941 70.6465C282.941 71.7756 283.39 72.8586 284.187 73.6577L303.264 92.8355C303.66 93.2313 304.13 93.5453 304.647 93.7596C305.164 93.9738 305.718 94.0841 306.278 94.0841C306.837 94.0841 307.392 93.9738 307.909 93.7596C308.426 93.5453 308.896 93.2313 309.292 92.8355L343.492 58.6404C343.889 58.2436 344.203 57.7724 344.417 57.2538C344.631 56.7352 344.741 56.1795 344.739 55.6185C344.738 55.0574 344.626 54.5022 344.41 53.9846C344.193 53.4669 343.877 52.9971 343.479 52.6021ZM306.279 89.8283L287.202 70.6505L293.595 64.2579L293.624 64.2872L303.384 73.6817C304.182 74.4722 305.26 74.9156 306.383 74.9156C307.506 74.9156 308.584 74.4722 309.382 73.6817L334.098 49.3418L340.474 55.6279L306.279 89.8283Z" fill="#121314"/>
</g>
<defs>
<linearGradient id="paint0_linear_786_7895" x1="252.669" y1="78.7649" x2="260.477" y2="50.5788" gradientUnits="userSpaceOnUse">
<stop stop-color="#8AC2F7"/>
<stop offset="1" stop-color="#86F8A6" stop-opacity="0.8"/>
</linearGradient>
<linearGradient id="paint1_linear_786_7895" x1="403.307" y1="245.376" x2="484.039" y2="195.779" gradientUnits="userSpaceOnUse">
<stop stop-color="#8AC2F7"/>
<stop offset="1" stop-color="#86F8A6" stop-opacity="0.8"/>
</linearGradient>
<clipPath id="clip0_786_7895">
<rect width="352" height="355" fill="white" transform="translate(19 23.05)"/>
</clipPath>
</defs>
</svg>
