<svg width="432" height="401" viewBox="0 0 432 401" fill="none" xmlns="http://www.w3.org/2000/svg">
<g clip-path="url(#clip0_1052_7370)">
<path fill-rule="evenodd" clip-rule="evenodd" d="M61.2158 87.2481C64.521 84.42 70.8011 84.1027 70.8011 84.1027L387.127 84.284C387.127 84.284 391.326 84.8928 393.476 87.2114C395.624 89.53 395.723 93.5584 395.723 93.5584L395.749 307.863L430.906 308.045L430.792 311.412L415.181 317.61L39.9166 317.656L24.3707 311.389L24.252 308.759L26.3763 308.053L57.7055 308.131L57.576 95.415C57.576 95.415 57.9084 90.0762 61.2136 87.2481H61.2158Z" fill="#C9C9C9"/>
<path fill-rule="evenodd" clip-rule="evenodd" d="M67.168 93.1289C69.7607 90.603 74.1324 90.2792 74.1324 90.2792H300.527V303.308L65.5013 303.176L63.7656 301.063V100.383C63.7656 100.383 64.5752 95.6547 67.168 93.1289Z" fill="white"/>
<path d="M57.6665 308.623C57.2585 308.623 56.926 308.291 56.926 307.883V96.5613C56.9131 96.3778 56.6475 91.0023 60.6004 86.9609C64.1236 83.3578 69.9353 83.5521 70.1792 83.5586H104.205C104.613 83.5586 104.945 83.8889 104.945 84.2991C104.945 84.7093 104.613 85.0396 104.205 85.0396H70.149C70.0648 85.0352 64.7152 84.869 61.6561 87.9972C58.1717 91.5593 58.4005 96.4728 58.4048 96.5225V307.885C58.4048 308.293 58.0745 308.625 57.6665 308.625V308.623Z" fill="#121314"/>
<path d="M386.459 304.174L67.5641 303.863C67.3525 303.878 65.1893 303.938 64.1229 302.758C63.119 301.646 63.0434 299.957 63.037 299.77V102.183C63.024 101.995 62.7736 96.5614 66.5839 92.6495C69.9971 89.1435 75.6123 89.5516 75.8476 89.571H103.556C103.964 89.5688 104.297 89.8991 104.297 90.3093C104.297 90.7195 103.964 91.0498 103.556 91.0498H75.7893C75.6792 91.0412 70.567 90.6828 67.6439 93.6836C64.2956 97.1227 64.5114 102.097 64.5136 102.146V299.752C64.5266 300.093 64.6755 301.171 65.2174 301.769C65.7247 302.332 67.0978 302.399 67.5274 302.386L386.459 302.695C386.828 302.695 387.713 302.593 388.08 302.283C388.436 301.985 388.533 301.268 388.54 301.041L388.505 99.8104C388.505 99.7413 388.631 96.1836 386.049 93.3576C383.933 91.0433 380.669 91.0584 380.617 91.052H207.637C207.229 91.052 206.896 90.7195 206.896 90.3115C206.896 89.9035 207.229 89.571 207.637 89.571H380.606C380.746 89.5667 384.565 89.5386 387.141 92.3581C390.15 95.6525 389.993 99.6766 389.984 99.845L390.019 301.058C390.016 301.231 389.96 302.632 389.032 303.414C388.158 304.15 386.657 304.174 386.459 304.174Z" fill="#121314"/>
<path d="M415.34 318.113L40.173 318.103C38.6402 318.103 27.3732 313.483 25.074 312.492C24.1586 312.097 23.6276 311.682 23.4937 311.255C23.4721 311.184 23.4592 311.108 23.4592 311.032C23.4592 310.862 23.4527 310.691 23.4484 310.527C23.4052 309.264 23.3448 307.537 26.4038 307.339C26.419 307.339 26.4362 307.339 26.4513 307.339H430.67C430.877 307.339 431.391 307.419 431.67 308.163C431.955 308.928 432.045 310.732 431.201 311.464C430.601 311.984 416.638 318.116 415.34 318.116V318.113ZM24.9337 310.745C25.0459 310.827 25.264 310.963 25.659 311.134C30.3718 313.163 39.154 316.576 40.1773 316.624L415.34 316.635C416.556 316.464 429.446 310.896 430.256 310.324C430.42 310.13 430.437 309.26 430.329 308.817H26.4751C24.8732 308.925 24.884 309.258 24.925 310.478C24.9272 310.566 24.9315 310.655 24.9337 310.745Z" fill="#121314"/>
<path d="M430.327 311.585H24.6096C24.2016 311.585 23.8691 311.253 23.8691 310.845C23.8691 310.437 24.2016 310.104 24.6096 310.104H430.327C430.735 310.104 431.067 310.437 431.067 310.845C431.067 311.253 430.735 311.585 430.327 311.585Z" fill="#121314"/>
<path d="M300.676 303.686C300.268 303.686 299.936 303.353 299.936 302.945V90.9981C299.936 90.59 300.268 90.2576 300.676 90.2576C301.084 90.2576 301.417 90.59 301.417 90.9981V302.948C301.417 303.356 301.084 303.688 300.676 303.688V303.686Z" fill="#121314"/>
<path d="M103.127 90.2166L212.248 90.3094" stroke="#121314" stroke-width="1.5112" stroke-miterlimit="10"/>
<path d="M104.205 84.1761L382.222 84.2819C382.222 84.2819 395.723 80.8126 395.726 93.5607C395.728 106.309 395.751 307.865 395.751 307.865" stroke="#121314" stroke-width="1.72708" stroke-miterlimit="10"/>
<path d="M139.173 186.422H72.6866C72.0476 186.422 71.5273 185.903 71.5273 185.262V98.0684C71.5273 97.6409 71.8728 97.2955 72.3002 97.2955H139.559C139.987 97.2955 140.332 97.6409 140.332 98.0684V185.262C140.332 185.901 139.814 186.422 139.173 186.422Z" fill="#F8FBFF"/>
<path d="M122.25 174.578H81.9006C81.4451 174.578 81.0781 174.209 81.0781 173.756C81.0781 173.302 81.4473 172.933 81.9006 172.933H122.25C122.705 172.933 123.072 173.302 123.072 173.756C123.072 174.209 122.703 174.578 122.25 174.578Z" fill="#4E7F96"/>
<path d="M113.996 178.542H81.9006C81.4451 178.542 81.0781 178.172 81.0781 177.719C81.0781 177.266 81.4473 176.897 81.9006 176.897H113.996C114.452 176.897 114.819 177.266 114.819 177.719C114.819 178.172 114.45 178.542 113.996 178.542Z" fill="#4E7F96"/>
<path d="M122.25 182.505H81.9006C81.4451 182.505 81.0781 182.136 81.0781 181.683C81.0781 181.229 81.4473 180.86 81.9006 180.86H122.25C122.705 180.86 123.072 181.229 123.072 181.683C123.072 182.136 122.703 182.505 122.25 182.505Z" fill="#4E7F96"/>
<path d="M78.4386 180.826C78.4386 181.536 77.8622 182.112 77.1519 182.112C76.4416 182.112 75.8652 181.536 75.8652 180.826C75.8652 180.115 76.4416 179.539 77.1519 179.539C77.8622 179.539 78.4386 180.115 78.4386 180.826Z" fill="#56847B"/>
<path d="M78.4386 177.29C78.4386 178 77.8622 178.576 77.1519 178.576C76.4416 178.576 75.8652 178 75.8652 177.29C75.8652 176.579 76.4416 176.003 77.1519 176.003C77.8622 176.003 78.4386 176.579 78.4386 177.29Z" fill="#56847B"/>
<path d="M78.4386 173.756C78.4386 174.466 77.8622 175.042 77.1519 175.042C76.4416 175.042 75.8652 174.466 75.8652 173.756C75.8652 173.045 76.4416 172.469 77.1519 172.469C77.8622 172.469 78.4386 173.045 78.4386 173.756Z" fill="#56847B"/>
<path fill-rule="evenodd" clip-rule="evenodd" d="M98.4946 110.976C98.4946 110.976 101.433 110.128 103.579 109.169C106.234 107.926 109.68 108.379 112.957 110.752C114.764 112.051 117.024 114.197 117.872 116.287C120.416 122.161 116.912 126.794 116.912 126.794L110.64 129.788L95.2736 127.021C95.2736 127.021 93.6912 122.163 94.2007 118.603C95.0491 112.954 98.4946 110.976 98.4946 110.976Z" fill="#F08C65"/>
<path fill-rule="evenodd" clip-rule="evenodd" d="M117.478 127.189C117.478 127.189 116.912 126.906 116.349 126.738C115.615 126.567 114.71 126.738 113.693 125.721C112.676 124.761 110.982 123.349 110.982 123.349C110.982 123.349 108.553 123.744 107.083 122.615C105.895 121.654 105.615 119.169 105.5 118.66C105.105 117.077 103.128 116.06 102.167 118.377C101.999 118.772 101.828 120.637 101.377 121.937C100.926 123.066 100.248 123.575 99.8528 124.141C99.0043 125.328 98.8921 125.497 97.9875 126.175C97.1412 126.909 95.9539 126.626 95.276 126.965C94.7687 127.191 94.4859 128.038 94.4859 128.094C94.0908 129.054 94.6564 130.354 94.6564 130.354L96.0122 131.822L97.4241 132.5C97.4241 132.5 97.8191 134.534 98.497 136.06C99.1749 137.586 100.192 138.545 100.192 138.545C100.192 138.545 100.248 143.968 98.8921 144.646C98.6632 144.764 98.4301 144.885 98.1969 145.008C98.4171 145.572 98.5985 146.124 98.9137 146.608C99.2418 147.118 99.7081 147.435 100.265 147.653C100.716 147.83 101.2 147.979 101.569 148.307C101.642 148.372 101.703 148.45 101.766 148.525C102.702 148.864 103.663 149.251 104.399 149.941C104.863 150.377 105.161 150.906 105.332 151.485C105.811 150.559 106.528 149.751 107.441 149.244C108.341 148.743 109.337 148.7 110.325 148.627C110.528 148.482 110.74 148.35 110.947 148.219C112.223 147.409 113.054 146.155 113.788 144.834C113.583 144.682 113.382 144.527 113.188 144.359C112.059 143.342 112.342 138.426 112.342 138.426C112.342 138.426 113.188 137.521 113.98 135.997C114.77 134.471 115.053 132.325 115.053 132.325C115.053 132.325 116.353 132.213 117.426 130.63C118.443 129.162 117.482 127.185 117.482 127.185L117.478 127.189Z" fill="#FFDDC0"/>
<path d="M106.123 142.476C106.011 142.474 103.893 142.387 100.955 140.289C98.8675 138.834 98.1723 137.245 97.7989 136.39C97.2138 135.17 96.7259 133.508 96.2769 131.189C96.1905 130.743 96.482 130.311 96.9288 130.224C97.3757 130.138 97.8075 130.429 97.8939 130.876C98.1594 132.247 98.5933 134.238 99.2971 135.704C99.6598 136.535 100.193 137.748 101.907 138.944C104.405 140.727 106.139 140.829 106.158 140.831C106.609 140.852 106.963 141.232 106.946 141.686C106.929 142.128 106.568 142.478 106.128 142.478L106.123 142.476Z" fill="#121314"/>
<path d="M106.18 142.476C105.724 142.476 105.357 142.107 105.357 141.653C105.357 141.2 105.72 140.835 106.169 140.831C106.219 140.829 107.683 140.747 110.118 139.056C111.899 137.815 112.687 136.44 112.995 135.732C113.712 134.24 114.146 132.247 114.409 130.876C114.496 130.429 114.93 130.138 115.374 130.224C115.821 130.311 116.113 130.743 116.026 131.189C115.577 133.51 115.09 135.17 114.492 136.418C114.125 137.26 113.17 138.935 111.057 140.41C108.16 142.42 106.374 142.478 106.18 142.478V142.476Z" fill="#121314"/>
<path d="M97.1398 133.098C97.1031 133.098 97.0664 133.096 97.0297 133.091C95.7495 132.921 94.1908 131.725 93.6857 129.769C93.3575 128.495 93.6468 127.232 94.4434 126.475C95.1235 125.827 96.0928 125.637 97.101 125.952C97.5349 126.088 97.7767 126.55 97.6407 126.984C97.5047 127.418 97.0448 127.662 96.6088 127.524C96.1684 127.386 95.8208 127.433 95.5768 127.668C95.2249 128.003 95.104 128.683 95.2789 129.359C95.6373 130.747 96.6757 131.384 97.2456 131.461C97.6968 131.522 98.012 131.936 97.9516 132.385C97.8976 132.798 97.5435 133.1 97.1377 133.1L97.1398 133.098Z" fill="#121314"/>
<path d="M95.7785 130.075C95.7785 130.075 95.4568 129.592 95.2971 129.378C95.0251 129.013 95.0985 128.499 95.4611 128.225C95.826 127.953 96.3398 128.027 96.614 128.389C96.7932 128.627 97.1494 129.16 97.1494 129.16L95.7807 130.073L95.7785 130.075Z" fill="#121314"/>
<path d="M115.159 133.098C114.753 133.098 114.399 132.798 114.345 132.383C114.285 131.932 114.602 131.52 115.051 131.459C115.621 131.384 116.66 130.745 117.018 129.357C117.193 128.681 117.072 128.003 116.72 127.666C116.474 127.433 116.126 127.386 115.686 127.522C115.25 127.658 114.79 127.416 114.654 126.982C114.518 126.548 114.76 126.086 115.194 125.95C116.204 125.635 117.171 125.825 117.851 126.472C118.648 127.23 118.937 128.491 118.609 129.767C118.104 131.723 116.545 132.916 115.265 133.089C115.228 133.094 115.192 133.096 115.155 133.096L115.159 133.098Z" fill="#121314"/>
<path d="M116.468 130.076L115.1 129.162C115.1 129.162 115.456 128.627 115.635 128.389C115.907 128.027 116.425 127.951 116.788 128.225C117.151 128.497 117.224 129.013 116.952 129.378C116.792 129.592 116.473 130.071 116.47 130.076H116.468Z" fill="#121314"/>
<path d="M106.236 133.437C106.046 133.437 105.854 133.37 105.696 133.236C105.353 132.938 105.316 132.418 105.614 132.075C105.819 131.837 105.916 131.686 105.959 131.602C105.914 131.561 105.86 131.513 105.813 131.474C105.502 131.209 105.033 130.81 104.867 130.086C104.448 128.497 105.599 126.168 105.612 126.146C105.815 125.738 106.309 125.574 106.715 125.779C107.121 125.982 107.287 126.477 107.082 126.883C106.771 127.502 106.273 128.964 106.465 129.696C106.512 129.905 106.646 130.026 106.879 130.224C107.177 130.479 107.587 130.827 107.633 131.442C107.682 132.109 107.244 132.709 106.855 133.156C106.693 133.344 106.462 133.441 106.234 133.441L106.236 133.437Z" fill="#121314"/>
<path d="M106.258 136.824C104.898 136.824 103.563 136.418 102.758 135.719C102.415 135.421 102.378 134.901 102.676 134.557C102.974 134.214 103.494 134.18 103.838 134.477C104.839 135.347 107.369 135.505 108.583 134.471C108.928 134.177 109.448 134.218 109.742 134.564C110.038 134.909 109.995 135.429 109.649 135.723C108.755 136.483 107.495 136.822 106.255 136.822L106.258 136.824Z" fill="#121314"/>
<path d="M100.309 124.335C100.048 124.335 99.7907 124.212 99.6309 123.983C99.374 123.614 99.4582 123.109 99.8231 122.848C99.8878 122.802 101.408 121.742 103.394 122.591C103.813 122.77 104.005 123.254 103.826 123.672C103.646 124.091 103.163 124.285 102.744 124.104C101.63 123.627 100.805 124.169 100.769 124.193C100.626 124.288 100.464 124.333 100.305 124.333L100.309 124.335Z" fill="#121314"/>
<path d="M111.603 124.285C111.441 124.285 111.277 124.238 111.135 124.139C111.085 124.106 110.276 123.59 109.183 124.098C108.769 124.29 108.281 124.111 108.091 123.698C107.899 123.286 108.078 122.796 108.49 122.606C110.485 121.682 112.02 122.75 112.083 122.796C112.452 123.059 112.538 123.575 112.275 123.944C112.115 124.169 111.86 124.29 111.603 124.29V124.285Z" fill="#121314"/>
<path fill-rule="evenodd" clip-rule="evenodd" d="M99.9631 138.601C99.9631 138.601 103.296 141.539 106.235 141.595C108.495 141.651 111.714 138.884 111.714 138.884C111.714 138.884 108.437 143.007 105.442 143.517C102.843 143.968 100.131 141.312 100.131 141.312L99.9609 138.601H99.9631Z" fill="#121314"/>
<path d="M94.5967 115.359C94.2383 115.359 93.908 115.121 93.8044 114.759C93.6814 114.32 93.9361 113.867 94.3722 113.744C95.0177 113.563 95.5077 112.943 96.0777 112.224C97.0319 111.022 98.2193 109.525 100.68 109.644C101.134 109.666 101.483 110.052 101.462 110.508C101.44 110.961 101.06 111.302 100.598 111.289C98.9856 111.212 98.2344 112.155 97.3665 113.247C96.6822 114.109 95.974 115 94.8191 115.326C94.7435 115.348 94.6701 115.357 94.5945 115.357L94.5967 115.359Z" fill="#121314"/>
<path d="M95.2751 127.448C94.9211 127.448 94.5929 127.217 94.4871 126.859C92.7622 121.056 92.9392 117.187 95.0247 115.035C95.342 114.709 95.8623 114.7 96.1883 115.015C96.5143 115.333 96.5229 115.853 96.2077 116.179C94.5951 117.843 94.5476 121.278 96.0674 126.388C96.1969 126.824 95.9487 127.282 95.5126 127.412C95.4349 127.435 95.355 127.446 95.2773 127.446L95.2751 127.448Z" fill="#121314"/>
<path d="M114.472 112.222C113.371 112.222 112.514 111.611 111.68 111.017C110.99 110.525 110.277 110.018 109.329 109.73C107.136 109.035 104.701 109.482 103.522 110.253C103.142 110.501 102.631 110.395 102.382 110.015C102.134 109.635 102.24 109.124 102.62 108.876C104.409 107.705 107.436 107.405 109.815 108.159C111.011 108.519 111.911 109.163 112.635 109.679C113.518 110.309 114.049 110.661 114.692 110.559C115.143 110.488 115.562 110.797 115.631 111.246C115.7 111.695 115.394 112.116 114.945 112.185C114.781 112.211 114.621 112.222 114.468 112.222H114.472Z" fill="#121314"/>
<path d="M117.193 127.843C117.085 127.843 116.977 127.822 116.871 127.778C116.453 127.601 116.258 127.118 116.435 126.699C118.685 121.397 117.713 115.447 115.343 113.668C114.98 113.396 114.905 112.88 115.179 112.515C115.451 112.153 115.967 112.077 116.332 112.351C119.557 114.769 120.313 121.775 117.951 127.342C117.817 127.655 117.513 127.843 117.193 127.843Z" fill="#121314"/>
<path d="M97.2528 126.431C96.9506 126.431 96.6613 126.265 96.5166 125.976C96.3137 125.57 96.4778 125.076 96.8858 124.87C97.8724 124.378 98.3452 123.152 98.5028 122.649C98.6388 122.215 99.1008 121.973 99.5347 122.109C99.9686 122.245 100.21 122.707 100.074 123.141C99.8003 124.016 99.1181 125.596 97.6241 126.343C97.5054 126.401 97.3802 126.429 97.2571 126.429L97.2528 126.431Z" fill="#121314"/>
<path d="M99.9081 124.793C99.662 124.793 99.4181 124.683 99.2562 124.471C98.9798 124.111 99.0468 123.595 99.4073 123.316C100.672 122.343 100.951 120.685 100.951 120.128L100.964 119.832C101.009 118.774 101.07 117.323 102.706 116.654C103.127 116.481 103.608 116.684 103.779 117.103C103.952 117.524 103.749 118.005 103.33 118.176C102.721 118.424 102.656 118.8 102.609 119.901L102.598 120.169C102.598 121.172 102.138 123.295 100.413 124.622C100.264 124.737 100.087 124.793 99.9125 124.793H99.9081Z" fill="#121314"/>
<path d="M109.514 124.285C109.486 124.285 109.458 124.285 109.428 124.281C107.845 124.117 106.099 123.664 105.147 121.539C104.886 120.957 104.758 120.223 104.624 119.445C104.277 117.431 103.992 116.602 103.128 116.658C102.681 116.691 102.282 116.347 102.252 115.894C102.222 115.441 102.563 115.048 103.016 115.018C105.512 114.843 105.95 117.448 106.246 119.169C106.362 119.843 106.47 120.477 106.647 120.87C107.159 122.01 107.93 122.476 109.596 122.649C110.047 122.697 110.378 123.1 110.33 123.551C110.287 123.975 109.929 124.29 109.512 124.29L109.514 124.285Z" fill="#121314"/>
<path d="M115.035 125.928C112.308 125.928 109.739 124.035 109.109 121.513C108.999 121.073 109.266 120.626 109.707 120.516C110.147 120.406 110.594 120.674 110.704 121.114C111.164 122.955 113.189 124.376 115.233 124.277C115.68 124.253 116.073 124.605 116.095 125.06C116.116 125.514 115.767 125.9 115.311 125.922C115.218 125.926 115.125 125.928 115.033 125.928H115.035Z" fill="#121314"/>
<path d="M101.092 114.964C100.637 114.964 100.27 114.594 100.27 114.141C100.27 114.001 100.298 112.725 101.252 111.263C101.5 110.883 102.012 110.775 102.39 111.024C102.769 111.272 102.877 111.781 102.629 112.161C101.934 113.226 101.915 114.132 101.915 114.141C101.915 114.597 101.545 114.964 101.092 114.964Z" fill="#121314"/>
<path fill-rule="evenodd" clip-rule="evenodd" d="M100.98 127.699C100.98 127.133 101.376 126.682 101.829 126.682C102.282 126.682 102.677 127.133 102.677 127.699C102.677 128.264 102.282 128.715 101.829 128.715C101.376 128.715 100.98 128.264 100.98 127.699Z" fill="#121314"/>
<path fill-rule="evenodd" clip-rule="evenodd" d="M109.568 127.699C109.568 127.133 109.907 126.682 110.415 126.682C110.866 126.682 111.263 127.133 111.263 127.699C111.263 128.264 110.868 128.715 110.415 128.715C109.907 128.772 109.568 128.264 109.568 127.699Z" fill="#121314"/>
<path d="M131.095 152.929C129.183 151.632 127.034 150.738 124.886 149.907C123.464 149.356 122.03 148.84 120.605 148.298C119.91 148.033 119.217 147.763 118.531 147.476C118.27 147.368 117.169 146.796 116.907 146.681C116.663 147.193 116.452 150.047 116.296 150.777C116.141 151.5 116.068 152.236 115.94 152.961C115.824 153.62 115.444 154.855 114.574 154.162C114.153 153.827 113.835 153.322 113.516 152.897C113.119 152.372 112.743 151.83 112.361 151.295C111.884 151.582 111.463 151.958 110.949 152.18C110.312 152.458 109.641 152.65 108.976 152.847C108.619 152.951 108.257 153.028 107.892 153.089C107.57 153.698 102.093 152.838 101.521 152.648C101.068 152.495 100.597 152.314 100.206 152.031C99.9949 151.88 99.5804 151.288 99.3105 151.331C99.0903 151.368 98.9392 151.67 98.8269 151.843C98.665 152.087 98.5096 152.333 98.352 152.579C98.0022 153.119 97.6417 153.667 97.2013 154.138C96.9077 154.455 96.4587 154.863 95.9837 154.712C95.3166 154.496 95.2605 153.419 95.2281 152.866C95.1914 152.223 95.1785 151.599 95.0317 150.967C94.8935 150.369 94.7575 149.786 94.6668 149.177C94.5481 148.374 94.3991 147.575 94.2588 146.776C89.9476 148.816 83.7905 150.546 80.9344 152.748C77.8386 155.135 77.4198 160.589 76.7246 169.619H134.944C134.944 169.619 134.759 155.41 131.093 152.925L131.095 152.929Z" fill="#9FB7D3"/>
<path d="M97.8521 143.231C97.7269 143.434 97.7701 143.696 97.8305 143.929C97.8802 144.121 97.9406 144.309 98.0076 144.494C98.0076 144.492 98.4868 143.985 98.5279 143.922C98.6682 143.713 98.8474 143.419 98.8776 143.162C98.9402 142.592 98.0248 142.951 97.8521 143.231Z" fill="#121314"/>
<path d="M112.915 142.884C113.118 142.908 113.34 142.972 113.437 143.152C113.485 143.238 113.493 143.339 113.502 143.439C113.534 143.803 113.563 144.186 113.414 144.518C113.407 144.535 113.396 144.553 113.381 144.561C113.347 144.583 113.301 144.553 113.273 144.525C112.988 144.257 112.77 143.922 112.63 143.557C112.578 143.424 112.453 143.154 112.492 143.009C112.546 142.808 112.727 142.862 112.915 142.884Z" fill="#121314"/>
<path d="M105.172 153.885C104.775 153.885 104.425 153.598 104.36 153.192C103.816 149.814 102.588 149.781 101.854 149.76C101.551 149.751 101.21 149.743 100.921 149.494C100.891 149.468 100.768 149.419 100.686 149.386C100.511 149.315 100.293 149.229 100.081 149.071C98.0065 147.528 97.0869 145.872 97.007 143.534C96.9595 142.189 98.4426 142.077 98.9284 142.04C99.3839 142.003 99.7768 142.346 99.8113 142.798C99.8459 143.251 99.5069 143.646 99.0536 143.681C98.9564 143.687 98.7945 143.7 98.665 143.719C98.7556 145.144 99.2392 146.39 101.066 147.75C101.107 147.78 101.21 147.821 101.301 147.86C101.454 147.921 101.633 147.994 101.815 148.113C101.841 148.113 101.869 148.113 101.897 148.113C103.324 148.152 105.301 148.693 105.983 152.927C106.057 153.376 105.75 153.799 105.301 153.87C105.256 153.877 105.213 153.881 105.17 153.881L105.172 153.885Z" fill="#121314"/>
<path d="M95.8869 155.399C95.7509 155.399 95.6171 155.366 95.494 155.299C95.2803 155.183 95.1292 154.98 95.0795 154.742C94.7665 153.223 94.6521 152.117 94.5485 151.144C94.406 149.788 94.2829 148.618 93.6892 146.636C93.5705 146.241 93.7626 145.818 94.1404 145.649C95.7768 144.911 95.8869 144.749 96.7397 143.482C96.8735 143.281 97.0247 143.059 97.1974 142.808C97.4564 142.433 97.9681 142.34 98.3416 142.599C98.715 142.858 98.81 143.37 98.551 143.743C98.3804 143.989 98.2358 144.207 98.1041 144.402C97.2319 145.697 96.8887 146.148 95.4617 146.848C95.9344 148.585 96.0575 149.749 96.187 150.971C96.2561 151.638 96.3295 152.318 96.459 153.138C96.5627 152.981 96.662 152.791 96.7893 152.551C96.8908 152.359 97.0009 152.152 97.1304 151.925L97.2038 151.798C97.8493 150.673 98.5834 149.399 99.8528 148.676C100.677 148.208 101.608 148.061 102.784 148.214C103.236 148.272 103.553 148.687 103.495 149.136C103.436 149.587 103.026 149.905 102.573 149.846C101.519 149.71 100.982 149.93 100.669 150.107C99.788 150.608 99.2008 151.629 98.633 152.618L98.5596 152.748C98.4409 152.953 98.3416 153.143 98.2487 153.32C97.8148 154.142 97.4413 154.853 96.1913 155.345C96.0942 155.384 95.9927 155.401 95.8913 155.401L95.8869 155.399Z" fill="#121314"/>
<path d="M105.518 153.885C105.062 153.885 104.695 153.516 104.695 153.063C104.695 151.299 105.347 148.302 109.719 148.063L109.831 148.056C109.931 148.043 109.997 148.033 110.041 148.024C110.105 147.944 110.192 147.849 110.317 147.754C112.158 146.383 112.636 145.129 112.72 143.691C112.681 143.687 112.649 143.685 112.627 143.685C112.174 143.65 111.832 143.255 111.867 142.802C111.902 142.348 112.303 142.009 112.75 142.042C113.162 142.072 114.421 142.167 114.373 143.538C114.294 145.876 113.374 147.532 111.299 149.075C111.021 149.451 110.686 149.613 110.023 149.691C109.978 149.697 109.905 149.701 109.807 149.706C107.441 149.835 106.34 150.902 106.34 153.063C106.34 153.518 105.971 153.885 105.518 153.885Z" fill="#121314"/>
<path d="M115.498 155.399C115.396 155.399 115.295 155.379 115.198 155.342C113.948 154.852 113.574 154.14 113.14 153.317C113.047 153.143 112.948 152.953 112.829 152.748C111.631 150.669 110.722 149.799 110.431 149.74C109.995 149.652 109.684 149.229 109.759 148.793C109.835 148.354 110.219 148.05 110.657 148.11C111.033 148.162 112.179 148.318 114.256 151.927C114.386 152.152 114.496 152.361 114.597 152.551C114.725 152.791 114.824 152.983 114.928 153.138C115.059 152.32 115.131 151.638 115.2 150.973C115.329 149.749 115.45 148.585 115.925 146.847C114.498 146.146 114.155 145.697 113.283 144.401C113.151 144.207 113.004 143.989 112.836 143.743C112.577 143.369 112.672 142.856 113.045 142.599C113.419 142.342 113.932 142.435 114.189 142.808C114.362 143.059 114.513 143.283 114.647 143.482C115.5 144.749 115.61 144.911 117.246 145.649C117.622 145.82 117.814 146.241 117.697 146.636C117.102 148.618 116.979 149.79 116.836 151.146C116.735 152.119 116.618 153.225 116.305 154.744C116.255 154.982 116.104 155.187 115.891 155.301C115.77 155.368 115.634 155.401 115.498 155.401V155.399Z" fill="#121314"/>
<path d="M76.603 170.446C76.5663 170.446 76.5296 170.444 76.4907 170.439C76.0395 170.379 75.7243 169.964 75.7848 169.513C75.8949 168.702 76.0136 167.594 76.1518 166.314C76.7843 160.424 77.4017 155.427 78.5567 153.92C79.2864 153.002 80.1996 152.199 81.3524 151.452C83.4271 150.109 85.9335 149.186 88.3558 148.294C89.3057 147.944 90.2037 147.614 91.0781 147.258L92.056 146.869C92.8591 146.552 93.6406 146.243 94.3725 145.926C94.7891 145.744 95.2749 145.936 95.4541 146.353C95.6354 146.77 95.4433 147.255 95.0266 147.435C94.2796 147.759 93.4787 148.076 92.6583 148.4L91.6912 148.782C90.7974 149.144 89.8432 149.496 88.9235 149.835C86.5833 150.697 84.1654 151.588 82.2441 152.832C81.2423 153.482 80.4587 154.168 79.852 154.932C78.8935 156.182 78.2005 162.633 77.786 166.489C77.6457 167.782 77.527 168.9 77.4147 169.733C77.3586 170.146 77.0045 170.446 76.6008 170.446H76.603Z" fill="#121314"/>
<path d="M135.258 170.446C134.852 170.446 134.5 170.146 134.444 169.733C134.334 168.917 134.213 167.814 134.079 166.571C133.664 162.758 132.971 156.374 131.998 155.105C130.031 152.635 126.421 151.305 122.933 150.021C122.013 149.682 121.061 149.332 120.163 148.967L119.196 148.583C118.358 148.253 117.568 147.942 116.81 147.612C116.394 147.43 116.201 146.945 116.383 146.528C116.564 146.111 117.05 145.921 117.467 146.103C118.198 146.42 118.976 146.727 119.8 147.053L120.778 147.441C121.655 147.797 122.553 148.128 123.503 148.477C127.205 149.84 131.033 151.249 133.295 154.093C134.463 155.617 135.083 160.565 135.715 166.394C135.849 167.62 135.966 168.708 136.076 169.513C136.136 169.964 135.821 170.379 135.37 170.439C135.333 170.444 135.294 170.446 135.258 170.446Z" fill="#121314"/>
<path d="M85.2885 170.172C85.2582 170.172 85.2259 170.172 85.1956 170.167C84.7444 170.116 84.4184 169.71 84.4703 169.259C84.7941 166.383 84.861 163.464 84.6689 160.578C84.6386 160.124 84.9819 159.732 85.4353 159.701C85.8886 159.669 86.2815 160.014 86.3118 160.468C86.5104 163.449 86.4413 166.469 86.1067 169.44C86.0592 169.861 85.703 170.172 85.2906 170.172H85.2885Z" fill="#121314"/>
<path d="M124.833 170.25C124.418 170.25 124.062 169.939 124.017 169.518C123.682 166.547 123.613 163.529 123.812 160.545C123.842 160.092 124.237 159.753 124.688 159.779C125.142 159.809 125.485 160.202 125.455 160.656C125.263 163.542 125.329 166.463 125.653 169.336C125.705 169.788 125.379 170.196 124.928 170.245C124.898 170.25 124.865 170.25 124.835 170.25H124.833Z" fill="#121314"/>
<path d="M140.069 168.876H71.5273V170.524H140.069V168.876Z" fill="#4E7F96"/>
<path d="M139.173 187.244H72.6869C71.5945 187.244 70.7051 186.354 70.7051 185.262V98.0683C70.7051 97.1875 71.4197 96.4729 72.3005 96.4729H139.559C140.44 96.4729 141.155 97.1875 141.155 98.0683V185.262C141.155 186.354 140.265 187.244 139.173 187.244ZM72.3501 98.1201V185.262C72.3501 185.448 72.5012 185.599 72.6847 185.599H139.171C139.357 185.599 139.505 185.448 139.505 185.262V98.1201H72.3501Z" fill="#121314"/>
<path d="M98.644 145.574C98.5101 145.574 98.3763 145.541 98.2511 145.474C97.8517 145.259 97.7027 144.758 97.9208 144.358C98.8167 142.707 99.2916 140.842 99.296 138.961C99.296 138.508 99.6651 138.141 100.118 138.141C100.574 138.141 100.943 138.512 100.941 138.966C100.937 141.116 100.39 143.253 99.365 145.142C99.2161 145.416 98.9333 145.572 98.6418 145.572L98.644 145.574Z" fill="#121314"/>
<path d="M112.983 146.012C112.646 146.012 112.329 145.803 112.208 145.466C111.407 143.238 111.238 140.9 111.074 138.64C111.042 138.186 111.383 137.791 111.836 137.759C112.29 137.718 112.685 138.067 112.717 138.521C112.873 140.671 113.032 142.893 113.758 144.909C113.911 145.336 113.689 145.807 113.261 145.962C113.168 145.995 113.076 146.012 112.983 146.012Z" fill="#121314"/>
<path d="M105.146 153.885C104.907 153.885 104.667 153.879 104.423 153.866C102.933 153.784 100.224 153.324 98.838 151.152C98.594 150.77 98.7063 150.261 99.0884 150.015C99.4705 149.771 99.98 149.881 100.226 150.265C101.256 151.875 103.568 152.171 104.514 152.221C105.697 152.286 106.808 152.171 107.823 151.882C109.071 151.526 110.265 150.869 111.42 150.237C111.819 150.019 112.318 150.166 112.536 150.563C112.754 150.962 112.609 151.461 112.21 151.681C110.975 152.357 109.699 153.056 108.276 153.464C107.299 153.745 106.249 153.885 105.148 153.885H105.146Z" fill="#121314"/>
<path d="M380.943 221.891H301.903C301.141 221.891 300.525 221.274 300.525 220.514V116.855C300.525 116.347 300.938 115.937 301.443 115.937H381.402C381.91 115.937 382.32 116.347 382.32 116.855V220.512C382.32 221.272 381.702 221.889 380.943 221.889V221.891Z" fill="#F8FBFF"/>
<path d="M360.823 207.656H312.854C312.398 207.656 312.031 207.287 312.031 206.833C312.031 206.38 312.4 206.011 312.854 206.011H360.823C361.279 206.011 361.646 206.38 361.646 206.833C361.646 207.287 361.277 207.656 360.823 207.656Z" fill="#4E7F96"/>
<path d="M351.011 212.367H312.854C312.398 212.367 312.031 211.997 312.031 211.544C312.031 211.091 312.4 210.722 312.854 210.722H351.011C351.467 210.722 351.834 211.091 351.834 211.544C351.834 211.997 351.465 212.367 351.011 212.367Z" fill="#4E7F96"/>
<path d="M360.823 217.079H312.854C312.398 217.079 312.031 216.71 312.031 216.257C312.031 215.803 312.4 215.434 312.854 215.434H360.823C361.279 215.434 361.646 215.803 361.646 216.257C361.646 216.71 361.277 217.079 360.823 217.079Z" fill="#4E7F96"/>
<path d="M372.988 177.43C367.861 174.079 357.877 171.437 352.482 168.697C352.425 167.24 350.61 166.433 349.809 165.304L349.509 165.345C348.077 168.266 345.828 170.558 343.367 172.281C342.041 173.209 340.85 175.204 340.897 174.703C340.901 174.714 340.906 174.723 340.908 174.733C340.854 173.514 339.781 172.821 338.846 172.281C336.29 170.701 334.133 168.266 332.704 165.345L332.404 165.304C331.603 166.431 329.807 167.234 329.729 168.684C324.667 171.353 314.948 172.294 310.634 176.404C307.606 179.291 307.793 178.03 305.412 201.57L377.442 201.499C377.442 201.499 377.159 180.256 372.993 177.43H372.988Z" fill="#6BA9C1"/>
<path d="M330.829 143.462C331.253 142.685 331.747 140.285 332.03 138.661C332.17 137.955 332.595 136.472 334.076 135.343C336.125 133.789 340.363 133.294 343.256 133.72C344.668 133.931 347.282 134.214 348.834 135.626C350.669 137.321 350.6 141.347 351.729 143.324C352.213 144.158 352.86 144.682 353.478 145.015L354.907 145.019C354.907 145.019 356.885 137.815 355.613 133.014C354.341 128.212 350.6 126.518 350.6 126.518C350.6 126.518 349.823 124.257 347.494 123.834C346.01 123.551 344.104 123.128 341.701 123.057C340.29 123.057 338.029 123.411 336.758 123.763C334.003 124.54 331.956 126.095 329.979 128.001C323.412 134.428 327.436 144.948 327.364 144.948H328.468C329.26 144.749 330.216 144.626 330.825 143.465L330.829 143.462Z" fill="#C37B7B"/>
<path d="M328.568 151.373L330.334 152.221C330.334 152.221 330.828 154.764 331.676 156.67C332.523 158.577 333.794 159.777 333.794 159.777C333.794 159.777 333.833 163.475 333.168 165.75C333.766 166.592 334.368 167.432 334.995 168.246C335.724 169.192 336.661 169.984 337.486 170.843C337.913 171.288 338.369 171.713 338.872 172.072C339.297 172.374 339.759 172.603 340.21 172.86C340.653 173.112 341.022 173.414 341.266 173.803C341.862 172.225 343.628 172.018 344.943 171.068C345.916 170.364 346.752 168.805 347.516 167.883C348.166 167.1 348.764 166.273 349.284 165.396C348.775 163.134 348.975 159.634 348.975 159.634C348.975 159.634 350.035 158.505 351.022 156.597C352.011 154.691 352.365 152.007 352.365 152.007C352.365 152.007 353.988 151.865 355.331 149.889C356.602 148.054 355.4 145.583 355.4 145.583C355.4 145.583 354.48 145.554 353.476 145.015C352.859 144.682 352.211 144.158 351.728 143.324C350.599 141.347 350.668 137.323 348.833 135.626C347.278 134.214 344.666 133.931 343.254 133.72C340.359 133.296 336.121 133.791 334.075 135.343C332.592 136.472 332.169 137.955 332.028 138.661C331.745 140.285 331.251 142.687 330.828 143.463C330.219 144.624 329.265 144.747 328.471 144.948C328.252 145.004 328.045 145.064 327.862 145.157C327.227 145.44 326.873 146.498 326.873 146.569C326.379 147.769 327.085 149.393 327.085 149.393L328.568 151.37V151.373Z" fill="#FFDDC0"/>
<path d="M305.34 202.11C305.303 202.11 305.266 202.108 305.227 202.103C304.776 202.043 304.461 201.628 304.524 201.177C304.668 200.104 304.839 198.122 305.035 195.828C305.802 186.858 306.551 179.302 307.967 177.669C310.827 174.451 315.631 172.853 320.279 171.31C321.395 170.938 322.55 170.554 323.632 170.161C324.195 169.947 324.763 169.738 325.32 169.533C326.749 169.006 328.098 168.509 329.247 167.981C329.661 167.791 330.149 167.97 330.339 168.384C330.529 168.797 330.35 169.287 329.938 169.477C328.729 170.034 327.349 170.541 325.89 171.079C325.339 171.281 324.776 171.489 324.206 171.705C323.092 172.11 321.926 172.497 320.799 172.873C316.358 174.347 311.767 175.873 309.206 178.755C308.034 180.109 307.151 190.426 306.678 195.968C306.479 198.284 306.309 200.286 306.158 201.4C306.102 201.812 305.75 202.112 305.344 202.112L305.34 202.11Z" fill="#121314"/>
<path d="M333.287 166.737C333.22 166.737 333.151 166.728 333.084 166.711C332.644 166.599 332.376 166.152 332.488 165.712C332.506 165.643 332.549 165.502 332.594 165.351C332.64 165.202 332.689 165.042 332.707 164.969C333.099 163.132 332.834 159.593 332.832 159.557C332.797 159.103 333.136 158.708 333.589 158.674C334.032 158.628 334.438 158.978 334.472 159.432C334.485 159.587 334.76 163.246 334.315 165.317C334.293 165.414 334.229 165.634 334.166 165.835C334.129 165.951 334.095 166.061 334.082 166.117C333.987 166.491 333.652 166.739 333.285 166.739L333.287 166.737Z" fill="#121314"/>
<path d="M377.508 202.039C377.107 202.039 376.757 201.745 376.696 201.337C376.513 200.104 376.316 197.891 376.092 195.329C375.632 190.115 374.779 180.411 373.642 179.099C371.086 176.225 366.496 174.699 362.055 173.222C360.928 172.849 359.762 172.46 358.659 172.059C358.081 171.841 357.519 171.633 356.971 171.43C355.181 170.772 353.491 170.15 352.105 169.429C351.701 169.22 351.546 168.723 351.755 168.319C351.965 167.916 352.461 167.76 352.865 167.97C354.156 168.641 355.799 169.246 357.539 169.887C358.094 170.09 358.659 170.299 359.231 170.515C360.304 170.906 361.457 171.288 362.575 171.659C367.221 173.203 372.025 174.8 374.881 178.011C376.265 179.608 376.964 186.43 377.735 195.184C377.957 197.719 378.151 199.91 378.329 201.093C378.395 201.542 378.087 201.961 377.638 202.03C377.597 202.036 377.556 202.039 377.515 202.039H377.508Z" fill="#121314"/>
<path d="M349.333 166.318C348.964 166.318 348.629 166.068 348.534 165.694C348.016 163.622 348.219 159.619 348.23 159.449C348.253 158.995 348.649 158.643 349.095 158.669C349.549 158.693 349.899 159.079 349.875 159.535C349.875 159.574 349.676 163.46 350.134 165.295C350.244 165.735 349.976 166.182 349.536 166.292C349.469 166.309 349.402 166.316 349.335 166.316L349.333 166.318Z" fill="#121314"/>
<path d="M341.354 164.341C341.221 164.336 338.636 164.233 335.014 161.644C332.451 159.857 331.596 157.905 331.137 156.856C330.409 155.343 329.805 153.283 329.248 150.397C329.161 149.95 329.453 149.518 329.9 149.432C330.349 149.345 330.778 149.637 330.865 150.084C331.199 151.809 331.745 154.317 332.635 156.169C333.097 157.221 333.775 158.773 335.966 160.299C339.146 162.573 341.363 162.693 341.387 162.693C341.838 162.713 342.192 163.093 342.177 163.546C342.16 163.991 341.799 164.339 341.359 164.339L341.354 164.341Z" fill="#121314"/>
<path d="M341.422 164.341C340.967 164.341 340.6 163.972 340.6 163.518C340.6 163.065 340.964 162.7 341.414 162.696C341.467 162.696 343.344 162.605 346.461 160.442C348.73 158.862 349.734 157.104 350.131 156.198C351.031 154.319 351.58 151.811 351.912 150.086C351.998 149.641 352.428 149.348 352.877 149.434C353.324 149.52 353.615 149.952 353.529 150.399C352.97 153.283 352.365 155.343 351.627 156.884C351.174 157.922 350.004 159.98 347.4 161.793C343.829 164.272 341.657 164.343 341.422 164.343V164.341Z" fill="#121314"/>
<path d="M330.127 152.618C330.09 152.618 330.054 152.616 330.017 152.612C328.486 152.407 326.617 150.969 326.01 148.611C325.617 147.089 325.958 145.589 326.897 144.695C327.703 143.929 328.812 143.713 330.017 144.091C330.451 144.227 330.693 144.689 330.557 145.123C330.421 145.557 329.959 145.798 329.525 145.662C328.899 145.468 328.396 145.544 328.031 145.889C327.53 146.364 327.362 147.273 327.601 148.201C328.074 150.034 329.466 150.878 330.231 150.982C330.682 151.042 330.997 151.457 330.939 151.906C330.883 152.32 330.531 152.62 330.125 152.62L330.127 152.618Z" fill="#121314"/>
<path d="M328.591 148.933C328.591 148.933 328.186 148.322 327.983 148.052C327.711 147.689 327.784 147.173 328.147 146.899C328.512 146.625 329.025 146.701 329.3 147.063C329.52 147.357 329.962 148.018 329.962 148.018L328.594 148.931L328.591 148.933Z" fill="#121314"/>
<path d="M352.579 152.618C352.173 152.618 351.819 152.318 351.765 151.904C351.705 151.452 352.022 151.04 352.473 150.98C353.24 150.876 354.632 150.032 355.105 148.201C355.345 147.273 355.176 146.364 354.675 145.889C354.31 145.541 353.807 145.466 353.181 145.662C352.747 145.798 352.285 145.557 352.149 145.123C352.013 144.689 352.255 144.227 352.689 144.091C353.894 143.713 355.001 143.929 355.809 144.695C356.75 145.589 357.089 147.091 356.696 148.611C356.089 150.967 354.222 152.407 352.689 152.612C352.652 152.616 352.616 152.618 352.579 152.618Z" fill="#121314"/>
<path d="M354.113 149.004L352.744 148.091C352.744 148.091 353.187 147.428 353.407 147.135C353.679 146.772 354.197 146.699 354.56 146.971C354.922 147.243 354.996 147.759 354.724 148.123C354.521 148.393 354.117 149 354.115 149.004H354.113Z" fill="#121314"/>
<path d="M341.564 152.758C341.374 152.758 341.182 152.691 341.026 152.558C340.683 152.26 340.646 151.739 340.944 151.396C341.445 150.818 341.467 150.604 341.469 150.595C341.447 150.589 341.281 150.446 341.171 150.353C340.804 150.04 340.249 149.568 340.057 148.728C339.644 146.768 340.78 144.462 340.83 144.365C341.033 143.957 341.527 143.793 341.933 143.996C342.339 144.199 342.505 144.693 342.302 145.099C341.941 145.82 341.449 147.348 341.665 148.376C341.728 148.654 341.924 148.831 342.237 149.101C342.583 149.395 343.055 149.799 343.109 150.481C343.155 151.072 342.87 151.688 342.188 152.473C342.026 152.661 341.797 152.758 341.566 152.758H341.564Z" fill="#121314"/>
<path d="M341.517 157.283C339.872 157.283 338.255 156.793 337.281 155.947C336.938 155.649 336.901 155.129 337.201 154.786C337.499 154.445 338.02 154.406 338.363 154.704C339.673 155.843 342.978 156.049 344.563 154.697C344.911 154.401 345.429 154.445 345.725 154.79C346.018 155.135 345.977 155.656 345.632 155.949C344.548 156.871 343.022 157.281 341.519 157.281L341.517 157.283Z" fill="#121314"/>
<path d="M334.296 141.88C334.034 141.88 333.78 141.759 333.62 141.53C333.363 141.161 333.445 140.654 333.812 140.393C333.888 140.339 335.701 139.076 338.076 140.095C338.495 140.274 338.687 140.757 338.507 141.176C338.328 141.593 337.845 141.787 337.428 141.608C335.925 140.965 334.812 141.707 334.764 141.737C334.622 141.835 334.46 141.882 334.298 141.882L334.296 141.88Z" fill="#121314"/>
<path d="M347.919 141.744C347.755 141.744 347.591 141.696 347.449 141.595C347.388 141.554 346.289 140.837 344.806 141.526C344.394 141.718 343.904 141.539 343.714 141.127C343.522 140.714 343.701 140.224 344.113 140.034C346.497 138.927 348.323 140.198 348.399 140.252C348.768 140.516 348.854 141.032 348.591 141.401C348.431 141.625 348.176 141.746 347.919 141.746V141.744Z" fill="#121314"/>
<path fill-rule="evenodd" clip-rule="evenodd" d="M333.654 159.703C333.654 159.703 337.821 163.376 341.564 163.447C344.388 163.518 348.414 160.058 348.414 160.058C348.414 160.058 344.319 165.213 340.576 165.848C337.326 166.413 333.937 163.093 333.937 163.093L333.654 159.703Z" fill="#121314"/>
<path d="M356.607 134.682C356.486 134.682 356.365 134.657 356.248 134.6C355.001 133.998 354.532 132.662 354.118 131.481C353.569 129.92 353.168 128.955 351.859 128.817C351.408 128.769 351.08 128.363 351.128 127.91C351.175 127.459 351.592 127.139 352.032 127.178C354.441 127.435 355.124 129.376 355.672 130.935C356.011 131.9 356.33 132.809 356.965 133.117C357.375 133.316 357.546 133.808 357.347 134.216C357.205 134.51 356.911 134.68 356.607 134.68V134.682Z" fill="#121314"/>
<path d="M355.123 145.628C355.058 145.628 354.993 145.619 354.928 145.604C354.486 145.496 354.216 145.051 354.322 144.611C354.404 144.279 354.492 143.935 354.585 143.583C355.136 141.479 355.76 139.093 355.295 135.738C355.233 135.287 355.548 134.872 355.999 134.81C356.442 134.752 356.865 135.062 356.927 135.514C357.435 139.195 356.738 141.859 356.178 144C356.088 144.343 356.001 144.676 355.924 145C355.833 145.377 355.496 145.63 355.125 145.63L355.123 145.628Z" fill="#121314"/>
<path d="M327.652 129.95C327.282 129.95 326.948 129.7 326.853 129.326C326.743 128.886 327.01 128.439 327.453 128.329C327.466 128.327 328.977 127.93 330.277 126.753C333.949 123.465 337.636 122.165 341.231 122.884C341.676 122.973 341.967 123.407 341.876 123.854C341.786 124.301 341.356 124.588 340.907 124.499C336.296 123.577 332.593 126.889 331.378 127.977C329.763 129.436 327.928 129.909 327.85 129.929C327.783 129.946 327.716 129.952 327.649 129.952L327.652 129.95Z" fill="#121314"/>
<path d="M350.744 127.761C350.34 127.761 349.988 127.463 349.93 127.053C349.917 126.973 349.656 125.412 347.935 124.821C347.11 124.538 346.331 124.484 345.575 124.434C344.369 124.352 343.119 124.268 341.839 123.284C341.478 123.007 341.411 122.489 341.69 122.129C341.966 121.77 342.484 121.701 342.845 121.978C343.73 122.658 344.593 122.718 345.688 122.791C346.508 122.848 347.441 122.91 348.47 123.264C351.18 124.195 351.547 126.723 351.562 126.829C351.622 127.28 351.305 127.692 350.854 127.752C350.817 127.757 350.78 127.759 350.744 127.759V127.761Z" fill="#121314"/>
<path d="M327.583 145.557C327.205 145.557 326.866 145.295 326.78 144.911C326.734 144.706 326.665 144.44 326.581 144.125C325.886 141.483 324.258 135.298 327.525 130.166C327.769 129.784 328.278 129.67 328.66 129.914C329.044 130.157 329.157 130.667 328.913 131.049C326.033 135.574 327.533 141.271 328.174 143.704C328.263 144.043 328.338 144.328 328.388 144.551C328.487 144.995 328.207 145.434 327.762 145.533C327.702 145.546 327.641 145.552 327.583 145.552V145.557Z" fill="#121314"/>
<path d="M345.235 134.54C345.112 134.54 344.984 134.512 344.868 134.454C344.462 134.251 344.296 133.756 344.499 133.348C344.991 132.364 346.189 131.623 347.284 131.623C347.739 131.623 348.106 131.992 348.106 132.446C348.106 132.899 347.737 133.268 347.284 133.268C346.83 133.268 346.185 133.657 345.971 134.084C345.826 134.374 345.537 134.54 345.235 134.54Z" fill="#121314"/>
<path d="M339.306 134.4C339.094 134.4 338.885 134.32 338.723 134.158C337.609 133.042 336.948 130.27 338.494 128.633C338.807 128.303 339.327 128.288 339.657 128.601C339.988 128.914 340.003 129.434 339.692 129.764C338.839 130.667 339.314 132.424 339.886 132.996C340.208 133.318 340.208 133.838 339.886 134.16C339.724 134.32 339.515 134.402 339.303 134.402L339.306 134.4Z" fill="#121314"/>
<path d="M336.48 135.034C336.431 135.034 336.381 135.03 336.331 135.021C335.017 134.782 334.229 133.033 334.315 131.55C334.341 131.097 334.734 130.751 335.185 130.777C335.638 130.803 335.986 131.194 335.958 131.647C335.9 132.627 336.429 133.366 336.625 133.402C337.072 133.484 337.37 133.914 337.288 134.361C337.214 134.758 336.869 135.037 336.478 135.037L336.48 135.034Z" fill="#121314"/>
<path d="M352.51 144.145C352.356 144.145 352.201 144.101 352.061 144.011C350.469 142.977 350.012 140.997 349.608 139.251C349.127 137.169 348.745 135.885 347.508 135.576C347.067 135.466 346.799 135.019 346.91 134.579C347.02 134.138 347.466 133.871 347.909 133.981C350.213 134.557 350.744 136.854 351.214 138.881C351.581 140.466 351.927 141.962 352.961 142.633C353.341 142.882 353.449 143.391 353.203 143.771C353.045 144.013 352.782 144.145 352.512 144.145H352.51Z" fill="#121314"/>
<path d="M330.548 144.285C330.349 144.285 330.152 144.214 329.995 144.071C329.658 143.767 329.632 143.247 329.939 142.908C330.638 142.135 330.824 140.904 331.02 139.6C331.32 137.603 331.662 135.341 334.032 134.305C334.449 134.121 334.932 134.313 335.116 134.728C335.297 135.144 335.107 135.63 334.69 135.812C333.153 136.485 332.918 138.042 332.646 139.844C332.421 141.334 332.19 142.871 331.156 144.013C330.994 144.192 330.77 144.283 330.548 144.283V144.285Z" fill="#121314"/>
<path fill-rule="evenodd" clip-rule="evenodd" d="M334.855 146.146C334.855 145.44 335.35 144.874 335.915 144.874C336.481 144.874 336.975 145.44 336.975 146.146C336.975 146.852 336.481 147.418 335.915 147.418C335.35 147.418 334.855 146.852 334.855 146.146Z" fill="#121314"/>
<path fill-rule="evenodd" clip-rule="evenodd" d="M345.518 146.146C345.518 145.44 346.012 144.874 346.578 144.874C347.143 144.874 347.638 145.44 347.638 146.146C347.638 146.852 347.214 147.418 346.578 147.418C346.012 147.489 345.518 146.852 345.518 146.146Z" fill="#121314"/>
<path d="M341.304 175.556C340.866 175.556 340.501 175.208 340.482 174.766C340.46 174.591 340.02 174.187 339.832 174.017C339.748 173.939 339.67 173.865 339.599 173.799C339.333 173.539 338.999 173.337 338.643 173.121L338.416 172.983C335.745 171.331 333.455 168.749 331.967 165.707C331.767 165.299 331.935 164.807 332.345 164.606C332.753 164.408 333.248 164.574 333.446 164.984C334.802 167.749 336.875 170.092 339.284 171.584L339.5 171.715C339.919 171.97 340.352 172.231 340.752 172.622C340.81 172.68 340.879 172.741 340.95 172.805C341.436 173.25 342.099 173.859 342.131 174.703C342.149 175.156 341.795 175.541 341.341 175.558C341.33 175.558 341.32 175.558 341.309 175.558L341.304 175.556Z" fill="#121314"/>
<path d="M332.639 179.841C332.576 179.841 332.513 179.835 332.451 179.82C332.172 179.755 331.946 179.548 331.857 179.273C331.531 178.274 331.194 176.944 330.84 175.537C330.311 173.447 329.713 171.076 328.986 169.131C328.83 168.712 328.876 168.3 328.943 168.028C329.059 167.549 329.374 167.227 329.562 167.035L331.816 164.727C332.133 164.401 332.656 164.397 332.98 164.714C333.304 165.032 333.31 165.554 332.993 165.878L330.739 168.186C330.681 168.246 330.557 168.371 330.54 168.421C330.521 168.496 330.525 168.548 330.529 168.561C331.287 170.584 331.896 173.002 332.436 175.133C332.639 175.932 332.833 176.704 333.021 177.397C333.703 176.616 334.253 175.862 334.987 174.798L335.104 174.63C335.696 173.771 336.365 172.797 337.379 172.303C337.943 172.028 339.057 171.635 340.171 172.1C341 172.445 341.609 173.173 341.978 174.263C342.125 174.692 341.894 175.161 341.464 175.308C341.034 175.454 340.566 175.223 340.419 174.794C340.208 174.172 339.91 173.777 339.536 173.622C339.001 173.397 338.353 173.663 338.098 173.786C337.472 174.09 336.956 174.841 336.458 175.565L336.339 175.737C335.257 177.302 334.515 178.28 333.224 179.597C333.068 179.757 332.855 179.843 332.636 179.843L332.639 179.841Z" fill="#121314"/>
<path d="M341.304 175.556C340.818 175.539 340.464 175.154 340.481 174.701C340.509 173.948 340.859 173.207 341.465 172.618C341.865 172.229 342.299 171.966 342.718 171.711L342.934 171.579C345.343 170.09 347.415 167.745 348.771 164.98C348.97 164.572 349.464 164.401 349.872 164.602C350.28 164.803 350.448 165.295 350.25 165.703C348.762 168.743 346.472 171.327 343.801 172.978L343.575 173.116C343.218 173.332 342.882 173.535 342.618 173.794C342.32 174.084 342.143 174.435 342.13 174.761C342.113 175.204 341.748 175.554 341.308 175.554L341.304 175.556Z" fill="#121314"/>
<path d="M349.575 179.841C349.357 179.841 349.143 179.755 348.988 179.595C347.699 178.28 346.956 177.305 345.872 175.735L345.754 175.562C345.255 174.837 344.739 174.088 344.113 173.783C343.774 173.619 343.217 173.49 342.757 173.667C342.412 173.801 342.153 174.096 341.967 174.567C341.801 174.99 341.319 175.197 340.898 175.031C340.475 174.865 340.268 174.386 340.434 173.963C340.881 172.831 341.62 172.343 342.159 172.132C342.971 171.819 343.966 171.882 344.832 172.302C345.847 172.797 346.516 173.771 347.107 174.63L347.224 174.798C347.96 175.862 348.511 176.616 349.191 177.397C349.378 176.704 349.575 175.932 349.776 175.133C350.315 173.002 350.924 170.584 351.684 168.555C351.684 168.548 351.688 168.496 351.669 168.419C351.654 168.371 351.531 168.246 351.473 168.186L349.219 165.878C348.901 165.552 348.908 165.031 349.232 164.714C349.558 164.397 350.078 164.403 350.395 164.727L352.649 167.035C352.837 167.227 353.15 167.549 353.269 168.026C353.336 168.298 353.381 168.71 353.226 169.129C352.498 171.074 351.9 173.445 351.371 175.534C351.015 176.942 350.68 178.27 350.354 179.271C350.266 179.545 350.039 179.753 349.761 179.817C349.698 179.833 349.635 179.839 349.573 179.839L349.575 179.841Z" fill="#121314"/>
<path d="M341.421 186.255C340.963 186.255 340.596 185.884 340.598 185.428C340.611 181.892 340.538 178.304 340.378 174.764C340.356 174.31 340.708 173.924 341.164 173.904C341.634 173.878 342.004 174.235 342.023 174.69C342.183 178.257 342.258 181.873 342.245 185.435C342.245 185.888 341.876 186.255 341.423 186.255H341.421Z" fill="#121314"/>
<path d="M316.698 202.172C316.657 202.172 316.618 202.17 316.579 202.164C316.13 202.099 315.817 201.68 315.882 201.231C316.464 197.205 316.48 193.636 316.495 189.86C316.499 188.658 316.505 187.423 316.527 186.136C316.536 185.687 316.903 185.327 317.35 185.327C317.818 185.336 318.181 185.709 318.172 186.165C318.151 187.445 318.144 188.671 318.14 189.867C318.125 193.703 318.109 197.328 317.509 201.469C317.449 201.879 317.097 202.175 316.695 202.175L316.698 202.172Z" fill="#121314"/>
<path d="M364.946 202.706C364.544 202.706 364.192 202.41 364.132 202.002C363.531 197.863 363.516 194.243 363.501 190.409C363.497 189.211 363.493 187.982 363.469 186.7C363.46 186.246 363.823 185.871 364.276 185.862C364.738 185.862 365.105 186.221 365.114 186.672C365.136 187.963 365.142 189.198 365.146 190.404C365.161 194.18 365.177 197.745 365.759 201.769C365.824 202.218 365.513 202.636 365.062 202.701C365.021 202.708 364.982 202.71 364.943 202.71L364.946 202.706Z" fill="#121314"/>
<path d="M382.322 202.835H300.528C300.072 202.835 299.705 202.466 299.705 202.013C299.705 201.559 300.074 201.19 300.528 201.19H382.322C382.778 201.19 383.145 201.559 383.145 202.013C383.145 202.466 382.775 202.835 382.322 202.835Z" fill="#4E7F96"/>
<path d="M380.943 222.714H301.903C300.69 222.714 299.701 221.727 299.701 220.514V116.854C299.701 115.894 300.483 115.112 301.443 115.112H381.401C382.361 115.112 383.143 115.894 383.143 116.854V220.512C383.143 221.725 382.156 222.712 380.943 222.712V222.714ZM301.443 116.76C301.389 116.76 301.348 116.803 301.348 116.854V220.512C301.348 220.818 301.597 221.067 301.903 221.067H380.943C381.25 221.067 381.498 220.818 381.498 220.512V116.854C381.498 116.803 381.455 116.76 381.403 116.76H301.446H301.443Z" fill="#121314"/>
<path d="M219.923 240.533H126.201C125.298 240.533 124.566 239.801 124.566 238.899V115.989C124.566 115.387 125.054 114.901 125.654 114.901H220.465C221.065 114.901 221.553 115.389 221.553 115.989V238.901C221.553 239.803 220.821 240.535 219.919 240.535L219.923 240.533Z" fill="#F8FBFF"/>
<path d="M196.067 223.502H139.188C138.732 223.502 138.365 223.133 138.365 222.679C138.365 222.226 138.734 221.857 139.188 221.857H196.067C196.523 221.857 196.89 222.226 196.89 222.679C196.89 223.133 196.52 223.502 196.067 223.502Z" fill="#4E7F96"/>
<path d="M184.433 229.089H139.188C138.732 229.089 138.365 228.72 138.365 228.266C138.365 227.813 138.734 227.444 139.188 227.444H184.433C184.888 227.444 185.255 227.813 185.255 228.266C185.255 228.72 184.886 229.089 184.433 229.089Z" fill="#4E7F96"/>
<path d="M196.067 234.676H139.188C138.732 234.676 138.365 234.307 138.365 233.853C138.365 233.4 138.734 233.031 139.188 233.031H196.067C196.523 233.031 196.89 233.4 196.89 233.853C196.89 234.307 196.52 234.676 196.067 234.676Z" fill="#4E7F96"/>
<path d="M134.312 232.645C134.312 233.647 133.501 234.458 132.499 234.458C131.497 234.458 130.686 233.647 130.686 232.645C130.686 231.643 131.497 230.831 132.499 230.831C133.501 230.831 134.312 231.643 134.312 232.645Z" fill="#56847B"/>
<path d="M134.312 227.662C134.312 228.664 133.501 229.476 132.499 229.476C131.497 229.476 130.686 228.664 130.686 227.662C130.686 226.66 131.497 225.849 132.499 225.849C133.501 225.849 134.312 226.66 134.312 227.662Z" fill="#56847B"/>
<path d="M134.312 222.68C134.312 223.681 133.501 224.493 132.499 224.493C131.497 224.493 130.686 223.681 130.686 222.68C130.686 221.678 131.497 220.866 132.499 220.866C133.501 220.866 134.312 221.678 134.312 222.68Z" fill="#56847B"/>
<path d="M159.659 162.666C159.659 162.666 160.097 165.381 161.149 167.745C162.2 170.111 163.776 171.599 163.776 171.599C163.776 171.599 163.826 172.467 163.834 173.695C163.849 176.348 163.236 181.005 161.867 181.86C162.213 182.924 163.044 184.379 163.69 185.269C164.568 186.482 165.848 186.814 167.202 187.486C166.906 188.036 168.266 191.249 168.949 192.855C169.335 193.766 171.58 197.46 172.165 198.151C173.009 199.144 174.864 195.925 175.216 195.169C175.967 193.554 177.146 191.907 177.783 190.245C178.24 189.051 178.234 187.594 179.51 187.16C180.561 186.266 181.787 185.923 182.551 184.766C183.07 183.98 183.547 182.868 183.877 181.996C183.825 181.953 183.45 181.543 183.4 181.497C182.098 180.325 182.005 175.671 182.044 173.356C182.057 172.557 182.085 172.037 182.085 172.037C182.085 172.037 184.013 170.111 185.239 167.745C186.465 165.379 186.904 162.491 186.904 162.491C186.904 162.491 188.218 162.402 189.268 161.528C190.23 160.565 189.617 160.038 189.617 160.038C189.617 160.038 187.165 157.761 184.363 154.784C183.4 153.732 181.999 151.63 181.999 151.63C181.999 151.63 180.509 149.002 180.246 146.9C180.071 145.41 179.544 142.608 178.057 141.118C176.567 139.542 174.29 139.015 172.364 139.19C170.699 139.365 167.634 140.591 166.582 141.818C164.657 144.27 163.253 149.525 161.766 151.802C159.139 155.919 158.526 155.919 156.861 157.584C155.81 158.635 155.285 159.773 155.285 159.773L157.388 161.787L159.665 162.663L159.659 162.666Z" fill="#FFDDC0"/>
<path d="M208.534 193.321C205.838 191.493 202.809 190.232 199.782 189.062C197.779 188.287 195.756 187.559 193.748 186.793C192.768 186.419 191.792 186.037 190.823 185.634C190.354 185.439 189.888 185.239 189.424 185.033C189.271 184.967 188.895 184.874 188.813 184.729C188.709 184.55 188.869 184.315 188.677 184.127C188.601 184.051 188.496 184.012 188.396 183.971C187.513 183.626 186.678 183.136 185.97 182.503C185.24 181.849 184.832 181.107 184.39 180.256C184.146 180.465 184.113 181.249 184.016 181.577C183.889 182.013 183.733 182.443 183.548 182.86C183.222 183.594 182.803 184.284 182.298 184.908C181.851 185.459 181.341 185.955 180.786 186.396C180.301 186.78 179.692 187.039 179.234 187.447C177.95 188.598 176.326 193.209 174.396 195.931C173.608 197.041 173.187 198.425 172.598 198.485C170.696 198.675 168.025 189.086 166.225 187.302C163.593 186.24 162.421 183.587 161.812 180.014C160.593 182 158.563 183.71 157.005 184.468C150.912 187.428 141.938 189.902 137.825 193.071C133.46 196.437 132.873 204.124 131.891 216.855H213.961C213.961 216.855 213.698 196.823 208.53 193.321H208.534Z" fill="#EDA398"/>
<path d="M173.102 217.68C172.659 217.68 172.294 217.328 172.279 216.883L172.219 214.836C172.085 210.221 171.832 201.633 171.47 198.779C171.411 198.328 171.731 197.915 172.182 197.859C172.636 197.803 173.046 198.12 173.102 198.572C173.473 201.503 173.726 210.145 173.862 214.787L173.922 216.827C173.937 217.28 173.581 217.662 173.126 217.677C173.117 217.677 173.106 217.677 173.1 217.677L173.102 217.68Z" fill="#121314"/>
<path d="M161.677 179.654C161.5 179.941 161.56 180.31 161.646 180.636C161.718 180.906 161.802 181.171 161.897 181.435C161.897 181.43 162.573 180.716 162.631 180.627C162.83 180.331 163.082 179.919 163.123 179.556C163.212 178.753 161.923 179.259 161.679 179.654H161.677Z" fill="#121314"/>
<path d="M182.909 179.159C183.194 179.194 183.507 179.284 183.645 179.537C183.712 179.66 183.725 179.803 183.736 179.941C183.781 180.455 183.822 180.992 183.611 181.463C183.6 181.487 183.587 181.512 183.566 181.525C183.516 181.556 183.453 181.515 183.412 181.474C183.013 181.096 182.702 180.625 182.508 180.111C182.437 179.924 182.257 179.541 182.313 179.336C182.391 179.051 182.646 179.127 182.909 179.159Z" fill="#121314"/>
<path d="M172.164 199.375C171.924 199.375 171.689 199.271 171.525 199.073C169.418 196.488 167.697 192.3 166.866 189.5C166.726 189.032 166.551 188.507 166.225 188.229C166.138 188.155 165.974 188.088 165.799 188.019C165.56 187.922 165.286 187.812 165.024 187.618C162.19 185.508 160.936 183.252 160.825 180.07C160.771 178.494 162.49 178.367 163.222 178.311C163.675 178.278 164.07 178.617 164.105 179.071C164.139 179.524 163.798 179.919 163.345 179.954C163.133 179.969 162.671 180.003 162.473 180.079C162.581 182.743 163.578 184.489 166.007 186.296C166.1 186.366 166.253 186.426 166.415 186.493C166.678 186.599 167.004 186.73 167.296 186.979C167.93 187.523 168.222 188.287 168.442 189.032C169.23 191.687 170.845 195.638 172.798 198.032C173.086 198.384 173.034 198.902 172.682 199.189C172.529 199.314 172.345 199.375 172.162 199.375H172.164Z" fill="#121314"/>
<path d="M158.903 196.467C158.767 196.467 158.633 196.434 158.51 196.367C158.296 196.251 158.145 196.048 158.096 195.81C157.66 193.684 157.495 192.136 157.353 190.772C157.15 188.844 156.975 187.179 156.127 184.353C156.008 183.958 156.2 183.535 156.576 183.367C158.972 182.287 159.16 182.007 160.384 180.189C160.572 179.908 160.783 179.595 161.027 179.243C161.286 178.868 161.798 178.775 162.172 179.034C162.545 179.293 162.64 179.805 162.381 180.178C162.141 180.526 161.934 180.832 161.751 181.109C160.514 182.948 160.054 183.54 157.903 184.567C158.627 187.143 158.804 188.827 158.989 190.599C159.108 191.728 159.229 192.887 159.497 194.377C159.896 194.04 160.125 193.608 160.473 192.946C160.613 192.678 160.766 192.391 160.947 192.076L161.051 191.896C161.941 190.349 162.951 188.593 164.661 187.622C165.552 187.115 166.848 186.84 167.804 187.596C168.16 187.877 168.223 188.395 167.942 188.751C167.661 189.107 167.143 189.17 166.787 188.889C166.494 188.658 165.9 188.811 165.475 189.053C164.153 189.805 163.303 191.285 162.478 192.719L162.374 192.9C162.204 193.194 162.061 193.466 161.93 193.716C161.349 194.817 160.848 195.767 159.203 196.413C159.106 196.452 159.004 196.469 158.903 196.469V196.467Z" fill="#121314"/>
<path d="M172.481 199.375C172.298 199.375 172.114 199.314 171.961 199.189C171.609 198.902 171.555 198.384 171.845 198.032C173.794 195.642 176.195 191.782 177.013 189.032C177.233 188.287 177.527 187.523 178.159 186.979C178.451 186.728 178.777 186.596 179.04 186.491C179.202 186.426 179.355 186.363 179.448 186.294C181.901 184.47 182.891 182.708 182.984 180.012C182.844 179.973 182.626 179.956 182.529 179.949C182.075 179.915 181.736 179.52 181.769 179.066C181.803 178.613 182.205 178.274 182.652 178.306C183.261 178.352 184.685 178.46 184.629 180.068C184.519 183.25 183.265 185.506 180.43 187.615C180.167 187.812 179.895 187.92 179.655 188.017C179.48 188.086 179.316 188.153 179.23 188.226C178.904 188.505 178.729 189.029 178.589 189.498C177.669 192.594 175.109 196.631 173.118 199.07C172.956 199.269 172.719 199.373 172.479 199.373L172.481 199.375Z" fill="#121314"/>
<path d="M186.55 196.467C186.449 196.467 186.347 196.447 186.25 196.411C184.605 195.765 184.104 194.813 183.523 193.714C183.392 193.464 183.249 193.194 183.079 192.898L182.975 192.717C182.15 191.283 181.3 189.802 179.978 189.051C179.063 188.531 178.852 188.697 178.782 188.753C178.426 189.034 177.908 188.973 177.627 188.615C177.347 188.259 177.407 187.741 177.766 187.46C178.916 186.553 180.33 187.356 180.792 187.622C182.502 188.593 183.513 190.349 184.402 191.896L184.506 192.076C184.687 192.391 184.838 192.678 184.981 192.946C185.33 193.608 185.557 194.04 185.956 194.377C186.222 192.887 186.345 191.728 186.464 190.599C186.649 188.827 186.826 187.143 187.55 184.567C185.399 183.542 184.94 182.948 183.702 181.109C183.517 180.832 183.31 180.526 183.07 180.178C182.811 179.805 182.906 179.291 183.279 179.034C183.653 178.775 184.164 178.87 184.424 179.243C184.668 179.595 184.877 179.908 185.067 180.189C186.291 182.007 186.479 182.285 188.875 183.367C189.251 183.537 189.443 183.958 189.324 184.353C188.476 187.177 188.301 188.842 188.098 190.77C187.953 192.134 187.791 193.682 187.355 195.81C187.306 196.048 187.154 196.253 186.941 196.367C186.818 196.434 186.684 196.467 186.548 196.467H186.55Z" fill="#121314"/>
<path d="M161.15 167.745C160.098 165.379 159.66 162.666 159.66 162.666L157.382 161.789L155.28 159.775C155.28 159.775 155.804 158.637 156.856 157.586C158.52 155.921 159.133 155.921 161.761 151.804C163.25 149.527 164.651 144.272 166.577 141.82C167.628 140.594 170.694 139.367 172.358 139.192C174.286 139.018 176.564 139.542 178.051 141.12C179.541 142.61 180.066 145.412 180.24 146.902C180.504 149.004 181.993 151.632 181.993 151.632C181.993 151.632 183.394 153.734 184.357 154.786C187.16 157.765 189.612 160.04 189.612 160.04C189.612 160.04 190.225 160.567 189.262 161.53C188.211 162.407 186.898 162.493 186.898 162.493C186.898 162.493 186.46 165.384 185.234 167.748C184.008 170.114 182.08 172.039 182.08 172.039C182.08 172.039 182.052 172.56 182.039 173.358L182.343 173.352C182.343 173.352 185.145 173.79 187.511 172.564C189.878 171.338 191.892 168.536 191.892 168.536C191.892 168.536 193.643 170.2 194.608 169.324C195.046 168.885 194.169 167.834 194.521 166.957C195.659 163.805 200.128 160.213 199.515 156.621C199.251 155.131 198.463 150.226 196.887 146.286C194.698 140.943 191.633 136.477 191.633 136.477C191.633 136.477 186.991 130.171 182.347 127.718C178.231 125.529 173.062 126.403 172.449 126.58C169.647 127.543 167.982 127.982 165.88 128.595C164.129 129.033 161.588 128.944 159.837 130.609C156.858 133.325 154.231 139.281 151.867 144.097C149.589 148.564 147.575 151.981 147.225 152.944C145.649 156.886 147.137 159.602 148.276 162.404C148.54 163.192 148.626 164.945 150.291 166.433C151.342 167.396 152.832 167.922 154.144 168.885C154.757 169.41 154.757 171.074 154.757 171.074C154.757 171.074 156.072 171.338 157.035 170.023C157.473 169.41 157.737 171.249 158.611 171.951C160.625 173.615 163.516 173.702 163.516 173.702L163.835 173.695C163.829 172.467 163.777 171.599 163.777 171.599C163.777 171.599 162.201 170.109 161.15 167.745Z" fill="#FFCE7E"/>
<path d="M173.236 177.063C173.081 177.059 169.944 176.933 165.506 173.943C162.498 171.938 161.436 169.811 160.801 168.54L160.763 168.46C159.852 166.638 159.105 164.235 158.416 160.902C158.323 160.457 158.61 160.021 159.055 159.928C159.5 159.835 159.936 160.123 160.029 160.567C160.689 163.758 161.391 166.031 162.237 167.724L162.278 167.804C162.876 169.002 163.778 170.811 166.425 172.575C170.432 175.273 173.239 175.414 173.267 175.416C173.72 175.433 174.074 175.813 174.059 176.266C174.044 176.711 173.681 177.061 173.239 177.061L173.236 177.063Z" fill="#121314"/>
<path d="M173.323 177.063C172.867 177.063 172.5 176.694 172.5 176.241C172.5 175.787 172.865 175.42 173.316 175.418C173.37 175.418 175.749 175.332 179.704 172.75C182.575 170.835 183.825 168.793 184.313 167.748C185.17 166.036 185.87 163.76 186.53 160.572C186.623 160.127 187.061 159.84 187.504 159.933C187.949 160.025 188.236 160.459 188.143 160.904C187.454 164.237 186.707 166.64 185.796 168.464C185.246 169.645 183.823 171.983 180.611 174.125C176.159 177.033 173.437 177.065 173.323 177.065V177.063Z" fill="#121314"/>
<path d="M159.399 163.4C159.358 163.4 159.315 163.398 159.274 163.391C157.963 163.19 156.031 162.15 154.896 159.881C154.693 159.475 154.857 158.981 155.265 158.775C155.673 158.573 156.165 158.737 156.37 159.145C157.165 160.734 158.563 161.616 159.526 161.765C159.975 161.835 160.284 162.256 160.215 162.705C160.152 163.113 159.803 163.402 159.403 163.402L159.399 163.4Z" fill="#121314"/>
<path d="M157.575 158.918C157.575 158.918 157.067 158.156 156.813 157.817C156.541 157.454 156.614 156.938 156.977 156.664C157.342 156.392 157.858 156.465 158.13 156.828C158.402 157.191 158.946 158.005 158.946 158.005L157.577 158.918H157.575Z" fill="#121314"/>
<path d="M187.163 163.4C186.748 163.4 186.392 163.089 186.347 162.668C186.297 162.217 186.621 161.809 187.074 161.759C187.59 161.701 188.475 161.323 189.272 160.446C189.579 160.112 190.099 160.086 190.436 160.39C190.772 160.697 190.796 161.217 190.492 161.554C189.555 162.586 188.346 163.274 187.258 163.395C187.228 163.4 187.195 163.4 187.165 163.4H187.163Z" fill="#121314"/>
<path d="M173.499 163.663C173.309 163.663 173.117 163.596 172.96 163.462C172.616 163.164 172.58 162.644 172.878 162.301C173.577 161.493 173.577 161.206 173.575 161.176C173.568 161.096 173.299 160.865 173.137 160.729C172.675 160.336 172.042 159.796 171.82 158.821C171.315 156.906 172.454 153.978 172.938 153.013C173.141 152.607 173.635 152.441 174.043 152.646C174.449 152.849 174.615 153.344 174.41 153.752C173.955 154.663 173.072 157.106 173.419 158.43C173.527 158.9 173.84 159.168 174.205 159.477C174.631 159.84 175.16 160.289 175.218 161.053C175.27 161.731 174.931 162.447 174.123 163.38C173.961 163.568 173.73 163.663 173.502 163.663H173.499Z" fill="#121314"/>
<path d="M173.527 168.756C171.537 168.756 169.583 168.162 168.407 167.139C168.063 166.841 168.027 166.32 168.325 165.977C168.622 165.634 169.143 165.599 169.486 165.895C171.202 167.387 175.365 167.652 177.435 165.889C177.78 165.593 178.301 165.636 178.596 165.981C178.892 166.327 178.849 166.847 178.504 167.143C177.193 168.259 175.347 168.753 173.53 168.753L173.527 168.756Z" fill="#121314"/>
<path d="M164.218 149.82C163.959 149.82 163.702 149.7 163.543 149.471C163.284 149.102 163.368 148.592 163.735 148.331C163.825 148.266 165.984 146.761 168.83 147.981C169.248 148.16 169.441 148.644 169.261 149.063C169.082 149.482 168.599 149.676 168.18 149.495C166.207 148.648 164.745 149.631 164.685 149.674C164.542 149.773 164.378 149.82 164.216 149.82H164.218Z" fill="#121314"/>
<path d="M181.733 149.736C181.569 149.736 181.405 149.689 181.26 149.587C181.189 149.538 179.74 148.579 177.789 149.486C177.376 149.678 176.886 149.499 176.696 149.086C176.504 148.674 176.683 148.184 177.096 147.994C179.952 146.669 182.121 148.182 182.212 148.247C182.581 148.51 182.668 149.024 182.404 149.395C182.245 149.62 181.992 149.741 181.735 149.741L181.733 149.736Z" fill="#121314"/>
<path fill-rule="evenodd" clip-rule="evenodd" d="M163.689 171.774C163.689 171.774 168.858 176.066 173.413 176.154C176.917 176.24 181.91 172.212 181.91 172.212C181.91 172.212 176.83 178.257 172.187 178.956C168.158 179.569 163.953 175.802 163.953 175.802L163.689 171.774Z" fill="#121314"/>
<path d="M131.72 217.68C131.683 217.68 131.647 217.677 131.608 217.673C131.157 217.613 130.842 217.198 130.902 216.747C131.057 215.598 131.226 214.035 131.42 212.226C132.307 203.975 133.169 196.976 134.743 194.923C135.744 193.664 137.003 192.557 138.598 191.523C141.491 189.651 145.008 188.356 148.408 187.104C149.751 186.609 151.018 186.143 152.253 185.64C152.721 185.452 153.183 185.271 153.639 185.09C154.792 184.636 155.878 184.207 156.905 183.76C157.322 183.581 157.808 183.77 157.989 184.187C158.17 184.604 157.978 185.09 157.562 185.271C156.51 185.729 155.409 186.162 154.243 186.622C153.788 186.802 153.33 186.983 152.868 187.169C151.612 187.678 150.271 188.172 148.976 188.649C145.66 189.871 142.232 191.134 139.492 192.907C138.048 193.842 136.919 194.835 136.038 195.94C134.626 197.781 133.642 206.937 133.054 212.405C132.858 214.225 132.689 215.799 132.532 216.971C132.476 217.384 132.122 217.684 131.718 217.684L131.72 217.68Z" fill="#121314"/>
<path d="M162.246 182.311C162.037 182.311 161.829 182.233 161.667 182.074C161.344 181.754 161.339 181.234 161.659 180.91C162.268 180.293 162.641 179.651 162.799 178.95C163.291 176.655 162.872 171.629 162.868 171.579C162.829 171.126 163.166 170.729 163.619 170.69C164.075 170.653 164.47 170.988 164.509 171.441C164.526 171.657 164.951 176.761 164.405 179.304C164.178 180.308 163.649 181.236 162.831 182.067C162.669 182.231 162.458 182.313 162.244 182.313L162.246 182.311Z" fill="#121314"/>
<path d="M214.402 217.679C213.996 217.679 213.644 217.379 213.588 216.967C213.432 215.814 213.266 214.29 213.074 212.524C212.485 207.112 211.5 198.051 210.071 196.186C207.234 192.624 202.105 190.735 197.142 188.908C195.846 188.431 194.508 187.939 193.247 187.428C192.794 187.246 192.34 187.067 191.891 186.89C190.71 186.424 189.594 185.983 188.53 185.521C188.113 185.34 187.923 184.854 188.103 184.438C188.284 184.021 188.77 183.831 189.186 184.01C190.225 184.463 191.328 184.897 192.496 185.357C192.947 185.536 193.405 185.716 193.862 185.899C195.102 186.402 196.369 186.868 197.712 187.363C202.886 189.269 208.236 191.238 211.369 195.171C212.96 197.246 213.823 204.176 214.71 212.345C214.9 214.098 215.067 215.613 215.22 216.743C215.28 217.194 214.965 217.608 214.514 217.669C214.477 217.673 214.438 217.675 214.402 217.675V217.679Z" fill="#121314"/>
<path d="M183.417 182.326C183.188 182.326 182.959 182.233 182.793 182.054C182.478 181.713 181.94 180.556 181.718 179.574C181.172 177.028 181.511 171.849 181.526 171.631C181.556 171.178 181.958 170.835 182.402 170.865C182.856 170.895 183.199 171.288 183.169 171.741C183.167 171.793 182.832 176.912 183.326 179.222C183.503 180.012 183.922 180.826 184.024 180.964C184.332 181.299 184.3 181.806 183.968 182.115C183.812 182.257 183.616 182.328 183.417 182.328V182.326Z" fill="#121314"/>
<path d="M155.807 164.013C155.567 164.013 155.332 163.909 155.168 163.71C152.689 160.671 155.556 157.743 157.862 155.39C158.656 154.579 159.408 153.812 159.963 153.065C162.005 150.395 162.994 147.746 163.786 145.617C164.796 142.91 165.593 140.773 167.89 139.989C168.319 139.842 168.788 140.071 168.935 140.503C169.081 140.932 168.853 141.401 168.421 141.548C166.862 142.079 166.251 143.715 165.327 146.194C164.496 148.424 163.46 151.2 161.275 154.056C160.66 154.883 159.835 155.727 159.036 156.541C156.459 159.173 154.997 160.9 156.441 162.67C156.729 163.022 156.677 163.54 156.325 163.827C156.172 163.952 155.988 164.013 155.805 164.013H155.807Z" fill="#121314"/>
<path d="M189.966 165.766C189.849 165.766 189.731 165.742 189.618 165.688C189.206 165.496 189.027 165.006 189.219 164.593C190.452 161.947 189.148 160.52 186.32 157.797C184.886 156.418 183.261 154.853 181.918 152.774C180.704 150.902 180.189 149.065 179.692 147.288C179.295 145.874 178.921 144.536 178.213 143.268C177.229 141.442 175.178 139.6 172.976 139.831C172.341 139.911 171.676 140.168 171.067 140.574C170.69 140.827 170.178 140.725 169.925 140.345C169.673 139.967 169.776 139.456 170.154 139.203C170.975 138.657 171.886 138.307 172.786 138.195C175.778 137.875 178.386 140.114 179.655 142.476C180.454 143.905 180.873 145.399 181.277 146.843C181.741 148.501 182.222 150.215 183.299 151.878C184.539 153.797 186.093 155.291 187.462 156.61C190.05 159.101 192.496 161.457 190.713 165.286C190.573 165.586 190.277 165.764 189.966 165.764V165.766Z" fill="#121314"/>
<path d="M148.186 162.348C147.903 162.348 147.627 162.201 147.473 161.938C144.183 156.275 146.75 151.733 149.721 146.472C150.392 145.282 151.087 144.052 151.741 142.759C152.29 141.647 152.806 140.52 153.307 139.432C155.893 133.795 158.335 128.469 164.213 128.469C164.669 128.469 165.036 128.839 165.036 129.292C165.036 129.745 164.666 130.114 164.213 130.114C159.39 130.114 157.365 134.529 154.803 140.119C154.297 141.22 153.777 142.357 153.214 143.495C152.538 144.829 151.834 146.075 151.152 147.282C148.317 152.301 146.079 156.265 148.894 161.111C149.123 161.504 148.989 162.007 148.596 162.236C148.466 162.312 148.324 162.348 148.184 162.348H148.186Z" fill="#121314"/>
<path d="M195.049 170.319C194.768 170.319 194.494 170.174 194.341 169.917C192.903 167.501 194.246 165.824 195.666 164.049C196.592 162.892 197.639 161.582 198.304 159.755C199.423 156.642 197.892 149.693 194.662 143.238C191.21 136.513 186.666 131.343 184.682 129.97C178.331 125.566 172.599 127.086 168.907 129.136C168.51 129.357 168.009 129.214 167.789 128.817C167.569 128.42 167.711 127.919 168.109 127.699C171.463 125.836 178.201 123.474 185.619 128.618C188.203 130.408 192.843 136.088 196.13 142.495C199.656 149.544 201.148 156.703 199.85 160.317C199.092 162.4 197.905 163.885 196.951 165.079C195.494 166.901 194.934 167.696 195.755 169.077C195.988 169.468 195.858 169.973 195.468 170.204C195.336 170.282 195.191 170.321 195.049 170.321V170.319Z" fill="#121314"/>
<path d="M161.324 173.999C161.268 173.999 161.21 173.993 161.154 173.982C157.741 173.259 156.32 170.139 156.046 168.589C155.966 168.143 156.266 167.715 156.713 167.635C157.158 167.555 157.587 167.855 157.667 168.302C157.875 169.472 158.939 171.828 161.495 172.37C161.94 172.465 162.225 172.901 162.13 173.345C162.048 173.732 161.707 173.997 161.327 173.997L161.324 173.999Z" fill="#121314"/>
<path d="M167.719 138.173C167.453 138.173 167.192 138.044 167.032 137.806C166.346 136.779 166.035 134.1 167.265 131.949C167.492 131.554 167.993 131.418 168.388 131.643C168.783 131.87 168.919 132.37 168.695 132.766C167.781 134.363 168.079 136.41 168.401 136.893C168.654 137.271 168.55 137.783 168.172 138.035C168.032 138.128 167.874 138.173 167.717 138.173H167.719Z" fill="#121314"/>
<path d="M184.887 174C184.431 174 184.064 173.63 184.064 173.177C184.064 172.724 184.434 172.355 184.887 172.355C188.281 172.355 190.783 169.65 191.081 167.709C191.15 167.26 191.569 166.949 192.02 167.02C192.469 167.089 192.778 167.51 192.708 167.959C192.268 170.815 188.948 174 184.887 174Z" fill="#121314"/>
<path d="M154.754 171.808C154.737 171.808 154.722 171.808 154.705 171.808C154.251 171.782 153.906 171.392 153.932 170.938C154.027 169.347 153.273 168.92 151.695 168.179C150.201 167.478 148.343 166.606 147.982 163.916C147.922 163.464 148.237 163.05 148.688 162.989C149.141 162.927 149.554 163.244 149.614 163.695C149.856 165.498 151.035 166.051 152.397 166.69C153.889 167.389 155.743 168.261 155.577 171.038C155.551 171.474 155.188 171.811 154.757 171.811L154.754 171.808Z" fill="#121314"/>
<path fill-rule="evenodd" clip-rule="evenodd" d="M165.09 155.569C165.09 154.693 165.617 153.994 166.405 153.994C167.106 153.994 167.717 154.695 167.717 155.569C167.717 156.444 167.104 157.145 166.405 157.145C165.703 157.232 165.09 156.532 165.09 155.569Z" fill="#121314"/>
<path fill-rule="evenodd" clip-rule="evenodd" d="M178.053 155.569C178.053 154.693 178.666 153.994 179.367 153.994C180.069 153.994 180.68 154.695 180.68 155.569C180.68 156.444 180.067 157.145 179.367 157.145C178.668 157.145 178.053 156.532 178.053 155.569Z" fill="#121314"/>
<path d="M143.964 217.291C143.934 217.291 143.902 217.291 143.871 217.287C143.42 217.235 143.094 216.829 143.146 216.378C143.604 212.306 143.699 208.17 143.427 204.081C143.396 203.628 143.74 203.235 144.193 203.204C144.646 203.174 145.039 203.518 145.07 203.971C145.348 208.157 145.251 212.393 144.782 216.559C144.735 216.98 144.379 217.291 143.966 217.291H143.964Z" fill="#121314"/>
<path d="M199.707 217.401C199.293 217.401 198.939 217.09 198.891 216.669C198.423 212.501 198.326 208.265 198.604 204.081C198.635 203.628 199.034 203.282 199.481 203.315C199.934 203.345 200.277 203.738 200.247 204.191C199.975 208.278 200.068 212.416 200.528 216.486C200.58 216.937 200.254 217.345 199.802 217.395C199.772 217.399 199.74 217.399 199.71 217.399L199.707 217.401Z" fill="#121314"/>
<path d="M221.188 216.14H124.566V217.785H221.188V216.14Z" fill="#4E7F96"/>
<path d="M219.923 241.358H126.201C124.847 241.358 123.744 240.257 123.744 238.901V115.989C123.744 114.936 124.601 114.076 125.657 114.076H220.467C221.521 114.076 222.38 114.933 222.38 115.989V238.901C222.38 240.255 221.279 241.358 219.923 241.358ZM125.657 115.721C125.51 115.721 125.391 115.84 125.391 115.987V238.899C125.391 239.346 125.754 239.708 126.201 239.708H219.923C220.37 239.708 220.733 239.346 220.733 238.899V115.989C220.733 115.842 220.614 115.723 220.467 115.723H125.657V115.721Z" fill="#121314"/>
<path d="M318.137 289.083H204.8C203.709 289.083 202.824 288.198 202.824 287.108V138.469C202.824 137.741 203.414 137.152 204.141 137.152H318.796C319.523 137.152 320.112 137.741 320.112 138.469V287.108C320.112 288.198 319.227 289.083 318.137 289.083Z" fill="#F8FBFF"/>
<path d="M289.289 268.315H220.506C220.051 268.315 219.684 267.946 219.684 267.492C219.684 267.039 220.053 266.67 220.506 266.67H289.289C289.745 266.67 290.112 267.039 290.112 267.492C290.112 267.946 289.743 268.315 289.289 268.315Z" fill="#4E7F96"/>
<path d="M275.22 275.07H220.506C220.051 275.07 219.684 274.701 219.684 274.247C219.684 273.794 220.053 273.425 220.506 273.425H275.22C275.676 273.425 276.043 273.794 276.043 274.247C276.043 274.701 275.673 275.07 275.22 275.07Z" fill="#4E7F96"/>
<path d="M289.289 281.827H220.506C220.051 281.827 219.684 281.458 219.684 281.005C219.684 280.551 220.053 280.182 220.506 280.182H289.289C289.745 280.182 290.112 280.551 290.112 281.005C290.112 281.458 289.743 281.827 289.289 281.827Z" fill="#4E7F96"/>
<path d="M214.605 279.543C214.605 280.754 213.623 281.734 212.414 281.734C211.205 281.734 210.223 280.754 210.223 279.543C210.223 278.332 211.205 277.352 212.414 277.352C213.623 277.352 214.605 278.332 214.605 279.543Z" fill="#56847B"/>
<path d="M214.605 273.518C214.605 274.729 213.623 275.709 212.414 275.709C211.205 275.709 210.223 274.727 210.223 273.518C210.223 272.309 211.205 271.327 212.414 271.327C213.623 271.327 214.605 272.307 214.605 273.518Z" fill="#56847B"/>
<path d="M214.605 267.493C214.605 268.704 213.623 269.684 212.414 269.684C211.205 269.684 210.223 268.704 210.223 267.493C210.223 266.281 211.205 265.301 212.414 265.301C213.623 265.301 214.605 266.284 214.605 267.493Z" fill="#56847B"/>
<path d="M240.83 187.004C242.004 187.751 243.284 188.178 243.284 188.178C243.284 188.178 244.031 191.594 245.1 194.051C246.274 196.505 247.876 198.213 247.876 198.213L248.517 200.134C248.517 200.134 248.837 209.849 246.702 211.451C244.632 213.089 240.206 215.253 235.668 217.247C235.679 217.256 235.692 217.26 235.703 217.271C236.896 218.506 237.775 219.598 239.278 220.404C240.791 221.213 242.25 222.118 243.826 222.8C247.157 224.24 250.568 225.3 254.165 225.669C257.645 226.025 261.63 225.978 265.104 225.492C268.465 225.021 272.364 223.577 275.345 221.919C277.722 220.596 280.598 219.164 282.504 217.202C281.485 216.764 279.868 216.045 278.97 215.605C276.181 214.348 273.793 213.01 272.006 211.451C269.871 209.53 270.404 199.92 270.404 199.92C270.404 199.92 272.753 197.572 274.247 194.69C275.561 192.155 276.131 189.128 276.25 188.433C276.084 187.503 275.814 185.823 275.741 184.442C275.527 181.987 275.527 179.958 274.247 177.181C272.219 172.592 267.841 170.029 264.959 166.186C262.824 163.41 261.65 160.85 259.195 160.636C258.234 160.53 256.205 161.491 254.284 162.024C252.149 162.557 249.908 162.771 248.733 163.732C245.638 166.4 246.065 173.127 244.463 177.076C242.328 182.52 238.699 185.083 238.699 185.083C238.699 185.083 239.768 186.257 240.834 187.004H240.83Z" fill="#FFDDC0"/>
<path d="M302.642 225.863C301.478 225.078 300.174 224.341 298.79 223.642C293.862 221.418 287.687 218.903 282.504 217.204C270.576 229.764 247.617 228.273 235.147 217.476C228.623 220.322 222.041 222.768 222.041 222.768C222.041 222.768 215.428 225.902 213.608 228.532C209.897 233.892 210.225 251.942 209.232 260.651H309.263C309.263 260.651 308.943 230.134 302.644 225.863H302.642Z" fill="url(#paint0_linear_1052_7370)"/>
<path d="M302.642 225.863C301.478 225.078 300.174 224.341 298.79 223.642C293.862 221.418 287.687 218.903 282.504 217.204C270.576 229.764 247.617 228.273 235.147 217.476C228.623 220.322 222.041 222.768 222.041 222.768C222.041 222.768 215.428 225.902 213.608 228.532C209.897 233.892 210.225 251.942 209.232 260.651H309.263C309.263 260.651 308.943 230.134 302.644 225.863H302.642Z" fill="white" fill-opacity="0.4"/>
<path d="M246.7 211.451C248.835 209.849 248.516 200.134 248.516 200.134L247.875 198.213C247.875 198.213 246.273 196.505 245.098 194.05C244.03 191.596 243.283 188.178 243.283 188.178C243.283 188.178 242.003 187.751 240.828 187.004C239.762 186.257 238.693 185.083 238.693 185.083C238.693 185.083 242.322 182.52 244.457 177.075C246.059 173.125 245.632 166.4 248.727 163.732C249.902 162.771 252.143 162.557 254.278 162.024C256.199 161.491 258.229 160.53 259.189 160.636C261.644 160.85 262.818 163.412 264.953 166.186C267.835 170.029 272.214 172.592 274.241 177.181C275.521 179.958 275.521 181.985 275.735 184.441C275.808 185.825 276.078 187.505 276.244 188.433C276.322 188.867 276.376 189.137 276.376 189.137L274.668 194.795L270.825 200.026C270.825 200.026 269.865 207.073 271.892 210.915C272.33 211.79 275.005 213.657 278.964 215.604C280.808 216.511 282.93 217.435 285.236 218.281C291.915 220.719 298.485 224.628 298.785 223.638C299.221 221.483 298.899 218.815 298.046 216.68C296.552 212.729 293.562 209.1 291.641 204.83C288.545 198.105 288.118 188.815 288.118 188.282C288.651 177.393 284.167 161.059 280.858 155.936C277.976 151.56 269.221 145.047 263.03 144.086C258.013 143.339 254.062 145.688 251.072 147.29C249.151 148.356 247.443 148.678 246.374 148.892C243.278 149.533 240.502 152.521 238.475 156.471C235.273 162.449 233.672 169.923 233.672 169.923C233.672 169.923 231.75 176.862 230.043 183.802C228.441 189.78 227.053 195.439 227.053 197.893C226.947 202.269 229.507 207.181 228.227 211.878C227.158 215.721 225.023 217.429 222.888 220.099C222.81 220.177 222.392 221.559 222.171 222.303C222.089 222.578 222.033 222.77 222.033 222.77C222.033 222.77 241.569 215.509 246.694 211.453L246.7 211.451Z" fill="#F08C65"/>
<path d="M259.941 205.762C259.759 205.758 255.988 205.607 250.621 201.993C246.994 199.575 245.714 197.01 244.947 195.475L244.9 195.378C243.797 193.17 242.892 190.255 242.055 186.21C241.962 185.765 242.249 185.329 242.694 185.236C243.138 185.145 243.574 185.43 243.667 185.875C244.475 189.778 245.334 192.563 246.372 194.642L246.42 194.739C247.156 196.216 248.27 198.446 251.536 200.624C256.517 203.977 259.93 204.115 259.964 204.115C260.42 204.128 260.776 204.508 260.763 204.961C260.75 205.408 260.383 205.76 259.941 205.76V205.762Z" fill="#121314"/>
<path d="M260.045 205.762C259.59 205.762 259.223 205.393 259.223 204.94C259.223 204.487 259.588 204.12 260.041 204.117C260.075 204.117 263.02 204.037 267.923 200.836C271.461 198.476 273.003 195.957 273.605 194.664C274.54 192.893 275.179 190.555 275.796 188.293L277.387 188.716C276.744 191.076 276.079 193.504 275.077 195.398C274.421 196.81 272.707 199.623 268.83 202.209C263.45 205.724 260.181 205.762 260.045 205.762Z" fill="#121314"/>
<path d="M242.966 189.001C242.94 189.001 242.916 189.001 242.89 188.997C241.454 188.867 239.414 187.77 238.1 185.618C237.862 185.23 237.985 184.724 238.372 184.487C238.76 184.249 239.265 184.372 239.503 184.759C240.584 186.527 242.21 187.283 243.039 187.358C243.492 187.399 243.825 187.799 243.784 188.252C243.745 188.679 243.387 189.001 242.966 189.001Z" fill="#121314"/>
<path d="M241.686 184.198C241.429 184.198 241.176 184.079 241.016 183.852L240.483 183.105C240.22 182.736 240.304 182.222 240.675 181.957C241.047 181.693 241.558 181.778 241.824 182.149L242.357 182.896C242.62 183.265 242.536 183.779 242.165 184.044C242.02 184.148 241.852 184.198 241.688 184.198H241.686Z" fill="#121314"/>
<path d="M260.152 189.429C259.962 189.429 259.77 189.362 259.612 189.228C259.269 188.93 259.232 188.41 259.53 188.066C260.366 187.101 260.435 186.693 260.424 186.564C260.411 186.391 260.128 186.149 259.828 185.894C259.284 185.43 258.539 184.796 258.283 183.664C257.68 181.38 259.051 177.868 259.63 176.709C259.833 176.301 260.327 176.136 260.735 176.339C261.141 176.542 261.307 177.037 261.104 177.445C260.539 178.576 259.446 181.613 259.882 183.271C260.025 183.898 260.428 184.241 260.897 184.64C261.415 185.081 262.002 185.581 262.067 186.439C262.125 187.211 261.728 188.047 260.776 189.144C260.614 189.331 260.383 189.426 260.154 189.426L260.152 189.429Z" fill="#121314"/>
<path d="M248.946 172.559C248.687 172.559 248.432 172.438 248.272 172.212C248.011 171.842 248.097 171.333 248.464 171.07C248.572 170.994 251.122 169.215 254.498 170.662C254.917 170.841 255.109 171.324 254.93 171.743C254.751 172.162 254.267 172.354 253.848 172.175C251.348 171.102 249.492 172.358 249.414 172.412C249.272 172.512 249.105 172.559 248.943 172.559H248.946Z" fill="#121314"/>
<path d="M270.186 172.454C270.022 172.454 269.856 172.404 269.711 172.302C269.625 172.242 267.785 171.009 265.3 172.162C264.888 172.352 264.398 172.173 264.208 171.763C264.016 171.35 264.195 170.86 264.607 170.67C267.995 169.099 270.557 170.884 270.663 170.96C271.032 171.223 271.118 171.737 270.855 172.108C270.695 172.333 270.441 172.454 270.184 172.454H270.186Z" fill="#121314"/>
<path fill-rule="evenodd" clip-rule="evenodd" d="M248.303 199.495C248.303 199.495 254.602 204.726 260.153 204.832C264.423 204.938 270.509 200.028 270.509 200.028C270.509 200.028 264.317 207.394 258.659 208.249C253.747 208.996 248.624 204.407 248.624 204.407L248.305 199.495H248.303Z" fill="#121314"/>
<path d="M253.853 158.255C253.458 158.255 253.11 157.97 253.041 157.566L252.983 157.193C252.812 156.07 252.652 155.01 250.789 152.968C250.483 152.633 250.507 152.111 250.843 151.804C251.18 151.497 251.7 151.521 252.007 151.858C254.207 154.267 254.423 155.69 254.611 156.946L254.665 157.296C254.74 157.745 254.436 158.168 253.989 158.244C253.943 158.253 253.898 158.255 253.853 158.255Z" fill="#121314"/>
<path d="M236.559 186.974C236.257 186.974 235.968 186.808 235.823 186.518C235.62 186.112 235.784 185.618 236.192 185.413C237.686 184.666 239.219 183.403 240.745 181.657C242.779 179.303 244.115 176.236 244.608 172.795C245.266 167.689 246.792 160.96 252.338 161.523C252.792 161.571 253.12 161.974 253.073 162.426C253.027 162.879 252.628 163.207 252.17 163.16C250.029 162.944 247.418 163.861 246.238 173.015C245.7 176.78 244.23 180.137 241.987 182.734C240.316 184.644 238.615 186.039 236.929 186.881C236.81 186.939 236.685 186.967 236.562 186.967L236.559 186.974Z" fill="#121314"/>
<path d="M209.124 261.474C209.088 261.474 209.051 261.472 209.012 261.465C208.561 261.405 208.246 260.99 208.306 260.539C208.535 258.849 208.792 255.936 209.088 252.562C210.143 240.52 211.165 230.365 212.954 228.031C217.326 222.541 231.827 217.524 234.69 216.574C235.119 216.429 235.583 216.544 235.899 216.872C236.317 217.304 236.559 217.528 236.637 217.591C240.126 220.272 247.496 224.823 257.668 225.175C270.157 225.6 279.026 219.454 282.26 216.788C282.7 216.425 283.318 216.356 283.829 216.611L284.859 217.122C286.312 217.71 287.858 218.279 289.494 218.882C295.776 221.196 302.275 223.588 306.061 228.342C307.857 230.684 308.844 240.57 309.863 252.284C310.152 255.619 310.403 258.501 310.634 260.2C310.694 260.651 310.379 261.066 309.93 261.126C309.487 261.189 309.064 260.871 309.004 260.422C308.768 258.685 308.516 255.785 308.224 252.428C307.499 244.093 306.404 231.496 304.766 229.357C301.277 224.974 294.999 222.662 288.929 220.428C287.35 219.847 285.72 219.247 284.186 218.623L283.21 218.141C279.753 220.967 270.539 227.278 257.614 226.822C246.982 226.455 239.281 221.699 235.635 218.897C235.488 218.785 235.251 218.562 234.927 218.234C232.259 219.134 218.237 224.044 214.252 229.048C212.617 231.179 211.434 244.656 210.728 252.709C210.431 256.105 210.174 259.036 209.938 260.763C209.882 261.176 209.528 261.476 209.124 261.476V261.474Z" fill="#121314"/>
<path d="M226.874 261.13C226.856 261.13 226.839 261.13 226.822 261.13C226.368 261.102 226.023 260.712 226.051 260.258C226.15 258.678 226.455 247.247 224.935 243.102C224.779 242.676 224.997 242.202 225.425 242.046C225.85 241.891 226.325 242.109 226.481 242.536C228.1 246.953 227.813 258.432 227.694 260.36C227.666 260.796 227.305 261.13 226.874 261.13Z" fill="#121314"/>
<path d="M226.874 261.13C226.856 261.13 226.839 261.13 226.822 261.13C226.368 261.102 226.023 260.712 226.051 260.258C226.15 258.678 226.455 247.247 224.935 243.102C224.779 242.676 224.997 242.202 225.425 242.046C225.85 241.891 226.325 242.109 226.481 242.536C228.1 246.953 227.813 258.432 227.694 260.36C227.666 260.796 227.305 261.13 226.874 261.13Z" fill="#121314"/>
<path d="M292.807 261.13C292.375 261.13 292.013 260.796 291.987 260.36C291.868 258.432 291.581 246.953 293.2 242.534C293.355 242.109 293.828 241.891 294.256 242.044C294.683 242.202 294.901 242.674 294.746 243.1C293.226 247.243 293.532 258.674 293.632 260.254C293.66 260.707 293.314 261.098 292.861 261.126C292.844 261.126 292.827 261.126 292.809 261.126L292.807 261.13Z" fill="#121314"/>
<path d="M233.678 172.134C233.631 172.134 233.581 172.13 233.531 172.121C233.085 172.041 232.787 171.612 232.866 171.165C235.498 156.564 240.543 148.909 248.287 147.758C248.734 147.692 249.155 148.002 249.222 148.451C249.289 148.9 248.978 149.319 248.529 149.386C241.571 150.42 236.977 157.64 234.486 171.456C234.414 171.853 234.067 172.134 233.676 172.134H233.678Z" fill="#121314"/>
<path d="M298.905 224.445C298.853 224.445 298.804 224.441 298.752 224.43C298.305 224.346 298.011 223.916 298.096 223.469C298.21 222.856 298.368 221.688 298.301 221.161C297.815 216.49 295.917 213.469 293.905 210.27C292.442 207.941 290.926 205.531 289.801 202.332C287.653 196.233 287.539 192.019 287.427 187.945C287.399 186.89 287.368 185.799 287.301 184.707C287.086 181.13 286.032 172.855 284.126 165.871C282.196 159.004 279.173 152.005 270.236 147.383C265.385 144.904 256.795 143.533 253.291 147.417C252.987 147.754 252.466 147.782 252.127 147.478C251.79 147.173 251.762 146.653 252.067 146.314C256.307 141.614 265.864 143.3 270.987 145.919C280.51 150.846 283.774 158.546 285.71 165.431C287.649 172.54 288.722 180.964 288.942 184.606C289.011 185.724 289.041 186.829 289.07 187.898C289.177 191.844 289.29 195.927 291.351 201.784C292.418 204.81 293.882 207.14 295.298 209.394C297.413 212.759 299.413 215.939 299.935 220.974C300.052 221.911 299.747 223.584 299.713 223.771C299.639 224.167 299.292 224.443 298.905 224.443V224.445Z" fill="#121314"/>
<path d="M222.362 223.057C222.306 223.057 222.25 223.05 222.194 223.04C221.749 222.947 221.462 222.513 221.555 222.066C222.038 219.732 223.411 218.023 224.624 216.511C225.123 215.892 225.594 215.307 225.928 214.756C225.985 214.65 226.079 214.488 226.187 214.307C227.088 212.796 228.765 209.981 227.111 202.99C225.555 196.423 227.539 189.366 229.637 181.892C230.196 179.904 230.773 177.848 231.278 175.808C231.386 175.366 231.831 175.098 232.275 175.206C232.716 175.314 232.986 175.761 232.878 176.203C232.368 178.269 231.787 180.338 231.224 182.337C229.184 189.599 227.258 196.46 228.715 202.61C230.525 210.251 228.554 213.56 227.604 215.149C227.511 215.307 227.427 215.447 227.358 215.574C226.945 216.252 226.442 216.878 225.911 217.541C224.814 218.905 223.573 220.453 223.169 222.399C223.089 222.787 222.746 223.055 222.364 223.055L222.362 223.057Z" fill="#121314"/>
<path d="M235.809 218.102C235.481 218.102 235.172 217.906 235.043 217.582C234.875 217.159 235.082 216.682 235.505 216.513C241.319 214.208 246.34 212.215 247.178 208.495C247.784 205.663 247.376 199.4 247.374 199.335C247.344 198.882 247.687 198.489 248.141 198.459C248.59 198.429 248.987 198.772 249.017 199.225C249.034 199.491 249.445 205.78 248.788 208.847C247.759 213.424 242.364 215.566 236.116 218.044C236.017 218.083 235.913 218.102 235.814 218.102H235.809Z" fill="#121314"/>
<path d="M282.393 217.986C282.292 217.986 282.19 217.966 282.091 217.927C275.742 215.423 271.174 213.327 270.239 209.175C269.58 206.101 269.989 199.812 270.008 199.545C270.038 199.091 270.42 198.746 270.884 198.778C271.338 198.809 271.681 199.201 271.651 199.655C271.647 199.717 271.238 205.98 271.847 208.821C272.603 212.176 276.819 214.076 282.696 216.395C283.119 216.561 283.326 217.04 283.16 217.463C283.032 217.787 282.721 217.983 282.393 217.983V217.986Z" fill="#121314"/>
<path fill-rule="evenodd" clip-rule="evenodd" d="M250.012 179.638C250.012 178.569 250.653 177.717 251.614 177.717C252.468 177.717 253.215 178.572 253.215 179.638C253.215 180.705 252.468 181.559 251.614 181.559C250.653 181.559 250.012 180.705 250.012 179.638Z" fill="#121314"/>
<path fill-rule="evenodd" clip-rule="evenodd" d="M265.703 179.638C265.703 178.569 266.45 177.717 267.305 177.717C268.16 177.717 268.907 178.572 268.907 179.638C268.907 180.705 268.16 181.559 267.305 181.559C266.45 181.559 265.703 180.705 265.703 179.638Z" fill="#121314"/>
<path d="M281.505 193.271C281.425 193.271 281.341 193.258 281.261 193.235C276.116 191.635 274.834 187.73 274.493 182.36C274.177 177.421 272.336 174.925 270.976 173.477C270.261 172.674 269.378 171.994 268.446 171.275C267.215 170.327 265.941 169.347 265.03 168.047C264.268 166.998 263.666 165.981 263.135 165.083C262.485 163.986 261.926 163.039 261.28 162.393C260.156 161.271 258.811 160.463 256.596 162.147C256.233 162.421 255.717 162.352 255.443 161.99C255.169 161.627 255.238 161.111 255.601 160.837C258.034 158.989 260.337 159.12 262.444 161.23C263.239 162.022 263.847 163.052 264.551 164.246C265.063 165.111 265.644 166.094 266.371 167.093C267.144 168.198 268.264 169.06 269.45 169.971C270.404 170.705 271.39 171.465 272.193 172.367C273.711 173.984 275.788 176.788 276.136 182.257C276.453 187.207 277.472 190.333 281.751 191.665C282.185 191.801 282.426 192.261 282.293 192.695C282.182 193.047 281.859 193.273 281.507 193.273L281.505 193.271Z" fill="#121314"/>
<path fill-rule="evenodd" clip-rule="evenodd" d="M259.853 192.71C257.122 192.71 254.484 192.239 254.484 192.239C254.484 192.239 255.708 197.233 259.853 197.42C263.811 197.608 265.222 192.239 265.222 192.239C265.222 192.239 262.492 192.71 259.853 192.71Z" fill="white"/>
<path d="M260.065 198.249C259.983 198.249 259.899 198.249 259.815 198.243C255.111 198.029 253.742 192.665 253.686 192.436C253.619 192.166 253.695 191.879 253.885 191.676C254.075 191.473 254.355 191.38 254.629 191.427C254.655 191.432 257.231 191.885 259.854 191.885C262.477 191.885 265.057 191.43 265.085 191.425C265.359 191.378 265.642 191.475 265.832 191.68C266.022 191.887 266.093 192.174 266.022 192.446C265.959 192.688 264.444 198.245 260.068 198.247L260.065 198.249ZM255.733 193.256C256.335 194.571 257.604 196.496 259.891 196.6C262.06 196.691 263.353 194.64 263.973 193.252C262.911 193.383 261.376 193.535 259.854 193.535C258.332 193.535 256.78 193.388 255.733 193.256Z" fill="#121314"/>
<path d="M319.552 261.402H202.823C202.367 261.402 202 261.033 202 260.58C202 260.126 202.369 259.757 202.823 259.757H319.552C320.007 259.757 320.374 260.126 320.374 260.58C320.374 261.033 320.005 261.402 319.552 261.402Z" fill="#4E7F96"/>
<path d="M318.137 289.906H204.8C203.256 289.906 202.002 288.652 202.002 287.108V138.469C202.002 137.288 202.963 136.329 204.141 136.329H318.796C319.974 136.329 320.935 137.29 320.935 138.469V287.108C320.935 288.652 319.681 289.906 318.137 289.906ZM204.139 137.977C203.867 137.977 203.645 138.199 203.645 138.471V287.11C203.645 287.745 204.161 288.263 204.798 288.263H318.135C318.77 288.263 319.288 287.745 319.288 287.11V138.469C319.288 138.197 319.066 137.975 318.794 137.975H204.139V137.977Z" fill="#121314"/>
</g>
<defs>
<linearGradient id="paint0_linear_1052_7370" x1="340.49" y1="317.412" x2="380.929" y2="268.568" gradientUnits="userSpaceOnUse">
<stop stop-color="#8AC2F7"/>
<stop offset="1" stop-color="#86F8A6" stop-opacity="0.8"/>
</linearGradient>
<clipPath id="clip0_1052_7370">
<rect width="431.74" height="235.127" fill="white" transform="translate(0.130859 82.9866)"/>
</clipPath>
</defs>
</svg>
