<svg width="391" height="368" viewBox="0 0 391 368" fill="none" xmlns="http://www.w3.org/2000/svg">
<g clip-path="url(#clip0_1052_7371)">
<path d="M115.029 159.64V134.561C115.029 134.561 100.078 132.689 96.9024 136.994C93.7244 141.299 93.5824 146.869 96.1554 149.534C101.574 155.148 115.029 159.641 115.029 159.641V159.64Z" fill="#FFDDC0"/>
<path d="M98.2118 183.034C103.07 186.965 113.91 187.9 113.91 187.9L115.031 163.007C115.031 163.007 98.4552 161.135 96.3434 167.312C94.2315 173.489 93.3536 179.104 98.2118 183.034Z" fill="#FFDDC0"/>
<path d="M114.557 222.713L114.528 214.741C115.461 213.004 115.522 213.908 116.081 208.784C116.422 205.658 116.66 201.888 114.282 198.942C111.103 195.003 104.324 194.029 100.08 196.884C98.2101 198.142 96.5538 200.528 97.2768 203.247C99.5602 211.822 100.066 214.315 102.03 217.619C102.996 219.244 108.238 222.811 114.557 222.713Z" fill="#FFDDC0"/>
<path d="M115.03 160.342C114.956 160.342 114.881 160.331 114.807 160.305C114.252 160.119 101.125 155.694 95.649 150.021C92.7643 147.031 93.0723 140.998 96.337 136.575C99.6624 132.069 113.545 133.665 115.117 133.862C115.502 133.91 115.775 134.262 115.727 134.648C115.679 135.033 115.327 135.306 114.942 135.258C110.897 134.753 99.8709 134.153 97.4676 137.411C94.5921 141.308 94.2288 146.526 96.6597 149.045C101.896 154.47 115.119 158.928 115.251 158.972C115.62 159.095 115.82 159.494 115.696 159.863C115.598 160.156 115.323 160.344 115.028 160.344L115.03 160.342Z" fill="#121314"/>
<path d="M114.559 188.603C114.091 188.588 103.567 188.202 98.5813 184.17C93.2214 179.836 92.1055 173.076 95.739 166.955C99.2545 161.03 114.445 162.253 115.091 162.309C115.478 162.342 115.764 162.681 115.733 163.068C115.699 163.456 115.358 163.74 114.973 163.71C114.823 163.697 100.018 162.502 96.949 167.672C93.6936 173.159 94.6822 179.207 99.4666 183.079C104.089 186.817 114.478 187.195 114.582 187.199C114.969 187.212 115.273 187.536 115.262 187.924C115.249 188.304 114.938 188.604 114.559 188.604V188.603Z" fill="#121314"/>
<path d="M333.564 301.112C326.229 291.632 312.278 277.708 304.629 268.482C298.487 261.883 290.191 250.936 289.844 248.467C289.621 246.879 289.326 245.357 288.985 243.87C287.255 223.294 273.348 189.822 270.884 183.034C267.894 174.799 259.858 163.756 256.868 145.604C255.442 136.948 243.227 123.332 239.115 113.039C235.004 102.745 235.565 99.7495 229.025 99.7495C222.484 99.7495 216.888 118.365 221.924 136.433C224.46 145.537 227.342 148.105 228.619 150.445C229.178 151.469 229.571 152.574 229.796 153.719C230.55 157.555 232.153 166.51 232.575 175.361C232.623 176.365 232.553 177.283 232.4 178.15C232.309 178.182 232.131 178.206 231.931 178.224L225.161 174.498C222.584 172.281 219.981 169.577 216.929 168.246V252.373C216.929 257.436 212.823 261.542 207.76 261.542H125.951C124.271 261.542 122.699 261.083 121.346 260.293C120.696 257.067 120.06 253.793 118.712 250.813C118.73 251.416 118.727 252.01 118.686 252.589C116.932 247.699 114.346 242.86 110.731 241.43C107.695 240.228 101.573 238.061 98.3974 244.424C96.5197 248.186 104.694 261.081 104.694 261.081C104.694 261.081 106.31 266.946 117.708 270.688C127.161 273.792 134.898 273.121 141.315 273.335L139.932 272.719C147.424 274.434 153 274.779 161.535 276.716C164.8 277.457 167.69 277.931 171.233 279.96C175.04 282.14 179.037 284.971 183.163 287.987L176.63 284.691C187.669 292.967 196.251 300.431 203.42 304.686C213.511 310.675 230.29 315.023 230.29 315.023L230.319 315.03C230.319 315.03 230.336 315.037 230.345 315.043C231.457 315.447 232.608 315.735 233.768 315.965C235.165 316.244 236.579 316.448 237.981 316.71L240.137 317.182C240.545 317.289 240.952 317.402 241.355 317.533C242.611 317.944 243.795 318.501 244.888 319.243C245.44 319.617 245.995 319.986 246.543 320.366C248.906 320.906 251.041 322.181 252.598 324.045L277.448 350.421C307.292 346.322 323.999 321.168 334.754 302.451C334.754 302.451 335.038 302.658 333.564 301.11V301.112ZM231.166 178.268C231.059 178.37 230.524 178.137 229.875 177.791C230.424 178.034 230.994 178.204 231.585 178.248C231.406 178.259 231.247 178.265 231.166 178.268Z" fill="#FFDDC0"/>
<path d="M125.952 261.54H207.761C212.826 261.54 216.93 257.434 216.93 252.371V61.3524C216.93 56.2877 212.824 52.1838 207.761 52.1838H125.952C120.887 52.1838 116.783 56.2895 116.783 61.3524V247.659C116.859 247.666 116.934 247.701 116.99 247.779C117.676 248.742 118.238 249.758 118.714 250.811C120.063 253.792 120.697 257.065 121.348 260.291C122.702 261.081 124.272 261.54 125.954 261.54H125.952Z" fill="white"/>
<path fill-rule="evenodd" clip-rule="evenodd" d="M120.361 51.7708L207.138 51.8206C207.138 51.8206 210.074 52.5657 211.918 54.7329C213.761 56.9001 214.511 60.4893 214.511 60.4893L214.543 261.223L214.17 262.739L212.215 263.307H120.361V51.7708Z" fill="url(#paint0_linear_1052_7371)"/>
<path fill-rule="evenodd" clip-rule="evenodd" d="M120.361 51.7708L207.138 51.8206C207.138 51.8206 210.074 52.5657 211.918 54.7329C213.761 56.9001 214.511 60.4893 214.511 60.4893L214.543 261.223L214.17 262.739L212.215 263.307H120.361V51.7708Z" fill="white" fill-opacity="0.4"/>
<path fill-rule="evenodd" clip-rule="evenodd" d="M140.744 76.5447H172.389C177.587 76.5447 181.799 80.7573 181.799 85.9549V97.5065C181.799 102.702 177.587 106.917 172.389 106.917H140.744C137.424 106.917 129.281 106.902 129.281 106.902L131.443 104.231C131.443 104.231 131.334 98.65 131.334 97.5065V85.9549C131.334 80.7573 135.549 76.5447 140.744 76.5447Z" fill="white"/>
<path d="M172.388 107.549H140.745C137.425 107.549 129.28 107.533 129.28 107.533C129.036 107.533 128.815 107.393 128.71 107.171C128.605 106.952 128.636 106.69 128.789 106.502L130.807 104.012C130.787 102.935 130.702 98.5247 130.702 97.5066V85.955C130.702 80.418 135.208 75.9121 140.745 75.9121H172.388C177.925 75.9121 182.431 80.418 182.431 85.955V97.5066C182.431 103.043 177.926 107.549 172.388 107.549ZM130.604 106.271C133.048 106.277 138.253 106.286 140.745 106.286H172.388C177.227 106.286 181.165 102.348 181.165 97.5084V85.9568C181.165 81.1171 177.227 77.1792 172.388 77.1792H140.745C135.905 77.1792 131.967 81.1171 131.967 85.9568V97.5084C131.967 98.6335 132.074 104.165 132.076 104.22C132.078 104.37 132.03 104.515 131.936 104.63L130.606 106.271H130.604Z" fill="#121314"/>
<path d="M173.767 90.1474H139.125C138.776 90.1474 138.492 89.8633 138.492 89.5147C138.492 89.1661 138.776 88.8821 139.125 88.8821H173.767C174.115 88.8821 174.399 89.1661 174.399 89.5147C174.399 89.8633 174.115 90.1474 173.767 90.1474Z" fill="#121314"/>
<path d="M173.767 84.9406H139.125C138.776 84.9406 138.492 84.6565 138.492 84.3079C138.492 83.9593 138.776 83.6753 139.125 83.6753H173.767C174.115 83.6753 174.399 83.9593 174.399 84.3079C174.399 84.6565 174.115 84.9406 173.767 84.9406Z" fill="#121314"/>
<path d="M173.767 100.838H139.125C138.776 100.838 138.492 100.553 138.492 100.205C138.492 99.8563 138.776 99.5723 139.125 99.5723H173.767C174.115 99.5723 174.399 99.8563 174.399 100.205C174.399 100.553 174.115 100.838 173.767 100.838Z" fill="#121314"/>
<path d="M173.767 95.6307H139.125C138.776 95.6307 138.492 95.3467 138.492 94.9981C138.492 94.6495 138.776 94.3655 139.125 94.3655H173.767C174.115 94.3655 174.399 94.6495 174.399 94.9981C174.399 95.3467 174.115 95.6307 173.767 95.6307Z" fill="#121314"/>
<path fill-rule="evenodd" clip-rule="evenodd" d="M137.418 162.779H161.941C165.967 162.779 169.232 166.381 169.232 170.826V180.706C169.232 185.15 165.967 188.754 161.941 188.754H137.418C134.843 188.754 127.734 188.761 127.734 188.761L130.21 186.457C130.21 186.457 130.125 181.686 130.125 180.706V170.826C130.125 166.381 133.389 162.779 137.418 162.779Z" fill="white"/>
<path d="M127.735 189.392C127.475 189.392 127.243 189.233 127.147 188.991C127.053 188.75 127.115 188.473 127.305 188.296L129.574 186.184C129.555 185.144 129.495 181.54 129.495 180.705V170.826C129.495 166.04 133.049 162.146 137.418 162.146H161.942C166.311 162.146 169.865 166.04 169.865 170.826V180.705C169.865 185.491 166.311 189.384 161.942 189.384H137.418C134.843 189.384 127.735 189.392 127.735 189.392ZM137.418 163.409C133.746 163.409 130.758 166.737 130.758 170.824V180.703C130.758 181.68 130.843 186.443 130.843 186.443C130.847 186.621 130.773 186.795 130.642 186.917L129.345 188.125C131.599 188.123 135.62 188.119 137.42 188.119H161.943C165.616 188.119 168.602 184.794 168.602 180.703V170.824C168.602 166.735 165.614 163.409 161.943 163.409H137.42H137.418Z" fill="#121314"/>
<path d="M162.682 176.165H136.551C136.202 176.165 135.918 175.881 135.918 175.533C135.918 175.184 136.202 174.9 136.551 174.9H162.682C163.031 174.9 163.315 175.184 163.315 175.533C163.315 175.881 163.031 176.165 162.682 176.165Z" fill="#121314"/>
<path d="M162.682 170.959H136.551C136.202 170.959 135.918 170.675 135.918 170.326C135.918 169.977 136.202 169.693 136.551 169.693H162.682C163.031 169.693 163.315 169.977 163.315 170.326C163.315 170.675 163.031 170.959 162.682 170.959Z" fill="#121314"/>
<path d="M162.682 181.649H136.551C136.202 181.649 135.918 181.365 135.918 181.016C135.918 180.668 136.202 180.384 136.551 180.384H162.682C163.031 180.384 163.315 180.668 163.315 181.016C163.315 181.365 163.031 181.649 162.682 181.649Z" fill="#121314"/>
<path fill-rule="evenodd" clip-rule="evenodd" d="M194.096 121.858H169.572C165.546 121.858 162.279 125.461 162.279 129.906V139.784C162.279 144.229 165.544 147.831 169.572 147.831H194.096C196.668 147.831 203.779 147.839 203.779 147.839L201.303 145.535C201.303 145.535 201.386 140.762 201.386 139.784V129.906C201.386 125.461 198.122 121.858 194.096 121.858Z" fill="white"/>
<path d="M203.777 148.471C203.777 148.471 196.668 148.464 194.095 148.464H169.572C165.203 148.464 161.648 144.571 161.648 139.784V129.906C161.648 125.119 165.204 121.224 169.572 121.224H194.095C198.465 121.224 202.019 125.117 202.019 129.906V139.784C202.019 140.62 201.958 144.226 201.942 145.264L204.208 147.374C204.398 147.551 204.461 147.826 204.367 148.068C204.271 148.309 204.037 148.468 203.779 148.468L203.777 148.471ZM169.57 122.489C165.898 122.489 162.91 125.816 162.91 129.906V139.784C162.91 143.873 165.898 147.199 169.57 147.199H194.094C195.894 147.199 199.915 147.203 202.167 147.204L200.872 145.998C200.741 145.876 200.667 145.705 200.671 145.524C200.671 145.524 200.754 140.76 200.754 139.784V129.906C200.754 125.816 197.766 122.489 194.094 122.489H169.57Z" fill="#121314"/>
<path d="M195.714 135.175H168.262C167.913 135.175 167.629 134.891 167.629 134.543C167.629 134.194 167.913 133.91 168.262 133.91H195.714C196.062 133.91 196.346 134.194 196.346 134.543C196.346 134.891 196.062 135.175 195.714 135.175Z" fill="#121314"/>
<path d="M195.714 129.966H168.262C167.913 129.966 167.629 129.682 167.629 129.334C167.629 128.985 167.913 128.701 168.262 128.701H195.714C196.062 128.701 196.346 128.985 196.346 129.334C196.346 129.682 196.062 129.966 195.714 129.966Z" fill="#121314"/>
<path d="M195.714 140.658H168.262C167.913 140.658 167.629 140.374 167.629 140.026C167.629 139.677 167.913 139.393 168.262 139.393H195.714C196.062 139.393 196.346 139.677 196.346 140.026C196.346 140.374 196.062 140.658 195.714 140.658Z" fill="#121314"/>
<path fill-rule="evenodd" clip-rule="evenodd" d="M190.94 209.69H169.183C165.61 209.69 162.713 213.353 162.713 217.868V227.907C162.713 232.424 165.609 236.085 169.183 236.085H190.94C193.221 236.085 200.118 235.956 200.118 235.956L197.336 233.752C197.336 233.752 197.41 228.901 197.41 227.907V217.868C197.41 215.922 196.873 214.135 195.975 212.729C194.789 210.876 192.974 209.688 190.942 209.688L190.94 209.69Z" fill="white"/>
<path d="M190.94 236.718H169.183C165.267 236.718 162.082 232.765 162.082 227.907V217.868C162.082 213.01 165.267 209.057 169.183 209.057H190.94C193.124 209.057 195.152 210.273 196.506 212.39C197.51 213.961 198.041 215.856 198.041 217.87V227.909C198.041 228.752 197.987 232.363 197.971 233.451L200.509 235.464C200.717 235.63 200.8 235.908 200.715 236.161C200.63 236.414 200.394 236.585 200.127 236.591C200.059 236.591 193.199 236.72 190.938 236.72L190.94 236.718ZM169.183 210.321C165.965 210.321 163.345 213.707 163.345 217.868V227.907C163.345 232.068 165.965 235.454 169.183 235.454H190.94C192.472 235.454 196.139 235.395 198.341 235.357L196.942 234.248C196.787 234.126 196.698 233.94 196.702 233.743C196.702 233.743 196.776 228.901 196.776 227.909V217.87C196.776 216.123 196.302 214.419 195.44 213.072C194.322 211.326 192.683 210.322 190.94 210.322H169.183V210.321Z" fill="#121314"/>
<path d="M191.963 223.248H168.73C168.382 223.248 168.098 222.964 168.098 222.616C168.098 222.267 168.382 221.983 168.73 221.983H191.963C192.311 221.983 192.595 222.267 192.595 222.616C192.595 222.964 192.311 223.248 191.963 223.248Z" fill="#121314"/>
<path d="M191.963 218.043H168.73C168.382 218.043 168.098 217.759 168.098 217.41C168.098 217.062 168.382 216.778 168.73 216.778H191.963C192.311 216.778 192.595 217.062 192.595 217.41C192.595 217.759 192.311 218.043 191.963 218.043Z" fill="#121314"/>
<path d="M191.963 228.732H168.73C168.382 228.732 168.098 228.448 168.098 228.099C168.098 227.75 168.382 227.466 168.73 227.466H191.963C192.311 227.466 192.595 227.75 192.595 228.099C192.595 228.448 192.311 228.732 191.963 228.732Z" fill="#121314"/>
<path d="M208.125 49.7529H125.59C119.394 49.7529 114.353 54.7937 114.353 60.9891V199.708C114.464 199.671 114.586 199.695 114.652 199.833C115.241 201.086 115.954 202.296 116.294 203.647C116.615 204.924 116.456 206.198 116.264 207.482C116.085 208.677 115.927 209.878 115.733 211.069C115.569 212.091 115.322 213.111 114.842 214.037C114.7 214.308 114.532 214.561 114.352 214.803V244.188C114.364 244.197 114.379 244.203 114.394 244.217C115.526 245.398 116.498 246.726 117.258 248.175C117.908 249.411 118.409 250.721 118.819 252.054C119.007 252.667 119.167 253.284 119.326 253.902C119.256 253.524 119.213 253.135 119.213 252.737V60.9891C119.213 57.4737 122.072 54.6148 125.588 54.6148H208.124C211.639 54.6148 214.498 57.4737 214.498 60.9891V252.735C214.498 253.021 214.472 253.301 214.435 253.578C214.349 254.225 214.166 254.839 213.9 255.411C213.354 256.586 212.464 257.565 211.355 258.22C210.981 258.441 210.584 258.626 210.167 258.766C209.525 258.986 208.839 259.109 208.124 259.109H125.588C122.777 259.109 120.39 257.278 119.545 254.749C119.684 255.284 119.824 255.817 119.984 256.346C120.695 258.676 121.622 260.998 122.076 263.401C123.183 263.766 124.361 263.971 125.588 263.971H208.124C214.319 263.971 219.36 258.93 219.36 252.735V60.9891C219.36 54.7937 214.319 49.7529 208.124 49.7529H208.125Z" fill="#757575"/>
<path d="M208.125 49.05H125.589C119.007 49.05 113.65 54.4062 113.65 60.989V198.442C114.174 199.077 114.65 199.748 115.056 200.464V60.989C115.056 55.1809 119.781 50.4555 125.589 50.4555H208.125C213.933 50.4555 218.659 55.1809 218.659 60.989V252.733C218.659 258.541 213.933 263.266 208.125 263.266H125.589C124.296 263.266 123.061 263.021 121.915 262.591C121.982 263.106 121.233 263.226 121.27 263.742C121.983 264.185 124.359 264.672 125.589 264.672H208.125C214.708 264.672 220.064 259.316 220.064 252.733V60.989C220.064 54.4062 214.708 49.05 208.125 49.05Z" fill="#121314"/>
<path d="M208.125 53.9119H125.589C121.686 53.9119 118.512 57.088 118.512 60.9889V251.545C118.897 252.641 119.305 253.731 119.659 254.835C119.985 255.704 120.229 256.604 120.389 257.519C121.684 258.924 123.532 259.812 125.589 259.812H208.125C208.89 259.812 209.655 259.684 210.395 259.432C210.849 259.277 211.293 259.074 211.714 258.825C212.955 258.091 213.933 257.014 214.54 255.708C214.84 255.062 215.039 254.378 215.133 253.672C215.18 253.319 215.202 253.022 215.202 252.735V60.9889C215.202 57.0861 212.027 53.9119 208.125 53.9119ZM213.796 252.735C213.796 252.958 213.778 253.196 213.739 253.485C213.663 254.05 213.505 254.599 213.265 255.114C212.778 256.16 211.994 257.025 210.998 257.613C210.661 257.812 210.307 257.976 209.943 258.1C209.349 258.303 208.737 258.404 208.125 258.404H125.589C122.462 258.404 119.917 255.861 119.917 252.733V60.9889C119.917 57.8626 122.461 55.3173 125.589 55.3173H208.125C211.251 55.3173 213.796 57.8608 213.796 60.9889V252.733V252.735Z" fill="#121314"/>
<path d="M334.754 303.156C334.561 303.156 334.367 303.076 334.229 302.92L292.888 256.298C290.453 253.155 288.991 249.431 288.627 245.497C286.973 227.555 276.268 199.276 271.696 187.201C271.065 185.535 270.559 184.202 270.224 183.274C269.344 180.85 268.022 178.183 266.491 175.096C262.837 167.724 258.289 158.55 256.175 145.716C255.4 141.017 251.158 134.519 247.054 128.237C243.732 123.151 240.298 117.893 238.463 113.297C237.635 111.225 237.006 109.477 236.453 107.933C234.278 101.887 233.761 100.45 229.025 100.45C227.62 100.45 226.388 101.682 225.604 102.715C221.26 108.435 218.877 122.879 222.601 136.241C224.523 143.138 226.668 146.253 228.086 148.315C228.536 148.97 228.925 149.534 229.237 150.104C229.824 151.181 230.244 152.35 230.486 153.579C231.181 157.115 232.847 166.311 233.276 175.325C233.503 180.07 231.402 183.053 228.97 186.507C226.638 189.818 223.995 193.571 222.99 199.8C218.556 227.25 223.317 259.897 223.365 260.223C223.422 260.607 223.156 260.965 222.772 261.022C222.396 261.083 222.031 260.813 221.974 260.43C221.924 260.101 217.132 227.245 221.601 199.575C222.66 193.027 225.401 189.132 227.821 185.696C230.104 182.453 232.076 179.652 231.871 175.389C231.445 166.468 229.794 157.353 229.104 153.848C228.89 152.76 228.518 151.727 228 150.775C227.723 150.268 227.354 149.731 226.924 149.11C225.452 146.97 223.228 143.739 221.242 136.616C217.35 122.653 219.831 107.981 224.479 101.863C225.88 100.017 227.452 99.0413 229.021 99.0413C234.746 99.0413 235.571 101.332 237.773 107.454C238.323 108.985 238.948 110.72 239.767 112.771C241.55 117.236 244.946 122.436 248.229 127.464C252.604 134.163 256.737 140.491 257.56 145.484C259.639 158.109 264.135 167.178 267.749 174.467C269.298 177.591 270.637 180.292 271.543 182.789C271.878 183.711 272.38 185.039 273.007 186.697C277.6 198.826 288.353 227.23 290.024 245.363C290.361 249.031 291.724 252.501 293.965 255.396L335.276 301.981C335.535 302.272 335.507 302.717 335.216 302.973C335.083 303.091 334.915 303.15 334.749 303.15L334.754 303.156Z" fill="#121314"/>
<path d="M114.307 223.419C107.974 223.419 102.571 219.902 101.428 217.978C99.6553 214.998 99.0319 212.637 97.3664 206.331C97.134 205.447 96.8795 204.485 96.5973 203.43C95.7562 200.268 97.7353 197.614 99.6867 196.301C104.222 193.25 111.439 194.3 114.829 198.501C117.384 201.668 117.05 205.647 116.781 208.845C116.463 212.631 115.776 214.485 113.586 217.471C113.357 217.785 112.917 217.851 112.603 217.622C112.29 217.392 112.223 216.953 112.452 216.639C114.339 214.068 115.064 212.486 115.379 208.727C115.639 205.626 115.934 202.113 113.734 199.385C110.766 195.709 104.445 194.796 100.471 197.469C98.9028 198.524 97.3037 200.622 97.9548 203.068C98.2351 204.123 98.4915 205.088 98.7239 205.973C100.397 212.314 100.961 214.45 102.634 217.261C103.503 218.724 108.61 222.095 114.545 222.012C114.94 222.012 115.254 222.32 115.259 222.704C115.265 223.093 114.955 223.412 114.567 223.418C114.481 223.418 114.392 223.419 114.306 223.419H114.307Z" fill="#121314"/>
<path d="M277.447 351.123C277.261 351.123 277.074 351.049 276.936 350.904L253.117 325.766C250.841 323.04 243.307 318.416 239.871 317.623C234.013 316.269 226.537 314.478 224.186 313.63C222.336 312.962 220.441 312.339 218.608 311.736C213.438 310.035 208.091 308.275 203.063 305.291C196.49 301.39 188.738 294.811 182.509 289.523C179.09 286.622 176.139 284.115 174.045 282.61C168.331 278.497 164.598 278.106 164.559 278.104C164.528 278.101 164.495 278.097 164.465 278.09C164.342 278.062 152.012 275.236 145.025 274.316C142.725 274.014 140.172 273.997 137.468 273.979C131.734 273.942 125.233 273.899 117.49 271.356C106.586 267.776 104.345 262.257 104.051 261.377C102.991 259.695 95.8049 248.042 97.7674 244.108C101.34 236.954 108.351 239.73 110.99 240.773C119.303 244.064 122.331 262.357 122.457 263.135C122.518 263.519 122.258 263.878 121.874 263.941C121.492 264 121.131 263.742 121.068 263.358C121.038 263.176 118.045 245.08 110.474 242.081C106.539 240.524 101.683 239.418 99.0271 244.737C97.7877 247.218 102.211 255.848 105.289 260.704C105.326 260.763 105.355 260.826 105.374 260.894C105.389 260.946 107.102 266.466 117.931 270.022C125.465 272.496 131.847 272.538 137.48 272.575C140.228 272.593 142.823 272.61 145.209 272.924C152.054 273.825 163.932 276.528 164.738 276.712C165.258 276.771 169.109 277.328 174.868 281.472C177.005 283.011 179.977 285.534 183.418 288.455C189.606 293.708 197.309 300.245 203.781 304.085C208.676 306.992 213.949 308.726 219.047 310.402C220.89 311.009 222.795 311.634 224.663 312.309C226.447 312.953 231.96 314.355 240.188 316.254C243.901 317.112 251.741 321.922 254.168 324.835L277.958 349.941C278.225 350.223 278.212 350.668 277.93 350.935C277.794 351.064 277.62 351.129 277.447 351.129V351.123Z" fill="#121314"/>
<path d="M231.89 178.971C230.095 178.971 228.504 177.903 227.333 177.117C226.418 176.503 224.785 174.948 223.059 173.303C221.449 171.77 219.785 170.184 218.968 169.636C218.645 169.42 218.559 168.983 218.776 168.661C218.992 168.338 219.429 168.251 219.752 168.469C220.669 169.083 222.301 170.64 224.029 172.285C225.638 173.818 227.301 175.402 228.116 175.95C229.468 176.855 230.675 177.606 231.988 177.564C232.388 177.564 232.7 177.864 232.713 178.244C232.726 178.633 232.421 178.956 232.032 178.969C231.984 178.969 231.938 178.971 231.89 178.971Z" fill="#121314"/>
<path d="M264.518 301.815C264.413 301.815 264.304 301.791 264.204 301.741C263.856 301.567 263.715 301.145 263.889 300.798C267.305 293.965 272.493 288.146 278.889 283.97C279.214 283.758 279.649 283.848 279.863 284.175C280.075 284.499 279.985 284.934 279.659 285.148C273.47 289.188 268.452 294.817 265.148 301.427C265.025 301.674 264.778 301.816 264.52 301.816L264.518 301.815Z" fill="#121314"/>
<path d="M164.65 274.652C164.353 274.652 164.077 274.462 163.981 274.165C163.389 272.332 163.374 267.479 164.691 263.737C164.82 263.37 165.22 263.176 165.587 263.307C165.954 263.436 166.146 263.836 166.017 264.203C164.815 267.617 164.802 272.127 165.318 273.731C165.438 274.1 165.235 274.497 164.864 274.617C164.792 274.639 164.72 274.65 164.649 274.65L164.65 274.652Z" fill="#121314"/>
<path d="M114.558 244.918C114.169 244.918 113.855 244.603 113.855 244.215V215.025C113.855 214.636 114.171 214.323 114.558 214.323C114.946 214.323 115.261 214.638 115.261 215.025V244.215C115.261 244.604 114.946 244.918 114.558 244.918Z" fill="#121314"/>
<path d="M237.338 152.97C234.388 152.97 231.428 152.474 228.652 151.509C228.285 151.382 228.092 150.98 228.219 150.615C228.346 150.248 228.75 150.054 229.113 150.181C232.455 151.345 236.082 151.788 239.606 151.461C239.986 151.422 240.335 151.708 240.372 152.096C240.407 152.483 240.123 152.826 239.735 152.861C238.939 152.935 238.138 152.972 237.336 152.972L237.338 152.97Z" fill="#121314"/>
<path d="M59.0592 137.029C81.4595 137.029 99.6185 118.87 99.6185 96.4699C99.6185 74.0696 81.4595 55.9106 59.0592 55.9106C36.659 55.9106 18.5 74.0696 18.5 96.4699C18.5 118.87 36.659 137.029 59.0592 137.029Z" fill="white" stroke="#404040" stroke-width="3"/>
<mask id="mask0_1052_7371" style="mask-type:luminance" maskUnits="userSpaceOnUse" x="20" y="57" width="79" height="79">
<path d="M59.0612 135.529C80.633 135.529 98.1204 118.042 98.1204 96.4699C98.1204 74.8981 80.633 57.4106 59.0612 57.4106C37.4894 57.4106 20.002 74.8981 20.002 96.4699C20.002 118.042 37.4894 135.529 59.0612 135.529Z" fill="white"/>
</mask>
<g mask="url(#mask0_1052_7371)">
<path d="M46.8443 94.631C47.5581 95.0847 48.3364 95.3448 48.3364 95.3448C48.3364 95.3448 48.7901 97.4216 49.4394 98.9137C50.1532 100.406 51.127 101.444 51.127 101.444L51.5162 102.612C51.5162 102.612 51.7117 108.518 50.4132 109.491C49.1535 110.487 46.4643 111.803 43.7051 113.016C43.7125 113.022 43.7198 113.024 43.7254 113.031C44.4521 113.782 44.9851 114.446 45.8999 114.934C46.8203 115.427 47.7075 115.976 48.6647 116.391C50.6899 117.268 52.7649 117.911 54.9486 118.134C57.0642 118.352 59.4878 118.323 61.5978 118.027C63.6414 117.742 66.0115 116.864 67.8245 115.857C69.2706 115.052 71.0172 114.182 72.1774 112.988C71.5576 112.721 70.5746 112.286 70.0286 112.018C68.3317 111.255 66.882 110.439 65.7938 109.493C64.4954 108.326 64.82 102.485 64.82 102.485C64.82 102.485 66.2476 101.057 67.1569 99.3047C67.9555 97.7646 68.3022 95.9239 68.3742 95.5015C68.2746 94.9371 68.1086 93.9153 68.0643 93.0743C67.9352 91.5822 67.9352 90.3482 67.155 88.6606C65.9229 85.87 63.2614 84.3115 61.5092 81.9764C60.2108 80.2888 59.497 78.7321 58.0049 78.6011C57.4202 78.5366 56.1881 79.1194 55.0187 79.444C53.7203 79.7687 52.3572 79.8978 51.6435 80.4824C49.7621 82.1055 50.0204 86.1928 49.0484 88.5942C47.7499 91.9049 45.544 93.4616 45.544 93.4616C45.544 93.4616 46.1932 94.1754 46.8424 94.6291L46.8443 94.631Z" fill="#FFDDC0"/>
<path d="M84.4244 118.254C83.7161 117.776 82.9249 117.328 82.082 116.902C79.0848 115.55 75.3333 114.021 72.1811 112.988C64.9289 120.624 50.9722 119.717 43.3916 113.154C39.4243 114.884 35.4237 116.371 35.4237 116.371C35.4237 116.371 31.4048 118.276 30.2963 119.875C28.0405 123.134 28.2397 134.107 27.6348 139.402H88.4452C88.4452 139.402 88.2497 120.849 84.4207 118.254H84.4244Z" fill="url(#paint1_linear_1052_7371)"/>
<path d="M84.4244 118.254C83.7161 117.776 82.9249 117.328 82.082 116.902C79.0848 115.55 75.3333 114.021 72.1811 112.988C64.9289 120.624 50.9722 119.717 43.3916 113.154C39.4243 114.884 35.4237 116.371 35.4237 116.371C35.4237 116.371 31.4048 118.276 30.2963 119.875C28.0405 123.134 28.2397 134.107 27.6348 139.402H88.4452C88.4452 139.402 88.2497 120.849 84.4207 118.254H84.4244Z" fill="white" fill-opacity="0.4"/>
<path d="M50.4175 109.493C51.716 108.519 51.5205 102.614 51.5205 102.614L51.1313 101.446C51.1313 101.446 50.1575 100.408 49.4437 98.9155C48.7944 97.4234 48.3407 95.3466 48.3407 95.3466C48.3407 95.3466 47.5624 95.0865 46.8486 94.6328C46.1994 94.1791 45.5501 93.4653 45.5501 93.4653C45.5501 93.4653 47.756 91.9086 49.0545 88.5979C50.0284 86.1964 49.7683 82.1073 51.6496 80.4861C52.3634 79.9014 53.7264 79.7723 55.0249 79.4477C56.1924 79.1231 57.4263 78.5384 58.011 78.6048C59.5031 78.7339 60.2169 80.2924 61.5154 81.9801C63.2676 84.317 65.9291 85.8736 67.1612 88.6642C67.9395 90.3519 67.9395 91.584 68.0705 93.0779C68.1147 93.919 68.2789 94.939 68.3803 95.5052C68.4264 95.7689 68.4615 95.9331 68.4615 95.9331L67.4231 99.3729L65.0862 102.553C65.0862 102.553 64.5015 106.835 65.7354 109.172C66.001 109.704 67.6278 110.84 70.0348 112.022C71.1562 112.573 72.4454 113.134 73.8472 113.651C77.9067 115.133 81.9017 117.509 82.0843 116.908C82.3481 115.598 82.1544 113.975 81.6362 112.677C80.7269 110.275 78.9101 108.069 77.7426 105.472C75.8594 101.383 75.6012 95.7376 75.6012 95.413C75.9258 88.7934 73.1998 78.863 71.1875 75.7478C69.4353 73.0863 64.1142 69.1282 60.3497 68.5435C57.2991 68.0898 54.8976 69.5173 53.0809 70.4912C51.9134 71.1404 50.875 71.3341 50.2257 71.4651C48.3444 71.8542 46.6568 73.671 45.4229 76.0724C43.4751 79.7059 42.5031 84.2506 42.5031 84.2506C42.5031 84.2506 41.3356 88.4687 40.2972 92.6869C39.3234 96.3223 38.4805 99.7603 38.4805 101.254C38.4159 103.916 39.9726 106.9 39.1943 109.757C38.545 112.094 37.2465 113.132 35.9499 114.754C35.902 114.801 35.6493 115.641 35.5146 116.093C35.4648 116.26 35.4316 116.375 35.4316 116.375C35.4316 116.375 47.3078 111.961 50.4231 109.495L50.4175 109.493Z" fill="#F08C65"/>
<path d="M58.4631 106.035C58.3524 106.031 56.0598 105.941 52.797 103.742C50.593 102.272 49.8128 100.712 49.348 99.7806L49.3185 99.7216C48.6471 98.3788 48.0975 96.6082 47.5884 94.1478C47.5331 93.8766 47.7065 93.6129 47.9776 93.5557C48.2487 93.5004 48.5125 93.6737 48.5696 93.9449C49.0603 96.3186 49.5822 98.0118 50.2149 99.2734L50.2444 99.3324C50.6926 100.231 51.3695 101.586 53.3541 102.911C56.3807 104.949 58.4576 105.034 58.4779 105.034C58.7545 105.041 58.9722 105.271 58.9629 105.548C58.9556 105.819 58.7324 106.033 58.4631 106.033V106.035Z" fill="#121314"/>
<path d="M58.5272 106.035C58.2505 106.035 58.0273 105.812 58.0273 105.535C58.0273 105.259 58.2487 105.037 58.5235 105.036C58.5456 105.036 60.3347 104.988 63.3153 103.04C65.4677 101.605 66.4028 100.074 66.7699 99.2883C67.338 98.213 67.7271 96.791 68.1016 95.415L69.068 95.6733C68.677 97.1064 68.2731 98.5837 67.6644 99.7347C67.2642 100.592 66.2239 102.304 63.8649 103.875C60.5929 106.011 58.6083 106.035 58.5253 106.035H58.5272Z" fill="#121314"/>
<path d="M48.1432 95.8465C48.1285 95.8465 48.1119 95.8465 48.0971 95.8447C47.2229 95.7654 45.9853 95.0995 45.1848 93.79C45.0409 93.5539 45.1147 93.2459 45.3508 93.102C45.5869 92.9582 45.8949 93.0319 46.0388 93.268C46.6954 94.3433 47.684 94.8026 48.1875 94.8487C48.4623 94.8727 48.6652 95.118 48.6412 95.3928C48.6172 95.6529 48.3996 95.8484 48.1432 95.8484V95.8465Z" fill="#121314"/>
<path d="M47.3646 92.9249C47.2078 92.9249 47.0547 92.853 46.9569 92.7146L46.6323 92.2609C46.4719 92.0359 46.5235 91.7242 46.7485 91.5637C46.9735 91.4033 47.2852 91.4549 47.4457 91.6799L47.7703 92.1336C47.9308 92.3587 47.8791 92.6704 47.6541 92.8308C47.5656 92.8935 47.4642 92.9249 47.3646 92.9249Z" fill="#121314"/>
<path d="M58.5921 96.1047C58.4759 96.1047 58.3597 96.0641 58.2638 95.9829C58.0554 95.8022 58.0333 95.4868 58.214 95.2765C58.7231 94.69 58.7637 94.4429 58.7581 94.3635C58.7508 94.2584 58.5774 94.1127 58.3948 93.9559C58.0646 93.6737 57.6109 93.2882 57.456 92.6003C57.0908 91.2114 57.9226 89.0756 58.2749 88.371C58.3985 88.1239 58.6991 88.0224 58.9463 88.1479C59.1934 88.2714 59.293 88.5721 59.1694 88.8192C58.8264 89.5072 58.1624 91.3535 58.428 92.3623C58.5147 92.7423 58.76 92.9526 59.044 93.1942C59.3594 93.4616 59.7154 93.766 59.756 94.2879C59.791 94.7582 59.5494 95.2655 58.9702 95.9331C58.8706 96.0475 58.7323 96.1065 58.5921 96.1065V96.1047Z" fill="#121314"/>
<path d="M51.7827 85.8496C51.6259 85.8496 51.4709 85.7758 51.3732 85.6375C51.2146 85.4125 51.2662 85.1026 51.4894 84.944C51.5539 84.8979 53.1051 83.8171 55.1579 84.6969C55.4125 84.8057 55.5305 85.1008 55.4217 85.3535C55.3129 85.608 55.0178 85.726 54.7651 85.6172C53.2453 84.9661 52.1165 85.7279 52.0704 85.7611C51.9837 85.8219 51.8822 85.8515 51.7845 85.8515L51.7827 85.8496Z" fill="#121314"/>
<path d="M64.6937 85.787C64.5941 85.787 64.4927 85.7575 64.406 85.6948C64.3543 85.6579 63.2348 84.9091 61.7242 85.61C61.4734 85.7262 61.1764 85.6173 61.0602 85.3665C60.944 85.1157 61.0528 84.8187 61.3037 84.7025C63.3639 83.7471 64.9206 84.8316 64.9851 84.8796C65.2102 85.04 65.2618 85.3517 65.1013 85.5768C65.0036 85.7132 64.8505 85.787 64.6937 85.787Z" fill="#121314"/>
<path fill-rule="evenodd" clip-rule="evenodd" d="M51.3886 102.224C51.3886 102.224 55.2176 105.404 58.5929 105.469C61.1898 105.533 64.8879 102.549 64.8879 102.549C64.8879 102.549 61.1234 107.027 57.6836 107.546C54.6974 107.999 51.5822 105.209 51.5822 105.209L51.3867 102.223L51.3886 102.224Z" fill="#121314"/>
<path d="M54.7631 77.1551C54.5233 77.1551 54.3112 76.9818 54.2706 76.7365L54.2356 76.5096C54.1323 75.8272 54.0345 75.1816 52.9021 73.9422C52.7158 73.7374 52.7305 73.422 52.9353 73.2358C53.14 73.0495 53.4554 73.0642 53.6417 73.2671C54.9789 74.7316 55.1098 75.5966 55.2242 76.3602L55.2574 76.5723C55.3035 76.8453 55.1191 77.1035 54.8461 77.1478C54.8184 77.1533 54.7908 77.1551 54.7631 77.1551Z" fill="#121314"/>
<path d="M44.2512 94.6125C44.0668 94.6125 43.8916 94.5111 43.803 94.3359C43.6795 94.0887 43.7791 93.7881 44.0262 93.6645C44.9337 93.2108 45.8651 92.4417 46.7947 91.3811C48.0305 89.9499 48.8438 88.087 49.1426 85.9936C49.5429 82.8894 50.4706 78.7985 53.8422 79.1416C54.117 79.1692 54.3162 79.4164 54.2886 79.6912C54.2609 79.966 54.0174 80.1652 53.7389 80.1376C52.4368 80.0048 50.8506 80.5636 50.1331 86.1282C49.8066 88.4171 48.9139 90.4589 47.5491 92.0377C46.5328 93.1997 45.4981 94.0463 44.4744 94.5591C44.4025 94.5941 44.3269 94.6125 44.2512 94.6125Z" fill="#121314"/>
<path d="M27.5714 139.904C27.5493 139.904 27.5271 139.904 27.5032 139.899C27.2302 139.862 27.0365 139.609 27.0752 139.336C27.2154 138.309 27.3704 136.538 27.5493 134.487C28.1911 127.166 28.8108 120.993 29.8991 119.573C32.5569 116.235 41.3732 113.186 43.1125 112.609C43.3744 112.52 43.6566 112.59 43.8484 112.789C44.1029 113.053 44.2486 113.189 44.2966 113.226C46.4177 114.857 50.8977 117.623 57.0821 117.837C64.6755 118.096 70.0649 114.359 72.0311 112.739C72.2985 112.518 72.673 112.478 72.9847 112.631L73.6099 112.942C74.4934 113.298 75.4322 113.645 76.4282 114.012C80.248 115.419 84.1987 116.873 86.4987 119.763C87.5906 121.187 88.19 127.196 88.8098 134.319C88.9868 136.348 89.1381 138.098 89.2782 139.131C89.3151 139.406 89.1233 139.657 88.8503 139.694C88.5811 139.731 88.3247 139.539 88.2878 139.266C88.1439 138.209 87.9908 136.446 87.8138 134.406C87.373 129.339 86.7071 121.679 85.7111 120.381C83.5901 117.718 79.774 116.312 76.0833 114.953C75.1242 114.6 74.1337 114.235 73.2005 113.855L72.6065 113.562C70.5039 115.279 64.9043 119.117 57.047 118.839C50.5842 118.616 45.9012 115.726 43.6861 114.021C43.5975 113.953 43.4518 113.817 43.2563 113.619C41.6332 114.167 33.1102 117.151 30.6866 120.193C29.6925 121.489 28.975 129.682 28.5452 134.577C28.3645 136.641 28.2077 138.423 28.0657 139.474C28.0325 139.725 27.8167 139.908 27.5696 139.908L27.5714 139.904Z" fill="#121314"/>
<path d="M38.3619 139.696C38.3508 139.696 38.3416 139.696 38.3305 139.696C38.0539 139.679 37.8455 139.441 37.8621 139.165C37.9211 138.204 38.1074 131.254 37.1833 128.734C37.0874 128.474 37.222 128.187 37.4803 128.092C37.7385 127.998 38.0281 128.131 38.1221 128.389C39.107 131.075 38.9318 138.052 38.8599 139.225C38.8433 139.491 38.6238 139.694 38.36 139.694L38.3619 139.696Z" fill="#121314"/>
<path d="M38.3619 139.696C38.3508 139.696 38.3416 139.696 38.3305 139.696C38.0539 139.679 37.8455 139.441 37.8621 139.165C37.9211 138.204 38.1074 131.254 37.1833 128.734C37.0874 128.474 37.222 128.187 37.4803 128.092C37.7385 127.998 38.0281 128.131 38.1221 128.389C39.107 131.075 38.9318 138.052 38.8599 139.225C38.8433 139.491 38.6238 139.694 38.36 139.694L38.3619 139.696Z" fill="#121314"/>
<path d="M78.4442 139.696C78.1823 139.696 77.9609 139.491 77.9443 139.227C77.8724 138.054 77.6972 131.077 78.6821 128.391C78.7762 128.133 79.0639 128 79.324 128.094C79.584 128.19 79.7168 128.476 79.6209 128.736C78.6969 131.254 78.8831 138.203 78.944 139.164C78.9606 139.441 78.7503 139.679 78.4755 139.696C78.4645 139.696 78.4552 139.696 78.4442 139.696Z" fill="#121314"/>
<path d="M42.4982 85.5916C42.4687 85.5916 42.4392 85.5898 42.4097 85.5842C42.1386 85.5344 41.9578 85.2744 42.0058 85.0033C43.6067 76.1279 46.6721 71.4726 51.3809 70.7736C51.6521 70.733 51.9084 70.9211 51.949 71.1941C51.9896 71.4671 51.8015 71.7216 51.5285 71.7622C47.2992 72.3911 44.5068 76.779 42.9907 85.1803C42.9464 85.4219 42.7361 85.5916 42.4982 85.5916Z" fill="#121314"/>
<path d="M82.1531 117.393C82.1217 117.393 82.0922 117.391 82.0609 117.384C81.7897 117.332 81.6108 117.072 81.6606 116.799C81.7307 116.426 81.8248 115.716 81.7861 115.395C81.4909 112.555 80.3363 110.718 79.1135 108.774C78.2226 107.357 77.3023 105.893 76.618 103.947C75.3121 100.24 75.2421 97.678 75.1738 95.2009C75.1554 94.5591 75.1388 93.8969 75.0982 93.2329C74.9672 91.0584 74.3254 86.0268 73.1671 81.7828C71.994 77.607 70.157 73.3538 64.7233 70.5429C61.7741 69.036 56.5507 68.2023 54.4223 70.5632C54.2378 70.7679 53.9206 70.7845 53.7159 70.6001C53.5111 70.4156 53.4945 70.0984 53.679 69.8937C56.2575 67.0367 62.0655 68.0622 65.1808 69.6539C70.9704 72.6492 72.955 77.3304 74.1317 81.5172C75.3103 85.8387 75.9632 90.9606 76.096 93.1739C76.1384 93.8545 76.155 94.5259 76.1735 95.1751C76.2399 97.5747 76.3063 100.055 77.5605 103.617C78.2079 105.456 79.0987 106.872 79.9601 108.243C81.2456 110.29 82.4611 112.223 82.7783 115.283C82.8503 115.853 82.664 116.871 82.6419 116.984C82.5976 117.223 82.3873 117.391 82.1512 117.391L82.1531 117.393Z" fill="#121314"/>
<path d="M35.6181 116.55C35.5849 116.55 35.5498 116.546 35.5166 116.539C35.2455 116.484 35.0721 116.218 35.1275 115.947C35.4207 114.528 36.2563 113.488 36.994 112.57C37.2965 112.193 37.5824 111.837 37.7871 111.504C37.8203 111.439 37.8793 111.341 37.9457 111.231C38.4935 110.312 39.5135 108.601 38.5064 104.351C37.5603 100.36 38.7665 96.0677 40.041 91.5249C40.3804 90.3168 40.7308 89.0663 41.037 87.8268C41.1034 87.5575 41.3727 87.3952 41.642 87.4616C41.9094 87.528 42.0736 87.7992 42.0072 88.0666C41.6973 89.3226 41.3432 90.5805 41.0019 91.796C39.7625 96.2115 38.5913 100.382 39.4766 104.122C40.5759 108.767 39.377 110.779 38.8016 111.745C38.7444 111.841 38.6927 111.926 38.6522 112.003C38.4013 112.415 38.0951 112.797 37.7724 113.199C37.1065 114.029 36.3503 114.969 36.105 116.152C36.0571 116.388 35.8486 116.55 35.6162 116.55H35.6181Z" fill="#121314"/>
<path d="M43.7949 113.536C43.5957 113.536 43.4076 113.416 43.3301 113.221C43.2287 112.965 43.3541 112.673 43.6104 112.572C47.1444 111.17 50.1969 109.958 50.7059 107.697C51.0748 105.974 50.8277 102.167 50.824 102.129C50.8055 101.852 51.0139 101.614 51.2906 101.596C51.5636 101.577 51.8052 101.786 51.8236 102.062C51.8347 102.225 52.0837 106.048 51.6835 107.911C51.0582 110.694 47.777 111.994 43.9793 113.501C43.9185 113.525 43.8558 113.536 43.7949 113.536Z" fill="#121314"/>
<path d="M72.1136 113.466C72.0527 113.466 71.99 113.455 71.9292 113.431C68.0688 111.908 65.2929 110.635 64.7249 108.11C64.3246 106.242 64.5736 102.418 64.5847 102.256C64.6031 101.981 64.8355 101.771 65.1177 101.789C65.3925 101.808 65.6028 102.046 65.5844 102.322C65.5825 102.361 65.3335 106.168 65.7042 107.896C66.1635 109.936 68.7272 111.091 72.2999 112.5C72.5563 112.601 72.6835 112.893 72.5821 113.149C72.5046 113.346 72.3165 113.466 72.1173 113.466H72.1136Z" fill="#121314"/>
<path fill-rule="evenodd" clip-rule="evenodd" d="M52.4258 90.1529C52.4258 89.5036 52.815 88.9854 53.3996 88.9854C53.9198 88.9854 54.3735 89.5036 54.3735 90.1529C54.3735 90.8021 53.9198 91.3204 53.3996 91.3204C52.815 91.3204 52.4258 90.8021 52.4258 90.1529Z" fill="#121314"/>
<path fill-rule="evenodd" clip-rule="evenodd" d="M61.9668 90.1529C61.9668 89.5036 62.4205 88.9854 62.9406 88.9854C63.4608 88.9854 63.9145 89.5036 63.9145 90.1529C63.9145 90.8021 63.4608 91.3204 62.9406 91.3204C62.4205 91.3204 61.9668 90.8021 61.9668 90.1529Z" fill="#121314"/>
<path d="M71.5731 98.4415C71.5233 98.4415 71.4735 98.4341 71.4237 98.4194C68.2955 97.4455 67.5172 95.0736 67.3088 91.809C67.117 88.8062 65.9974 87.2883 65.1711 86.4085C64.7377 85.9197 64.2009 85.5066 63.6329 85.0695C62.884 84.494 62.1094 83.8983 61.5579 83.107C61.0949 82.4688 60.7279 81.8509 60.4051 81.305C60.0104 80.6392 59.671 80.0619 59.2782 79.669C58.5958 78.9866 57.7768 78.496 56.4304 79.5196C56.2091 79.6874 55.8955 79.6432 55.7295 79.4237C55.5617 79.2042 55.6041 78.8888 55.8254 78.7228C57.3047 77.5996 58.7046 77.6807 59.9864 78.9626C60.4697 79.444 60.8386 80.0711 61.2683 80.7959C61.58 81.3234 61.9323 81.9192 62.375 82.526C62.8453 83.1974 63.5259 83.7212 64.247 84.2764C64.8262 84.7227 65.4256 85.1838 65.9144 85.7334C66.8366 86.7165 68.1 88.4208 68.3103 91.7444C68.5021 94.7545 69.1218 96.6542 71.7243 97.4639C71.9881 97.5469 72.1356 97.8273 72.0526 98.0911C71.9862 98.305 71.7889 98.4433 71.5749 98.4433L71.5731 98.4415Z" fill="#121314"/>
<path fill-rule="evenodd" clip-rule="evenodd" d="M58.4131 98.1003C56.7531 98.1003 55.1484 97.8145 55.1484 97.8145C55.1484 97.8145 55.8936 100.85 58.4131 100.965C60.8182 101.079 61.6777 97.8145 61.6777 97.8145C61.6777 97.8145 60.0177 98.1003 58.4131 98.1003Z" fill="white"/>
<path d="M58.5417 101.468C58.4919 101.468 58.4403 101.468 58.3886 101.464C55.5279 101.335 54.6961 98.0726 54.6629 97.9343C54.6223 97.7701 54.6684 97.5967 54.7846 97.4732C54.9008 97.3496 55.0705 97.2943 55.2384 97.3219C55.2531 97.3238 56.8209 97.6004 58.4144 97.6004C60.008 97.6004 61.5776 97.3238 61.5942 97.3219C61.7621 97.2943 61.9336 97.3514 62.048 97.4769C62.1642 97.6023 62.2066 97.7775 62.1641 97.9416C62.1254 98.0874 61.2051 101.468 58.5454 101.468H58.5417ZM55.9079 98.4323C56.2749 99.2309 57.0459 100.402 58.4366 100.465C59.7553 100.52 60.5411 99.2733 60.9192 98.4304C60.2736 98.5116 59.3403 98.602 58.4144 98.602C57.4886 98.602 56.5461 98.5134 55.9097 98.4323H55.9079Z" fill="#121314"/>
</g>
</g>
<defs>
<linearGradient id="paint0_linear_1052_7371" x1="243.944" y1="539.669" x2="332.722" y2="518.933" gradientUnits="userSpaceOnUse">
<stop stop-color="#8AC2F7"/>
<stop offset="1" stop-color="#86F8A6" stop-opacity="0.8"/>
</linearGradient>
<linearGradient id="paint1_linear_1052_7371" x1="107.429" y1="173.911" x2="132.015" y2="144.217" gradientUnits="userSpaceOnUse">
<stop stop-color="#8AC2F7"/>
<stop offset="1" stop-color="#86F8A6" stop-opacity="0.8"/>
</linearGradient>
<clipPath id="clip0_1052_7371">
<rect width="319" height="303" fill="white" transform="translate(16.5 49.05)"/>
</clipPath>
</defs>
</svg>
