<svg width="220" height="215" viewBox="0 0 220 215" fill="none" xmlns="http://www.w3.org/2000/svg">
<path d="M130.197 188.222C129.749 188.221 129.353 187.905 129.27 187.45C129.176 186.939 129.516 186.449 130.028 186.356L133.873 185.658C134.398 185.566 134.877 185.905 134.971 186.416C135.065 186.927 134.725 187.417 134.213 187.51L130.368 188.208C130.309 188.218 130.252 188.222 130.197 188.222Z" fill="black"/>
<path d="M128.481 116.759L171.879 108.742C171.879 108.742 171.931 167.707 171.914 166.796C171.907 166.391 164.421 170.039 156.976 174.979C147.394 181.341 132.298 187.636 132.298 187.636L128.448 188.324L128.481 116.757L128.481 116.759Z" fill="white"/>
<path d="M46.4698 145.706L46.4573 185.193L121.753 187.454L128.57 187.659L128.593 116.257L84.8667 80.8108L46.479 116.344L46.4704 143.786L46.4699 145.276L46.4698 145.706Z" fill="white"/>
<path d="M128.569 188.455C128.546 188.455 46.4314 185.989 46.4314 185.989C45.9184 185.973 45.5096 185.555 45.5098 185.045L45.5314 116.197C45.5315 115.939 45.6382 115.691 45.829 115.515L84.2165 79.9825C84.5611 79.6623 85.0914 79.6486 85.4581 79.9464L129.184 115.392C129.407 115.571 129.536 115.84 129.536 116.123L129.513 187.523C129.513 187.777 129.411 188.018 129.228 188.194C129.052 188.362 128.814 188.459 128.569 188.458L128.569 188.455ZM47.401 184.142L127.625 186.548L127.647 116.559L84.9123 81.9145L47.4222 116.614L47.401 184.139L47.401 184.142Z" fill="black"/>
<path d="M78.3662 186.31C77.8428 186.306 77.4213 185.882 77.4214 185.364L77.4338 145.878L61.0771 145.745L61.0649 184.62C61.0647 185.14 60.6404 185.556 60.1195 185.553C59.5986 185.55 59.1745 185.125 59.1747 184.607L59.1872 144.791C59.1873 144.542 59.2866 144.304 59.4652 144.127C59.6414 143.953 59.8821 143.856 60.1326 143.858L78.382 144.006C78.9029 144.009 79.3269 144.434 79.3268 144.952L79.3141 185.377C79.3139 185.897 78.8896 186.313 78.3687 186.31L78.3662 186.31Z" fill="black"/>
<path d="M113.571 165.759L94.0538 165.389C93.5361 165.378 93.1225 164.96 93.1226 164.446L93.1286 145.398C93.1287 145.15 93.2279 144.91 93.4063 144.736C93.5822 144.563 93.8226 144.466 94.0728 144.468C94.0753 144.468 113.58 144.673 113.58 144.673C114.1 144.677 114.521 145.1 114.521 145.616L114.515 164.826C114.515 165.076 114.413 165.317 114.235 165.49C114.059 165.661 113.819 165.758 113.571 165.756L113.571 165.759ZM95.0107 163.534L112.625 163.867L112.631 146.538L95.0161 146.353L95.0107 163.534Z" fill="black"/>
<path d="M171.915 166.759C171.392 166.757 170.971 166.336 170.971 165.815L170.965 108.934L128.682 116.739C128.166 116.837 127.673 116.497 127.577 115.986C127.48 115.476 127.815 114.986 128.328 114.89L171.732 106.878C172.005 106.823 172.292 106.901 172.51 107.082C172.728 107.26 172.852 107.527 172.852 107.806L172.86 165.822C172.859 166.342 172.438 166.759 171.915 166.759Z" fill="black"/>
<path d="M142.912 162.647C142.706 162.646 142.503 162.579 142.337 162.45C142.104 162.271 141.968 161.994 141.968 161.704L141.967 142.792C141.967 142.348 142.277 141.967 142.713 141.875L159.311 138.412C159.591 138.354 159.881 138.425 160.104 138.606C160.325 138.784 160.456 139.054 160.456 139.337L160.447 157.384C160.447 157.81 160.16 158.181 159.746 158.288L143.157 162.614C143.075 162.636 142.993 162.645 142.914 162.645L142.912 162.647ZM143.854 143.56L143.857 160.487L158.555 156.652L158.562 140.49L143.854 143.56Z" fill="black"/>
<path d="M171.915 108.605C171.705 108.604 171.492 108.532 171.314 108.386L130.52 74.6994L106.948 98.3007C106.581 98.6676 105.985 98.6673 105.613 98.3044C105.242 97.9391 105.238 97.3469 105.604 96.9799L129.897 72.657C130.207 72.3463 130.695 72.292 131.066 72.5247C131.269 72.6509 172.515 106.952 172.515 106.952C172.916 107.283 172.973 107.873 172.641 108.272C172.455 108.495 172.185 108.609 171.913 108.608L171.915 108.605Z" fill="black"/>
<path d="M199.819 59.8126L199.82 59.8125C199.937 60.135 200.165 60.4032 200.422 60.6239C200.684 60.8484 201.004 61.0477 201.348 61.2248C202.036 61.5788 202.877 61.873 203.676 62.1071C203.922 62.1791 204.166 62.2459 204.402 62.3075C204.157 62.3667 203.904 62.4318 203.65 62.5027C202.849 62.726 202.01 63.0143 201.338 63.3758C201.001 63.5567 200.689 63.7652 200.441 64.0072C200.194 64.2488 199.989 64.5467 199.917 64.9048L199.917 64.9048L199.916 64.9108C199.731 65.8912 199.238 68.7295 198.792 71.3166C198.67 72.0287 198.551 72.7224 198.442 73.3539C198.328 72.6931 198.2 71.9646 198.066 71.2188C197.831 69.9063 197.576 68.5376 197.341 67.3885C197.109 66.2547 196.889 65.295 196.723 64.8279C196.607 64.5032 196.381 64.2346 196.124 64.0147C195.865 63.7928 195.548 63.598 195.209 63.4265C194.531 63.0837 193.705 62.8051 192.921 62.5866C192.697 62.5243 192.475 62.4664 192.259 62.413C192.491 62.3548 192.73 62.2919 192.97 62.2243C193.761 62.0017 194.59 61.723 195.261 61.39C195.596 61.2235 195.908 61.0355 196.161 60.8226C196.409 60.6131 196.634 60.3499 196.734 60.0249L196.737 60.0158L196.74 60.0066C196.992 59.0637 197.457 56.4133 197.855 54.0342C197.95 53.4642 198.042 52.9071 198.126 52.3892C198.206 52.8184 198.293 53.2748 198.384 53.7435C198.822 56.0017 199.376 58.6072 199.819 59.8126Z" stroke="black"/>
<path d="M200.42 35.6877C200.33 36.2113 200.243 36.7152 200.169 37.1509C199.861 35.3608 199.351 32.5161 199.105 31.8262C198.885 31.213 197.537 30.78 196.488 30.5309L200.42 35.6877ZM200.42 35.6877C200.425 35.6558 200.431 35.6238 200.436 35.5918C200.704 34.037 201.001 32.3284 201.112 31.738L201.113 31.7322L201.113 31.7322C201.167 31.4652 201.318 31.2522 201.485 31.0894C201.651 30.9264 201.856 30.7907 202.068 30.6767C202.423 30.486 202.846 30.3301 203.26 30.2047C202.851 30.0758 202.434 29.9201 202.078 29.7367C201.863 29.6259 201.655 29.4978 201.482 29.349C201.312 29.2031 201.148 29.014 201.062 28.7746C200.808 28.0822 200.499 26.665 200.247 25.3835C200.013 26.779 199.742 28.3151 199.591 28.8785L199.588 28.8877L199.586 28.8967C199.509 29.1427 199.343 29.3309 199.178 29.4697C199.01 29.6118 198.807 29.7331 198.597 29.8372C198.255 30.0072 197.851 30.1525 197.453 30.2737C197.838 30.392 198.23 30.5352 198.566 30.7054C198.779 30.8128 198.984 30.9381 199.156 31.0851C199.326 31.2302 199.49 31.4187 199.576 31.6579L199.576 31.6589C199.681 31.9552 199.816 32.5468 199.955 33.2249C200.096 33.9179 200.25 34.7426 200.392 35.5324C200.401 35.5843 200.411 35.6361 200.42 35.6877Z" stroke="black"/>
<path d="M15.5139 90.2735C16.0119 90.1291 16.5295 89.9506 16.9582 89.7379C17.1894 89.6232 17.4111 89.4906 17.5936 89.3366C17.7722 89.1859 17.9486 88.9849 18.029 88.7254L18.0318 88.7164L18.0343 88.7072C18.2062 88.0666 18.5189 86.2826 18.7839 84.6948C18.7939 84.635 18.8038 84.5754 18.8137 84.516C19.1053 86.0189 19.477 87.7684 19.7781 88.5895C19.8693 88.8432 20.0447 89.0459 20.2297 89.2045C20.4179 89.3659 20.6445 89.506 20.8816 89.6279C21.3256 89.8562 21.8571 90.0463 22.3657 90.199C21.8508 90.3462 21.3117 90.535 20.8707 90.772C20.6377 90.8972 20.4142 91.0452 20.2337 91.2216C20.0536 91.3977 19.8932 91.6251 19.8363 91.9077L19.8363 91.9077L19.8351 91.9136C19.711 92.5707 19.3813 94.4719 19.0838 96.2027C19.0594 96.3444 19.0353 96.4849 19.0115 96.6237C18.9831 96.4634 18.9541 96.3006 18.9247 96.1366C18.7669 95.2577 18.5959 94.3401 18.4384 93.5694C18.284 92.8136 18.135 92.1591 18.0189 91.8336C17.9283 91.5796 17.7542 91.3773 17.5696 91.2194C17.3827 91.0595 17.1584 90.9224 16.9243 90.8041C16.5009 90.5901 15.9981 90.4143 15.5139 90.2735Z" stroke="black"/>
<path d="M23.4467 65.8321C23.2268 65.2188 21.8787 64.7859 20.8297 64.5368L23.4467 65.8321ZM23.4467 65.8321C23.6925 66.5219 24.2025 69.3667 24.5104 71.1567L23.4467 65.8321ZM25.4051 62.7832L25.5256 63.1101L25.5908 63.1102C25.6625 63.2026 25.7438 63.2838 25.8265 63.3549C25.9996 63.5036 26.207 63.6318 26.4221 63.7426C26.7781 63.9259 27.1952 64.0815 27.6038 64.2104C27.1891 64.3358 26.7655 64.4917 26.4106 64.6825C26.1987 64.7965 25.9934 64.9322 25.8267 65.0952C25.6603 65.2579 25.5091 65.471 25.4553 65.738L25.4552 65.738L25.4541 65.7438C25.3424 66.3342 25.0457 68.0428 24.7781 69.5976C24.7726 69.6297 24.7671 69.6616 24.7616 69.6935C24.7523 69.642 24.7431 69.5902 24.7337 69.5383C24.5918 68.7485 24.438 67.9238 24.2964 67.2307C24.1578 66.5527 24.0232 65.961 23.9177 65.6647L23.9173 65.6637C23.8315 65.4245 23.6681 65.2361 23.4983 65.091C23.3261 64.9439 23.1207 64.8186 22.9081 64.7112C22.5713 64.5411 22.1801 64.3978 21.7947 64.2795C22.1926 64.1584 22.5964 64.013 22.9388 63.8431C23.1487 63.7389 23.3519 63.6176 23.5202 63.4755C23.6846 63.3368 23.851 63.1485 23.9273 62.9026L23.9301 62.8935L23.9326 62.8844C24.0842 62.3209 24.3549 60.7849 24.5886 59.3893C24.8416 60.6725 25.1504 62.0917 25.4051 62.7832Z" stroke="black"/>
<path d="M46.2359 190.167L45.2359 190.165L45.2345 191.15L46.2191 191.167L46.2359 190.167ZM128.391 191.549L128.374 192.549L128.775 192.556L129.07 192.283L128.391 191.549ZM130.435 191.022L131.169 190.343L129.811 188.874L129.077 189.553L130.435 191.022ZM45.2422 185.8C45.2422 185.803 45.2422 185.806 45.2422 185.809C45.2422 185.811 45.2422 185.814 45.2422 185.817C45.2422 185.82 45.2422 185.823 45.2422 185.825C45.2421 185.828 45.2421 185.831 45.2421 185.834C45.2421 185.837 45.2421 185.84 45.2421 185.843C45.2421 185.845 45.2421 185.848 45.2421 185.851C45.2421 185.854 45.2421 185.857 45.2421 185.86C45.2421 185.863 45.2421 185.866 45.2421 185.868C45.2421 185.871 45.2421 185.874 45.2421 185.877C45.2421 185.88 45.2421 185.883 45.2421 185.886C45.2421 185.889 45.2421 185.892 45.2421 185.895C45.242 185.898 45.242 185.9 45.242 185.903C45.242 185.906 45.242 185.909 45.242 185.912C45.242 185.915 45.242 185.918 45.242 185.921C45.242 185.924 45.242 185.927 45.242 185.93C45.242 185.933 45.242 185.936 45.242 185.939C45.242 185.942 45.242 185.945 45.242 185.948C45.242 185.951 45.242 185.954 45.242 185.957C45.242 185.96 45.242 185.963 45.2419 185.966C45.2419 185.969 45.2419 185.972 45.2419 185.975C45.2419 185.978 45.2419 185.981 45.2419 185.984C45.2419 185.987 45.2419 185.99 45.2419 185.993C45.2419 185.996 45.2419 185.999 45.2419 186.002C45.2419 186.005 45.2419 186.008 45.2419 186.011C45.2419 186.014 45.2419 186.017 45.2419 186.021C45.2419 186.024 45.2419 186.027 45.2419 186.03C45.2419 186.033 45.2418 186.036 45.2418 186.039C45.2418 186.042 45.2418 186.045 45.2418 186.048C45.2418 186.051 45.2418 186.054 45.2418 186.058C45.2418 186.061 45.2418 186.064 45.2418 186.067C45.2418 186.07 45.2418 186.073 45.2418 186.076C45.2418 186.079 45.2418 186.083 45.2418 186.086C45.2418 186.089 45.2418 186.092 45.2418 186.095C45.2418 186.098 45.2418 186.101 45.2417 186.105C45.2417 186.108 45.2417 186.111 45.2417 186.114C45.2417 186.117 45.2417 186.12 45.2417 186.124C45.2417 186.127 45.2417 186.13 45.2417 186.133C45.2417 186.136 45.2417 186.139 45.2417 186.143C45.2417 186.146 45.2417 186.149 45.2417 186.152C45.2417 186.155 45.2417 186.159 45.2417 186.162C45.2417 186.165 45.2417 186.168 45.2417 186.171C45.2416 186.175 45.2416 186.178 45.2416 186.181C45.2416 186.184 45.2416 186.188 45.2416 186.191C45.2416 186.194 45.2416 186.197 45.2416 186.2C45.2416 186.204 45.2416 186.207 45.2416 186.21C45.2416 186.213 45.2416 186.217 45.2416 186.22C45.2416 186.223 45.2416 186.227 45.2416 186.23C45.2416 186.233 45.2416 186.236 45.2416 186.24C45.2415 186.243 45.2415 186.246 45.2415 186.249C45.2415 186.253 45.2415 186.256 45.2415 186.259C45.2415 186.263 45.2415 186.266 45.2415 186.269C45.2415 186.272 45.2415 186.276 45.2415 186.279C45.2415 186.282 45.2415 186.286 45.2415 186.289C45.2415 186.292 45.2415 186.296 45.2415 186.299C45.2415 186.302 45.2415 186.306 45.2415 186.309C45.2414 186.312 45.2414 186.316 45.2414 186.319C45.2414 186.322 45.2414 186.326 45.2414 186.329C45.2414 186.332 45.2414 186.336 45.2414 186.339C45.2414 186.342 45.2414 186.346 45.2414 186.349C45.2414 186.352 45.2414 186.356 45.2414 186.359C45.2414 186.363 45.2414 186.366 45.2414 186.369C45.2414 186.373 45.2414 186.376 45.2414 186.379C45.2413 186.383 45.2413 186.386 45.2413 186.39C45.2413 186.393 45.2413 186.396 45.2413 186.4C45.2413 186.403 45.2413 186.407 45.2413 186.41C45.2413 186.413 45.2413 186.417 45.2413 186.42C45.2413 186.424 45.2413 186.427 45.2413 186.431C45.2413 186.434 45.2413 186.437 45.2413 186.441C45.2413 186.444 45.2413 186.448 45.2412 186.451C45.2412 186.454 45.2412 186.458 45.2412 186.461C45.2412 186.465 45.2412 186.468 45.2412 186.472C45.2412 186.475 45.2412 186.479 45.2412 186.482C45.2412 186.486 45.2412 186.489 45.2412 186.492C45.2412 186.496 45.2412 186.499 45.2412 186.503C45.2412 186.506 45.2412 186.51 45.2412 186.513C45.2412 186.517 45.2411 186.52 45.2411 186.524C45.2411 186.527 45.2411 186.531 45.2411 186.534C45.2411 186.538 45.2411 186.541 45.2411 186.545C45.2411 186.548 45.2411 186.552 45.2411 186.555C45.2411 186.559 45.2411 186.562 45.2411 186.566C45.2411 186.569 45.2411 186.573 45.2411 186.576C45.2411 186.58 45.2411 186.583 45.2411 186.587C45.241 186.59 45.241 186.594 45.241 186.597C45.241 186.601 45.241 186.604 45.241 186.608C45.241 186.611 45.241 186.615 45.241 186.618C45.241 186.622 45.241 186.625 45.241 186.629C45.241 186.633 45.241 186.636 45.241 186.64C45.241 186.643 45.241 186.647 45.241 186.65C45.241 186.654 45.241 186.657 45.2409 186.661C45.2409 186.664 45.2409 186.668 45.2409 186.672C45.2409 186.675 45.2409 186.679 45.2409 186.682C45.2409 186.686 45.2409 186.689 45.2409 186.693C45.2409 186.697 45.2409 186.7 45.2409 186.704C45.2409 186.707 45.2409 186.711 45.2409 186.714C45.2409 186.718 45.2409 186.722 45.2409 186.725C45.2408 186.729 45.2408 186.732 45.2408 186.736C45.2408 186.74 45.2408 186.743 45.2408 186.747C45.2408 186.75 45.2408 186.754 45.2408 186.758C45.2408 186.761 45.2408 186.765 45.2408 186.768C45.2408 186.772 45.2408 186.776 45.2408 186.779C45.2408 186.783 45.2408 186.787 45.2408 186.79C45.2408 186.794 45.2408 186.797 45.2407 186.801C45.2407 186.805 45.2407 186.808 45.2407 186.812C45.2407 186.815 45.2407 186.819 45.2407 186.823C45.2407 186.826 45.2407 186.83 45.2407 186.834C45.2407 186.837 45.2407 186.841 45.2407 186.845C45.2407 186.848 45.2407 186.852 45.2407 186.856C45.2407 186.859 45.2407 186.863 45.2407 186.866C45.2406 186.87 45.2406 186.874 45.2406 186.877C45.2406 186.881 45.2406 186.885 45.2406 186.888C45.2406 186.892 45.2406 186.896 45.2406 186.899C45.2406 186.903 45.2406 186.907 45.2406 186.91C45.2406 186.914 45.2406 186.918 45.2406 186.921C45.2406 186.925 45.2406 186.929 45.2406 186.932C45.2406 186.936 45.2405 186.94 45.2405 186.943C45.2405 186.947 45.2405 186.951 45.2405 186.954C45.2405 186.958 45.2405 186.962 45.2405 186.966C45.2405 186.969 45.2405 186.973 45.2405 186.977C45.2405 186.98 45.2405 186.984 45.2405 186.988C45.2405 186.991 45.2405 186.995 45.2405 186.999C45.2405 187.002 45.2404 187.006 45.2404 187.01C45.2404 187.014 45.2404 187.017 45.2404 187.021C45.2404 187.025 45.2404 187.028 45.2404 187.032C45.2404 187.036 45.2404 187.039 45.2404 187.043C45.2404 187.047 45.2404 187.051 45.2404 187.054C45.2404 187.058 45.2404 187.062 45.2404 187.065C45.2404 187.069 45.2404 187.073 45.2403 187.077C45.2403 187.08 45.2403 187.084 45.2403 187.088C45.2403 187.092 45.2403 187.095 45.2403 187.099C45.2403 187.103 45.2403 187.106 45.2403 187.11C45.2403 187.114 45.2403 187.118 45.2403 187.121C45.2403 187.125 45.2403 187.129 45.2403 187.133C45.2403 187.136 45.2403 187.14 45.2403 187.144C45.2402 187.147 45.2402 187.151 45.2402 187.155C45.2402 187.159 45.2402 187.162 45.2402 187.166C45.2402 187.17 45.2402 187.174 45.2402 187.177C45.2402 187.181 45.2402 187.185 45.2402 187.189C45.2402 187.192 45.2402 187.196 45.2402 187.2C45.2402 187.204 45.2402 187.207 45.2402 187.211C45.2401 187.215 45.2401 187.219 45.2401 187.222C45.2401 187.226 45.2401 187.23 45.2401 187.234C45.2401 187.237 45.2401 187.241 45.2401 187.245C45.2401 187.249 45.2401 187.252 45.2401 187.256C45.2401 187.26 45.2401 187.264 45.2401 187.268C45.2401 187.271 45.2401 187.275 45.2401 187.279C45.2401 187.283 45.24 187.286 45.24 187.29C45.24 187.294 45.24 187.298 45.24 187.301C45.24 187.305 45.24 187.309 45.24 187.313C45.24 187.316 45.24 187.32 45.24 187.324C45.24 187.328 45.24 187.332 45.24 187.335C45.24 187.339 45.24 187.343 45.24 187.347C45.24 187.35 45.2399 187.354 45.2399 187.358C45.2399 187.362 45.2399 187.366 45.2399 187.369C45.2399 187.373 45.2399 187.377 45.2399 187.381C45.2399 187.384 45.2399 187.388 45.2399 187.392C45.2399 187.396 45.2399 187.4 45.2399 187.403C45.2399 187.407 45.2399 187.411 45.2399 187.415C45.2399 187.418 45.2398 187.422 45.2398 187.426C45.2398 187.43 45.2398 187.434 45.2398 187.437C45.2398 187.441 45.2398 187.445 45.2398 187.449C45.2398 187.452 45.2398 187.456 45.2398 187.46C45.2398 187.464 45.2398 187.468 45.2398 187.471C45.2398 187.475 45.2398 187.479 45.2398 187.483C45.2398 187.487 45.2398 187.49 45.2397 187.494C45.2397 187.498 45.2397 187.502 45.2397 187.505C45.2397 187.509 45.2397 187.513 45.2397 187.517C45.2397 187.521 45.2397 187.524 45.2397 187.528C45.2397 187.532 45.2397 187.536 45.2397 187.54C45.2397 187.543 45.2397 187.547 45.2397 187.551C45.2397 187.555 45.2397 187.559 45.2396 187.562C45.2396 187.566 45.2396 187.57 45.2396 187.574C45.2396 187.577 45.2396 187.581 45.2396 187.585C45.2396 187.589 45.2396 187.593 45.2396 187.596C45.2396 187.6 45.2396 187.604 45.2396 187.608C45.2396 187.612 45.2396 187.615 45.2396 187.619C45.2396 187.623 45.2396 187.627 45.2395 187.631C45.2395 187.634 45.2395 187.638 45.2395 187.642C45.2395 187.646 45.2395 187.649 45.2395 187.653C45.2395 187.657 45.2395 187.661 45.2395 187.665C45.2395 187.668 45.2395 187.672 45.2395 187.676C45.2395 187.68 45.2395 187.684 45.2395 187.687C45.2395 187.691 45.2395 187.695 45.2395 187.699C45.2394 187.702 45.2394 187.706 45.2394 187.71C45.2394 187.714 45.2394 187.718 45.2394 187.721C45.2394 187.725 45.2394 187.729 45.2394 187.733C45.2394 187.737 45.2394 187.74 45.2394 187.744C45.2394 187.748 45.2394 187.752 45.2394 187.755C45.2394 187.759 45.2394 187.763 45.2394 187.767C45.2393 187.771 45.2393 187.774 45.2393 187.778C45.2393 187.782 45.2393 187.786 45.2393 187.79C45.2393 187.793 45.2393 187.797 45.2393 187.801C45.2393 187.805 45.2393 187.808 45.2393 187.812C45.2393 187.816 45.2393 187.82 45.2393 187.824C45.2393 187.827 45.2393 187.831 45.2393 187.835C45.2392 187.839 45.2392 187.842 45.2392 187.846C45.2392 187.85 45.2392 187.854 45.2392 187.857C45.2392 187.861 45.2392 187.865 45.2392 187.869C45.2392 187.873 45.2392 187.876 45.2392 187.88C45.2392 187.884 45.2392 187.888 45.2392 187.891C45.2392 187.895 45.2392 187.899 45.2392 187.903C45.2392 187.906 45.2391 187.91 45.2391 187.914C45.2391 187.918 45.2391 187.922 45.2391 187.925C45.2391 187.929 45.2391 187.933 45.2391 187.937C45.2391 187.94 45.2391 187.944 45.2391 187.948C45.2391 187.952 45.2391 187.955 45.2391 187.959C45.2391 187.963 45.2391 187.967 45.2391 187.97C45.2391 187.974 45.239 187.978 45.239 187.982C45.239 187.985 45.239 187.989 45.239 187.993C45.239 187.997 45.239 188 45.239 188.004C45.239 188.008 45.239 188.012 45.239 188.015C45.239 188.019 45.239 188.023 45.239 188.027C45.239 188.03 45.239 188.034 45.239 188.038C45.239 188.042 45.239 188.045 45.2389 188.049C45.2389 188.053 45.2389 188.056 45.2389 188.06C45.2389 188.064 45.2389 188.068 45.2389 188.071C45.2389 188.075 45.2389 188.079 45.2389 188.083C45.2389 188.086 45.2389 188.09 45.2389 188.094C45.2389 188.098 45.2389 188.101 45.2389 188.105C45.2389 188.109 45.2389 188.112 45.2388 188.116C45.2388 188.12 45.2388 188.124 45.2388 188.127C45.2388 188.131 45.2388 188.135 45.2388 188.138C45.2388 188.142 45.2388 188.146 45.2388 188.15C45.2388 188.153 45.2388 188.157 45.2388 188.161C45.2388 188.164 45.2388 188.168 45.2388 188.172C45.2388 188.176 45.2388 188.179 45.2388 188.183C45.2387 188.187 45.2387 188.19 45.2387 188.194C45.2387 188.198 45.2387 188.201 45.2387 188.205C45.2387 188.209 45.2387 188.212 45.2387 188.216C45.2387 188.22 45.2387 188.224 45.2387 188.227C45.2387 188.231 45.2387 188.235 45.2387 188.238C45.2387 188.242 45.2387 188.246 45.2387 188.249C45.2387 188.253 45.2386 188.257 45.2386 188.26C45.2386 188.264 45.2386 188.268 45.2386 188.271C45.2386 188.275 45.2386 188.279 45.2386 188.282C45.2386 188.286 45.2386 188.29 45.2386 188.293C45.2386 188.297 45.2386 188.301 45.2386 188.304C45.2386 188.308 45.2386 188.312 45.2386 188.315C45.2386 188.319 45.2386 188.323 45.2385 188.326C45.2385 188.33 45.2385 188.334 45.2385 188.337C45.2385 188.341 45.2385 188.345 45.2385 188.348C45.2385 188.352 45.2385 188.355 45.2385 188.359C45.2385 188.363 45.2385 188.366 45.2385 188.37C45.2385 188.374 45.2385 188.377 45.2385 188.381C45.2385 188.384 45.2385 188.388 45.2385 188.392C45.2384 188.395 45.2384 188.399 45.2384 188.403C45.2384 188.406 45.2384 188.41 45.2384 188.413C45.2384 188.417 45.2384 188.421 45.2384 188.424C45.2384 188.428 45.2384 188.431 45.2384 188.435C45.2384 188.439 45.2384 188.442 45.2384 188.446C45.2384 188.449 45.2384 188.453 45.2384 188.457C45.2384 188.46 45.2383 188.464 45.2383 188.467C45.2383 188.471 45.2383 188.475 45.2383 188.478C45.2383 188.482 45.2383 188.485 45.2383 188.489C45.2383 188.493 45.2383 188.496 45.2383 188.5C45.2383 188.503 45.2383 188.507 45.2383 188.51C45.2383 188.514 45.2383 188.518 45.2383 188.521C45.2383 188.525 45.2383 188.528 45.2382 188.532C45.2382 188.535 45.2382 188.539 45.2382 188.542C45.2382 188.546 45.2382 188.55 45.2382 188.553C45.2382 188.557 45.2382 188.56 45.2382 188.564C45.2382 188.567 45.2382 188.571 45.2382 188.574C45.2382 188.578 45.2382 188.581 45.2382 188.585C45.2382 188.588 45.2382 188.592 45.2382 188.595C45.2382 188.599 45.2381 188.603 45.2381 188.606C45.2381 188.61 45.2381 188.613 45.2381 188.617C45.2381 188.62 45.2381 188.624 45.2381 188.627C45.2381 188.631 45.2381 188.634 45.2381 188.638C45.2381 188.641 45.2381 188.645 45.2381 188.648C45.2381 188.652 45.2381 188.655 45.2381 188.659C45.2381 188.662 45.2381 188.666 45.2381 188.669C45.238 188.672 45.238 188.676 45.238 188.679C45.238 188.683 45.238 188.686 45.238 188.69C45.238 188.693 45.238 188.697 45.238 188.7C45.238 188.704 45.238 188.707 45.238 188.711C45.238 188.714 45.238 188.717 45.238 188.721C45.238 188.724 45.238 188.728 45.238 188.731C45.238 188.735 45.238 188.738 45.2379 188.742C45.2379 188.745 45.2379 188.748 45.2379 188.752C45.2379 188.755 45.2379 188.759 45.2379 188.762C45.2379 188.766 45.2379 188.769 45.2379 188.772C45.2379 188.776 45.2379 188.779 45.2379 188.783C45.2379 188.786 45.2379 188.789 45.2379 188.793C45.2379 188.796 45.2379 188.8 45.2379 188.803C45.2379 188.806 45.2378 188.81 45.2378 188.813C45.2378 188.817 45.2378 188.82 45.2378 188.823C45.2378 188.827 45.2378 188.83 45.2378 188.833C45.2378 188.837 45.2378 188.84 45.2378 188.843C45.2378 188.847 45.2378 188.85 45.2378 188.854C45.2378 188.857 45.2378 188.86 45.2378 188.864C45.2378 188.867 45.2378 188.87 45.2378 188.874C45.2378 188.877 45.2377 188.88 45.2377 188.884C45.2377 188.887 45.2377 188.89 45.2377 188.894C45.2377 188.897 45.2377 188.9 45.2377 188.904C45.2377 188.907 45.2377 188.91 45.2377 188.913C45.2377 188.917 45.2377 188.92 45.2377 188.923C45.2377 188.927 45.2377 188.93 45.2377 188.933C45.2377 188.937 45.2377 188.94 45.2377 188.943C45.2377 188.946 45.2376 188.95 45.2376 188.953C45.2376 188.956 45.2376 188.96 45.2376 188.963C45.2376 188.966 45.2376 188.969 45.2376 188.973C45.2376 188.976 45.2376 188.979 45.2376 188.982C45.2376 188.986 45.2376 188.989 45.2376 188.992C45.2376 188.995 45.2376 188.999 45.2376 189.002C45.2376 189.005 45.2376 189.008 45.2376 189.011C45.2376 189.015 45.2375 189.018 45.2375 189.021C45.2375 189.024 45.2375 189.028 45.2375 189.031C45.2375 189.034 45.2375 189.037 45.2375 189.04C45.2375 189.044 45.2375 189.047 45.2375 189.05C45.2375 189.053 45.2375 189.056 45.2375 189.059C45.2375 189.063 45.2375 189.066 45.2375 189.069C45.2375 189.072 45.2375 189.075 45.2375 189.079C45.2375 189.082 45.2375 189.085 45.2374 189.088C45.2374 189.091 45.2374 189.094 45.2374 189.097C45.2374 189.101 45.2374 189.104 45.2374 189.107C45.2374 189.11 45.2374 189.113 45.2374 189.116C45.2374 189.119 45.2374 189.122 45.2374 189.126C45.2374 189.129 45.2374 189.132 45.2374 189.135C45.2374 189.138 45.2374 189.141 45.2374 189.144C45.2374 189.147 45.2374 189.15 45.2374 189.153C45.2373 189.157 45.2373 189.16 45.2373 189.163C45.2373 189.166 45.2373 189.169 45.2373 189.172C45.2373 189.175 45.2373 189.178 45.2373 189.181C45.2373 189.184 45.2373 189.187 45.2373 189.19C45.2373 189.193 45.2373 189.196 45.2373 189.199C45.2373 189.202 45.2373 189.205 45.2373 189.209C45.2373 189.212 45.2373 189.215 45.2373 189.218C45.2373 189.221 45.2373 189.224 45.2372 189.227C45.2372 189.23 45.2372 189.233 45.2372 189.236C45.2372 189.239 45.2372 189.242 45.2372 189.245C45.2372 189.248 45.2372 189.251 45.2372 189.254C45.2372 189.257 45.2372 189.259 45.2372 189.262C45.2372 189.265 45.2372 189.268 45.2372 189.271C45.2372 189.274 45.2372 189.277 45.2372 189.28C45.2372 189.283 45.2372 189.286 45.2372 189.289C45.2372 189.292 45.2371 189.295 45.2371 189.298C45.2371 189.301 45.2371 189.304 45.2371 189.307C45.2371 189.309 45.2371 189.312 45.2371 189.315C45.2371 189.318 45.2371 189.321 45.2371 189.324C45.2371 189.327 45.2371 189.33 45.2371 189.333C45.2371 189.335 45.2371 189.338 45.2371 189.341C45.2371 189.344 45.2371 189.347 45.2371 189.35C45.2371 189.353 45.2371 189.356 45.2371 189.358C45.2371 189.361 45.237 189.364 45.237 189.367C45.237 189.37 45.237 189.373 45.237 189.375C45.237 189.378 45.237 189.381 45.237 189.384C45.237 189.387 45.237 189.389 45.237 189.392C45.237 189.395 45.237 189.398 45.237 189.401C45.237 189.403 45.237 189.406 45.237 189.409C45.237 189.412 45.237 189.415 45.237 189.417C45.237 189.42 45.237 189.423 45.237 189.426C45.237 189.428 45.237 189.431 45.2369 189.434C45.2369 189.437 45.2369 189.439 45.2369 189.442C45.2369 189.445 45.2369 189.448 45.2369 189.45C45.2369 189.453 45.2369 189.456 45.2369 189.458C45.2369 189.461 45.2369 189.464 45.2369 189.467C45.2369 189.469 45.2369 189.472 45.2369 189.475C45.2369 189.477 45.2369 189.48 45.2369 189.483C45.2369 189.485 45.2369 189.488 45.2369 189.491C45.2369 189.493 45.2369 189.496 45.2369 189.499C45.2369 189.501 45.2368 189.504 45.2368 189.507C45.2368 189.509 45.2368 189.512 45.2368 189.514C45.2368 189.517 45.2368 189.52 45.2368 189.522C45.2368 189.525 45.2368 189.527 45.2368 189.53C45.2368 189.533 45.2368 189.535 45.2368 189.538C45.2368 189.54 45.2368 189.543 45.2368 189.546C45.2368 189.548 45.2368 189.551 45.2368 189.553C45.2368 189.556 45.2368 189.558 45.2368 189.561C45.2368 189.564 45.2368 189.566 45.2368 189.569C45.2367 189.571 45.2367 189.574 45.2367 189.576C45.2367 189.579 45.2367 189.581 45.2367 189.584C45.2367 189.586 45.2367 189.589 45.2367 189.591C45.2367 189.594 45.2367 189.596 45.2367 189.599C45.2367 189.601 45.2367 189.604 45.2367 189.606C45.2367 189.609 45.2367 189.611 45.2367 189.614C45.2367 189.616 45.2367 189.618 45.2367 189.621C45.2367 189.623 45.2367 189.626 45.2367 189.628C45.2367 189.631 45.2367 189.633 45.2367 189.635C45.2367 189.638 45.2366 189.64 45.2366 189.643C45.2366 189.645 45.2366 189.647 45.2366 189.65C45.2366 189.652 45.2366 189.655 45.2366 189.657C45.2366 189.659 45.2366 189.662 45.2366 189.664C45.2366 189.667 45.2366 189.669 45.2366 189.671C45.2366 189.674 45.2366 189.676 45.2366 189.678C45.2366 189.681 45.2366 189.683 45.2366 189.685C45.2366 189.688 45.2366 189.69 45.2366 189.692C45.2366 189.694 45.2366 189.697 45.2366 189.699C45.2366 189.701 45.2366 189.704 45.2366 189.706C45.2366 189.708 45.2365 189.71 45.2365 189.713C45.2365 189.715 45.2365 189.717 45.2365 189.72C45.2365 189.722 45.2365 189.724 45.2365 189.726C45.2365 189.728 45.2365 189.731 45.2365 189.733C45.2365 189.735 45.2365 189.737 45.2365 189.74C45.2365 189.742 45.2365 189.744 45.2365 189.746C45.2365 189.748 45.2365 189.751 45.2365 189.753C45.2365 189.755 45.2365 189.757 45.2365 189.759C45.2365 189.761 45.2365 189.764 45.2365 189.766C45.2365 189.768 45.2365 189.77 45.2365 189.772C45.2365 189.774 45.2365 189.776 45.2365 189.779C45.2364 189.781 45.2364 189.783 45.2364 189.785C45.2364 189.787 45.2364 189.789 45.2364 189.791C45.2364 189.793 45.2364 189.795 45.2364 189.797C45.2364 189.799 45.2364 189.802 45.2364 189.804C45.2364 189.806 45.2364 189.808 45.2364 189.81C45.2364 189.812 45.2364 189.814 45.2364 189.816C45.2364 189.818 45.2364 189.82 45.2364 189.822C45.2364 189.824 45.2364 189.826 45.2364 189.828C45.2364 189.83 45.2364 189.832 45.2364 189.834C45.2364 189.836 45.2364 189.838 45.2364 189.84C45.2364 189.842 45.2364 189.844 45.2364 189.846C45.2364 189.848 45.2363 189.85 45.2363 189.852C45.2363 189.854 45.2363 189.855 45.2363 189.857C45.2363 189.859 45.2363 189.861 45.2363 189.863C45.2363 189.865 45.2363 189.867 45.2363 189.869C45.2363 189.871 45.2363 189.873 45.2363 189.874C45.2363 189.876 45.2363 189.878 45.2363 189.88C45.2363 189.882 45.2363 189.884 45.2363 189.886C45.2363 189.887 45.2363 189.889 45.2363 189.891C45.2363 189.893 45.2363 189.895 45.2363 189.897C45.2363 189.898 45.2363 189.9 45.2363 189.902C45.2363 189.904 45.2363 189.906 45.2363 189.907C45.2363 189.909 45.2363 189.911 45.2363 189.913C45.2363 189.914 45.2363 189.916 45.2362 189.918C45.2362 189.92 45.2362 189.921 45.2362 189.923C45.2362 189.925 45.2362 189.927 45.2362 189.928C45.2362 189.93 45.2362 189.932 45.2362 189.933C45.2362 189.935 45.2362 189.937 45.2362 189.938C45.2362 189.94 45.2362 189.942 45.2362 189.943C45.2362 189.945 45.2362 189.947 45.2362 189.948C45.2362 189.95 45.2362 189.952 45.2362 189.953C45.2362 189.955 45.2362 189.957 45.2362 189.958C45.2362 189.96 45.2362 189.961 45.2362 189.963C45.2362 189.965 45.2362 189.966 45.2362 189.968C45.2362 189.969 45.2362 189.971 45.2362 189.972C45.2362 189.974 45.2362 189.976 45.2362 189.977C45.2362 189.979 45.2362 189.98 45.2362 189.982C45.2362 189.983 45.2362 189.985 45.2362 189.986C45.2361 189.988 45.2361 189.989 45.2361 189.991C45.2361 189.992 45.2361 189.994 45.2361 189.995C45.2361 189.997 45.2361 189.998 45.2361 190C45.2361 190.001 45.2361 190.002 45.2361 190.004C45.2361 190.005 45.2361 190.007 45.2361 190.008C45.2361 190.01 45.2361 190.011 45.2361 190.012C45.2361 190.014 45.2361 190.015 45.2361 190.017C45.2361 190.018 45.2361 190.019 45.2361 190.021C45.2361 190.022 45.2361 190.023 45.2361 190.025C45.2361 190.026 45.2361 190.028 45.2361 190.029C45.2361 190.03 45.2361 190.031 45.2361 190.033C45.2361 190.034 45.2361 190.035 45.2361 190.037C45.2361 190.038 45.2361 190.039 45.2361 190.041C45.2361 190.042 45.2361 190.043 45.2361 190.044C45.2361 190.046 45.2361 190.047 45.2361 190.048C45.2361 190.049 45.2361 190.051 45.2361 190.052C45.2361 190.053 45.2361 190.054 45.2361 190.055C45.236 190.057 45.236 190.058 45.236 190.059C45.236 190.06 45.236 190.061 45.236 190.063C45.236 190.064 45.236 190.065 45.236 190.066C45.236 190.067 45.236 190.068 45.236 190.069C45.236 190.071 45.236 190.072 45.236 190.073C45.236 190.074 45.236 190.075 45.236 190.076C45.236 190.077 45.236 190.078 45.236 190.079C45.236 190.08 45.236 190.082 45.236 190.083C45.236 190.084 45.236 190.085 45.236 190.086C45.236 190.087 45.236 190.088 45.236 190.089C45.236 190.09 45.236 190.091 45.236 190.092C45.236 190.093 45.236 190.094 45.236 190.095C45.236 190.096 45.236 190.097 45.236 190.098C45.236 190.099 45.236 190.1 45.236 190.101C45.236 190.101 45.236 190.102 45.236 190.103C45.236 190.104 45.236 190.105 45.236 190.106C45.236 190.107 45.236 190.108 45.236 190.109C45.236 190.11 45.236 190.11 45.236 190.111C45.236 190.112 45.236 190.113 45.236 190.114C45.236 190.115 45.236 190.116 45.236 190.116C45.236 190.117 45.236 190.118 45.236 190.119C45.236 190.12 45.236 190.12 45.236 190.121C45.236 190.122 45.236 190.123 45.236 190.124C45.236 190.124 45.236 190.125 45.2359 190.126C45.2359 190.127 45.2359 190.127 45.2359 190.128C45.2359 190.129 45.2359 190.129 45.2359 190.13C45.2359 190.131 45.2359 190.131 45.2359 190.132C45.2359 190.133 45.2359 190.134 45.2359 190.134C45.2359 190.135 45.2359 190.135 45.2359 190.136C45.2359 190.137 45.2359 190.137 45.2359 190.138C45.2359 190.139 45.2359 190.139 45.2359 190.14C45.2359 190.14 45.2359 190.141 45.2359 190.142C45.2359 190.142 45.2359 190.143 45.2359 190.143C45.2359 190.144 45.2359 190.144 45.2359 190.145C45.2359 190.146 45.2359 190.146 45.2359 190.147C45.2359 190.147 45.2359 190.148 45.2359 190.148C45.2359 190.149 45.2359 190.149 45.2359 190.15C45.2359 190.15 45.2359 190.15 45.2359 190.151C45.2359 190.151 45.2359 190.152 45.2359 190.152C45.2359 190.153 45.2359 190.153 45.2359 190.154C45.2359 190.154 45.2359 190.154 45.2359 190.155C45.2359 190.155 45.2359 190.156 45.2359 190.156C45.2359 190.156 45.2359 190.157 45.2359 190.157C45.2359 190.157 45.2359 190.158 45.2359 190.158C45.2359 190.158 45.2359 190.159 45.2359 190.159C45.2359 190.159 45.2359 190.16 45.2359 190.16C45.2359 190.16 45.2359 190.16 45.2359 190.161C45.2359 190.161 45.2359 190.161 45.2359 190.161C45.2359 190.162 45.2359 190.162 45.2359 190.162C45.2359 190.162 45.2359 190.163 45.2359 190.163C45.2359 190.163 45.2359 190.163 45.2359 190.163C45.2359 190.163 45.2359 190.164 45.2359 190.164C45.2359 190.164 45.2359 190.164 45.2359 190.164C45.2359 190.164 45.2359 190.164 45.2359 190.165C45.2359 190.165 45.2359 190.165 45.2359 190.165C45.2359 190.165 45.2359 190.165 45.2359 190.165C45.2359 190.165 45.2359 190.165 45.2359 190.165C45.2359 190.165 45.2359 190.165 45.2359 190.165C45.2359 190.165 45.2359 190.165 46.2359 190.167C47.2359 190.168 47.2359 190.168 47.2359 190.168C47.2359 190.168 47.2359 190.168 47.2359 190.168C47.2359 190.168 47.2359 190.168 47.2359 190.168C47.2359 190.168 47.2359 190.168 47.2359 190.168C47.2359 190.168 47.2359 190.168 47.2359 190.167C47.2359 190.167 47.2359 190.167 47.2359 190.167C47.2359 190.167 47.2359 190.167 47.2359 190.167C47.2359 190.167 47.2359 190.166 47.2359 190.166C47.2359 190.166 47.2359 190.166 47.2359 190.166C47.2359 190.165 47.2359 190.165 47.2359 190.165C47.2359 190.165 47.2359 190.165 47.2359 190.164C47.2359 190.164 47.2359 190.164 47.2359 190.164C47.2359 190.163 47.2359 190.163 47.2359 190.163C47.2359 190.162 47.2359 190.162 47.2359 190.162C47.2359 190.162 47.2359 190.161 47.2359 190.161C47.2359 190.161 47.2359 190.16 47.2359 190.16C47.2359 190.16 47.2359 190.159 47.2359 190.159C47.2359 190.158 47.2359 190.158 47.2359 190.158C47.2359 190.157 47.2359 190.157 47.2359 190.156C47.2359 190.156 47.2359 190.156 47.2359 190.155C47.2359 190.155 47.2359 190.154 47.2359 190.154C47.2359 190.153 47.2359 190.153 47.2359 190.152C47.2359 190.152 47.2359 190.151 47.2359 190.151C47.2359 190.15 47.2359 190.15 47.2359 190.149C47.2359 190.149 47.2359 190.148 47.2359 190.148C47.2359 190.147 47.2359 190.147 47.2359 190.146C47.2359 190.146 47.2359 190.145 47.2359 190.145C47.2359 190.144 47.2359 190.143 47.2359 190.143C47.2359 190.142 47.2359 190.142 47.2359 190.141C47.2359 190.14 47.2359 190.14 47.2359 190.139C47.2359 190.138 47.2359 190.138 47.2359 190.137C47.2359 190.136 47.2359 190.136 47.2359 190.135C47.2359 190.134 47.2359 190.134 47.2359 190.133C47.2359 190.132 47.2359 190.132 47.2359 190.131C47.2359 190.13 47.2359 190.129 47.2359 190.129C47.2359 190.128 47.2359 190.127 47.236 190.126C47.236 190.126 47.236 190.125 47.236 190.124C47.236 190.123 47.236 190.122 47.236 190.122C47.236 190.121 47.236 190.12 47.236 190.119C47.236 190.118 47.236 190.118 47.236 190.117C47.236 190.116 47.236 190.115 47.236 190.114C47.236 190.113 47.236 190.112 47.236 190.112C47.236 190.111 47.236 190.11 47.236 190.109C47.236 190.108 47.236 190.107 47.236 190.106C47.236 190.105 47.236 190.104 47.236 190.103C47.236 190.102 47.236 190.102 47.236 190.101C47.236 190.1 47.236 190.099 47.236 190.098C47.236 190.097 47.236 190.096 47.236 190.095C47.236 190.094 47.236 190.093 47.236 190.092C47.236 190.091 47.236 190.09 47.236 190.089C47.236 190.088 47.236 190.087 47.236 190.085C47.236 190.084 47.236 190.083 47.236 190.082C47.236 190.081 47.236 190.08 47.236 190.079C47.236 190.078 47.236 190.077 47.236 190.076C47.236 190.075 47.236 190.073 47.236 190.072C47.236 190.071 47.236 190.07 47.236 190.069C47.236 190.068 47.236 190.067 47.236 190.065C47.236 190.064 47.236 190.063 47.236 190.062C47.236 190.061 47.236 190.06 47.236 190.058C47.2361 190.057 47.2361 190.056 47.2361 190.055C47.2361 190.053 47.2361 190.052 47.2361 190.051C47.2361 190.05 47.2361 190.049 47.2361 190.047C47.2361 190.046 47.2361 190.045 47.2361 190.043C47.2361 190.042 47.2361 190.041 47.2361 190.04C47.2361 190.038 47.2361 190.037 47.2361 190.036C47.2361 190.034 47.2361 190.033 47.2361 190.032C47.2361 190.03 47.2361 190.029 47.2361 190.028C47.2361 190.026 47.2361 190.025 47.2361 190.024C47.2361 190.022 47.2361 190.021 47.2361 190.02C47.2361 190.018 47.2361 190.017 47.2361 190.015C47.2361 190.014 47.2361 190.013 47.2361 190.011C47.2361 190.01 47.2361 190.008 47.2361 190.007C47.2361 190.005 47.2361 190.004 47.2361 190.002C47.2361 190.001 47.2361 190 47.2361 189.998C47.2361 189.997 47.2361 189.995 47.2361 189.994C47.2361 189.992 47.2361 189.991 47.2361 189.989C47.2362 189.988 47.2362 189.986 47.2362 189.985C47.2362 189.983 47.2362 189.982 47.2362 189.98C47.2362 189.978 47.2362 189.977 47.2362 189.975C47.2362 189.974 47.2362 189.972 47.2362 189.971C47.2362 189.969 47.2362 189.967 47.2362 189.966C47.2362 189.964 47.2362 189.963 47.2362 189.961C47.2362 189.959 47.2362 189.958 47.2362 189.956C47.2362 189.955 47.2362 189.953 47.2362 189.951C47.2362 189.95 47.2362 189.948 47.2362 189.946C47.2362 189.945 47.2362 189.943 47.2362 189.941C47.2362 189.94 47.2362 189.938 47.2362 189.936C47.2362 189.935 47.2362 189.933 47.2362 189.931C47.2362 189.929 47.2362 189.928 47.2362 189.926C47.2362 189.924 47.2362 189.922 47.2362 189.921C47.2362 189.919 47.2363 189.917 47.2363 189.915C47.2363 189.914 47.2363 189.912 47.2363 189.91C47.2363 189.908 47.2363 189.907 47.2363 189.905C47.2363 189.903 47.2363 189.901 47.2363 189.899C47.2363 189.898 47.2363 189.896 47.2363 189.894C47.2363 189.892 47.2363 189.89 47.2363 189.888C47.2363 189.887 47.2363 189.885 47.2363 189.883C47.2363 189.881 47.2363 189.879 47.2363 189.877C47.2363 189.875 47.2363 189.874 47.2363 189.872C47.2363 189.87 47.2363 189.868 47.2363 189.866C47.2363 189.864 47.2363 189.862 47.2363 189.86C47.2363 189.858 47.2363 189.856 47.2363 189.854C47.2363 189.853 47.2363 189.851 47.2364 189.849C47.2364 189.847 47.2364 189.845 47.2364 189.843C47.2364 189.841 47.2364 189.839 47.2364 189.837C47.2364 189.835 47.2364 189.833 47.2364 189.831C47.2364 189.829 47.2364 189.827 47.2364 189.825C47.2364 189.823 47.2364 189.821 47.2364 189.819C47.2364 189.817 47.2364 189.815 47.2364 189.813C47.2364 189.811 47.2364 189.809 47.2364 189.806C47.2364 189.804 47.2364 189.802 47.2364 189.8C47.2364 189.798 47.2364 189.796 47.2364 189.794C47.2364 189.792 47.2364 189.79 47.2364 189.788C47.2364 189.786 47.2364 189.784 47.2364 189.781C47.2365 189.779 47.2365 189.777 47.2365 189.775C47.2365 189.773 47.2365 189.771 47.2365 189.769C47.2365 189.766 47.2365 189.764 47.2365 189.762C47.2365 189.76 47.2365 189.758 47.2365 189.756C47.2365 189.753 47.2365 189.751 47.2365 189.749C47.2365 189.747 47.2365 189.745 47.2365 189.742C47.2365 189.74 47.2365 189.738 47.2365 189.736C47.2365 189.734 47.2365 189.731 47.2365 189.729C47.2365 189.727 47.2365 189.725 47.2365 189.722C47.2365 189.72 47.2365 189.718 47.2365 189.716C47.2365 189.713 47.2365 189.711 47.2366 189.709C47.2366 189.707 47.2366 189.704 47.2366 189.702C47.2366 189.7 47.2366 189.697 47.2366 189.695C47.2366 189.693 47.2366 189.69 47.2366 189.688C47.2366 189.686 47.2366 189.683 47.2366 189.681C47.2366 189.679 47.2366 189.676 47.2366 189.674C47.2366 189.672 47.2366 189.669 47.2366 189.667C47.2366 189.665 47.2366 189.662 47.2366 189.66C47.2366 189.658 47.2366 189.655 47.2366 189.653C47.2366 189.65 47.2366 189.648 47.2366 189.646C47.2366 189.643 47.2367 189.641 47.2367 189.638C47.2367 189.636 47.2367 189.634 47.2367 189.631C47.2367 189.629 47.2367 189.626 47.2367 189.624C47.2367 189.621 47.2367 189.619 47.2367 189.616C47.2367 189.614 47.2367 189.611 47.2367 189.609C47.2367 189.607 47.2367 189.604 47.2367 189.602C47.2367 189.599 47.2367 189.597 47.2367 189.594C47.2367 189.592 47.2367 189.589 47.2367 189.587C47.2367 189.584 47.2367 189.582 47.2367 189.579C47.2367 189.577 47.2367 189.574 47.2368 189.571C47.2368 189.569 47.2368 189.566 47.2368 189.564C47.2368 189.561 47.2368 189.559 47.2368 189.556C47.2368 189.554 47.2368 189.551 47.2368 189.548C47.2368 189.546 47.2368 189.543 47.2368 189.541C47.2368 189.538 47.2368 189.536 47.2368 189.533C47.2368 189.53 47.2368 189.528 47.2368 189.525C47.2368 189.523 47.2368 189.52 47.2368 189.517C47.2368 189.515 47.2368 189.512 47.2368 189.509C47.2368 189.507 47.2368 189.504 47.2369 189.501C47.2369 189.499 47.2369 189.496 47.2369 189.494C47.2369 189.491 47.2369 189.488 47.2369 189.486C47.2369 189.483 47.2369 189.48 47.2369 189.477C47.2369 189.475 47.2369 189.472 47.2369 189.469C47.2369 189.467 47.2369 189.464 47.2369 189.461C47.2369 189.459 47.2369 189.456 47.2369 189.453C47.2369 189.45 47.2369 189.448 47.2369 189.445C47.2369 189.442 47.2369 189.44 47.2369 189.437C47.2369 189.434 47.237 189.431 47.237 189.429C47.237 189.426 47.237 189.423 47.237 189.42C47.237 189.417 47.237 189.415 47.237 189.412C47.237 189.409 47.237 189.406 47.237 189.404C47.237 189.401 47.237 189.398 47.237 189.395C47.237 189.392 47.237 189.39 47.237 189.387C47.237 189.384 47.237 189.381 47.237 189.378C47.237 189.375 47.237 189.373 47.237 189.37C47.237 189.367 47.2371 189.364 47.2371 189.361C47.2371 189.358 47.2371 189.356 47.2371 189.353C47.2371 189.35 47.2371 189.347 47.2371 189.344C47.2371 189.341 47.2371 189.338 47.2371 189.335C47.2371 189.333 47.2371 189.33 47.2371 189.327C47.2371 189.324 47.2371 189.321 47.2371 189.318C47.2371 189.315 47.2371 189.312 47.2371 189.309C47.2371 189.307 47.2371 189.304 47.2371 189.301C47.2371 189.298 47.2372 189.295 47.2372 189.292C47.2372 189.289 47.2372 189.286 47.2372 189.283C47.2372 189.28 47.2372 189.277 47.2372 189.274C47.2372 189.271 47.2372 189.268 47.2372 189.265C47.2372 189.262 47.2372 189.259 47.2372 189.256C47.2372 189.253 47.2372 189.25 47.2372 189.247C47.2372 189.244 47.2372 189.241 47.2372 189.238C47.2372 189.236 47.2372 189.232 47.2372 189.229C47.2372 189.226 47.2373 189.223 47.2373 189.22C47.2373 189.217 47.2373 189.214 47.2373 189.211C47.2373 189.208 47.2373 189.205 47.2373 189.202C47.2373 189.199 47.2373 189.196 47.2373 189.193C47.2373 189.19 47.2373 189.187 47.2373 189.184C47.2373 189.181 47.2373 189.178 47.2373 189.175C47.2373 189.172 47.2373 189.169 47.2373 189.166C47.2373 189.163 47.2373 189.159 47.2373 189.156C47.2374 189.153 47.2374 189.15 47.2374 189.147C47.2374 189.144 47.2374 189.141 47.2374 189.138C47.2374 189.135 47.2374 189.132 47.2374 189.128C47.2374 189.125 47.2374 189.122 47.2374 189.119C47.2374 189.116 47.2374 189.113 47.2374 189.11C47.2374 189.107 47.2374 189.103 47.2374 189.1C47.2374 189.097 47.2374 189.094 47.2374 189.091C47.2374 189.088 47.2375 189.085 47.2375 189.081C47.2375 189.078 47.2375 189.075 47.2375 189.072C47.2375 189.069 47.2375 189.066 47.2375 189.062C47.2375 189.059 47.2375 189.056 47.2375 189.053C47.2375 189.05 47.2375 189.046 47.2375 189.043C47.2375 189.04 47.2375 189.037 47.2375 189.034C47.2375 189.03 47.2375 189.027 47.2375 189.024C47.2375 189.021 47.2376 189.018 47.2376 189.014C47.2376 189.011 47.2376 189.008 47.2376 189.005C47.2376 189.001 47.2376 188.998 47.2376 188.995C47.2376 188.992 47.2376 188.988 47.2376 188.985C47.2376 188.982 47.2376 188.979 47.2376 188.975C47.2376 188.972 47.2376 188.969 47.2376 188.966C47.2376 188.962 47.2376 188.959 47.2376 188.956C47.2376 188.953 47.2376 188.949 47.2377 188.946C47.2377 188.943 47.2377 188.939 47.2377 188.936C47.2377 188.933 47.2377 188.93 47.2377 188.926C47.2377 188.923 47.2377 188.92 47.2377 188.916C47.2377 188.913 47.2377 188.91 47.2377 188.906C47.2377 188.903 47.2377 188.9 47.2377 188.896C47.2377 188.893 47.2377 188.89 47.2377 188.887C47.2377 188.883 47.2377 188.88 47.2378 188.877C47.2378 188.873 47.2378 188.87 47.2378 188.866C47.2378 188.863 47.2378 188.86 47.2378 188.856C47.2378 188.853 47.2378 188.85 47.2378 188.846C47.2378 188.843 47.2378 188.84 47.2378 188.836C47.2378 188.833 47.2378 188.83 47.2378 188.826C47.2378 188.823 47.2378 188.819 47.2378 188.816C47.2378 188.813 47.2379 188.809 47.2379 188.806C47.2379 188.802 47.2379 188.799 47.2379 188.796C47.2379 188.792 47.2379 188.789 47.2379 188.785C47.2379 188.782 47.2379 188.779 47.2379 188.775C47.2379 188.772 47.2379 188.768 47.2379 188.765C47.2379 188.762 47.2379 188.758 47.2379 188.755C47.2379 188.751 47.2379 188.748 47.2379 188.744C47.2379 188.741 47.238 188.738 47.238 188.734C47.238 188.731 47.238 188.727 47.238 188.724C47.238 188.72 47.238 188.717 47.238 188.713C47.238 188.71 47.238 188.707 47.238 188.703C47.238 188.7 47.238 188.696 47.238 188.693C47.238 188.689 47.238 188.686 47.238 188.682C47.238 188.679 47.238 188.675 47.238 188.672C47.2381 188.668 47.2381 188.665 47.2381 188.661C47.2381 188.658 47.2381 188.654 47.2381 188.651C47.2381 188.647 47.2381 188.644 47.2381 188.64C47.2381 188.637 47.2381 188.633 47.2381 188.63C47.2381 188.626 47.2381 188.623 47.2381 188.619C47.2381 188.616 47.2381 188.612 47.2381 188.609C47.2381 188.605 47.2381 188.602 47.2382 188.598C47.2382 188.595 47.2382 188.591 47.2382 188.588C47.2382 188.584 47.2382 188.581 47.2382 188.577C47.2382 188.574 47.2382 188.57 47.2382 188.567C47.2382 188.563 47.2382 188.56 47.2382 188.556C47.2382 188.552 47.2382 188.549 47.2382 188.545C47.2382 188.542 47.2382 188.538 47.2382 188.535C47.2383 188.531 47.2383 188.528 47.2383 188.524C47.2383 188.52 47.2383 188.517 47.2383 188.513C47.2383 188.51 47.2383 188.506 47.2383 188.503C47.2383 188.499 47.2383 188.495 47.2383 188.492C47.2383 188.488 47.2383 188.485 47.2383 188.481C47.2383 188.478 47.2383 188.474 47.2383 188.47C47.2383 188.467 47.2383 188.463 47.2384 188.46C47.2384 188.456 47.2384 188.452 47.2384 188.449C47.2384 188.445 47.2384 188.442 47.2384 188.438C47.2384 188.434 47.2384 188.431 47.2384 188.427C47.2384 188.424 47.2384 188.42 47.2384 188.416C47.2384 188.413 47.2384 188.409 47.2384 188.405C47.2384 188.402 47.2384 188.398 47.2384 188.395C47.2385 188.391 47.2385 188.387 47.2385 188.384C47.2385 188.38 47.2385 188.376 47.2385 188.373C47.2385 188.369 47.2385 188.366 47.2385 188.362C47.2385 188.358 47.2385 188.355 47.2385 188.351C47.2385 188.347 47.2385 188.344 47.2385 188.34C47.2385 188.336 47.2385 188.333 47.2385 188.329C47.2385 188.326 47.2386 188.322 47.2386 188.318C47.2386 188.315 47.2386 188.311 47.2386 188.307C47.2386 188.304 47.2386 188.3 47.2386 188.296C47.2386 188.293 47.2386 188.289 47.2386 188.285C47.2386 188.282 47.2386 188.278 47.2386 188.274C47.2386 188.271 47.2386 188.267 47.2386 188.263C47.2386 188.26 47.2386 188.256 47.2387 188.252C47.2387 188.249 47.2387 188.245 47.2387 188.241C47.2387 188.237 47.2387 188.234 47.2387 188.23C47.2387 188.226 47.2387 188.223 47.2387 188.219C47.2387 188.215 47.2387 188.212 47.2387 188.208C47.2387 188.204 47.2387 188.201 47.2387 188.197C47.2387 188.193 47.2387 188.189 47.2387 188.186C47.2388 188.182 47.2388 188.178 47.2388 188.175C47.2388 188.171 47.2388 188.167 47.2388 188.164C47.2388 188.16 47.2388 188.156 47.2388 188.152C47.2388 188.149 47.2388 188.145 47.2388 188.141C47.2388 188.138 47.2388 188.134 47.2388 188.13C47.2388 188.126 47.2388 188.123 47.2388 188.119C47.2389 188.115 47.2389 188.112 47.2389 188.108C47.2389 188.104 47.2389 188.1 47.2389 188.097C47.2389 188.093 47.2389 188.089 47.2389 188.085C47.2389 188.082 47.2389 188.078 47.2389 188.074C47.2389 188.071 47.2389 188.067 47.2389 188.063C47.2389 188.059 47.2389 188.056 47.2389 188.052C47.2389 188.048 47.239 188.044 47.239 188.041C47.239 188.037 47.239 188.033 47.239 188.029C47.239 188.026 47.239 188.022 47.239 188.018C47.239 188.014 47.239 188.011 47.239 188.007C47.239 188.003 47.239 188 47.239 187.996C47.239 187.992 47.239 187.988 47.239 187.985C47.239 187.981 47.2391 187.977 47.2391 187.973C47.2391 187.97 47.2391 187.966 47.2391 187.962C47.2391 187.958 47.2391 187.954 47.2391 187.951C47.2391 187.947 47.2391 187.943 47.2391 187.939C47.2391 187.936 47.2391 187.932 47.2391 187.928C47.2391 187.924 47.2391 187.921 47.2391 187.917C47.2391 187.913 47.2391 187.909 47.2392 187.906C47.2392 187.902 47.2392 187.898 47.2392 187.894C47.2392 187.891 47.2392 187.887 47.2392 187.883C47.2392 187.879 47.2392 187.875 47.2392 187.872C47.2392 187.868 47.2392 187.864 47.2392 187.86C47.2392 187.857 47.2392 187.853 47.2392 187.849C47.2392 187.845 47.2392 187.841 47.2393 187.838C47.2393 187.834 47.2393 187.83 47.2393 187.826C47.2393 187.823 47.2393 187.819 47.2393 187.815C47.2393 187.811 47.2393 187.808 47.2393 187.804C47.2393 187.8 47.2393 187.796 47.2393 187.792C47.2393 187.789 47.2393 187.785 47.2393 187.781C47.2393 187.777 47.2393 187.773 47.2393 187.77C47.2394 187.766 47.2394 187.762 47.2394 187.758C47.2394 187.755 47.2394 187.751 47.2394 187.747C47.2394 187.743 47.2394 187.739 47.2394 187.736C47.2394 187.732 47.2394 187.728 47.2394 187.724C47.2394 187.721 47.2394 187.717 47.2394 187.713C47.2394 187.709 47.2394 187.705 47.2394 187.702C47.2395 187.698 47.2395 187.694 47.2395 187.69C47.2395 187.686 47.2395 187.683 47.2395 187.679C47.2395 187.675 47.2395 187.671 47.2395 187.667C47.2395 187.664 47.2395 187.66 47.2395 187.656C47.2395 187.652 47.2395 187.649 47.2395 187.645C47.2395 187.641 47.2395 187.637 47.2395 187.633C47.2396 187.63 47.2396 187.626 47.2396 187.622C47.2396 187.618 47.2396 187.614 47.2396 187.611C47.2396 187.607 47.2396 187.603 47.2396 187.599C47.2396 187.595 47.2396 187.592 47.2396 187.588C47.2396 187.584 47.2396 187.58 47.2396 187.577C47.2396 187.573 47.2396 187.569 47.2396 187.565C47.2397 187.561 47.2397 187.558 47.2397 187.554C47.2397 187.55 47.2397 187.546 47.2397 187.542C47.2397 187.539 47.2397 187.535 47.2397 187.531C47.2397 187.527 47.2397 187.524 47.2397 187.52C47.2397 187.516 47.2397 187.512 47.2397 187.508C47.2397 187.505 47.2397 187.501 47.2397 187.497C47.2397 187.493 47.2398 187.489 47.2398 187.486C47.2398 187.482 47.2398 187.478 47.2398 187.474C47.2398 187.47 47.2398 187.467 47.2398 187.463C47.2398 187.459 47.2398 187.455 47.2398 187.452C47.2398 187.448 47.2398 187.444 47.2398 187.44C47.2398 187.436 47.2398 187.433 47.2398 187.429C47.2398 187.425 47.2399 187.421 47.2399 187.418C47.2399 187.414 47.2399 187.41 47.2399 187.406C47.2399 187.402 47.2399 187.399 47.2399 187.395C47.2399 187.391 47.2399 187.387 47.2399 187.384C47.2399 187.38 47.2399 187.376 47.2399 187.372C47.2399 187.368 47.2399 187.365 47.2399 187.361C47.2399 187.357 47.24 187.353 47.24 187.35C47.24 187.346 47.24 187.342 47.24 187.338C47.24 187.334 47.24 187.331 47.24 187.327C47.24 187.323 47.24 187.319 47.24 187.316C47.24 187.312 47.24 187.308 47.24 187.304C47.24 187.301 47.24 187.297 47.24 187.293C47.24 187.289 47.24 187.285 47.2401 187.282C47.2401 187.278 47.2401 187.274 47.2401 187.27C47.2401 187.267 47.2401 187.263 47.2401 187.259C47.2401 187.255 47.2401 187.252 47.2401 187.248C47.2401 187.244 47.2401 187.24 47.2401 187.237C47.2401 187.233 47.2401 187.229 47.2401 187.225C47.2401 187.222 47.2401 187.218 47.2402 187.214C47.2402 187.21 47.2402 187.207 47.2402 187.203C47.2402 187.199 47.2402 187.195 47.2402 187.192C47.2402 187.188 47.2402 187.184 47.2402 187.18C47.2402 187.177 47.2402 187.173 47.2402 187.169C47.2402 187.165 47.2402 187.162 47.2402 187.158C47.2402 187.154 47.2402 187.15 47.2402 187.147C47.2403 187.143 47.2403 187.139 47.2403 187.135C47.2403 187.132 47.2403 187.128 47.2403 187.124C47.2403 187.12 47.2403 187.117 47.2403 187.113C47.2403 187.109 47.2403 187.106 47.2403 187.102C47.2403 187.098 47.2403 187.094 47.2403 187.091C47.2403 187.087 47.2403 187.083 47.2403 187.08C47.2404 187.076 47.2404 187.072 47.2404 187.068C47.2404 187.065 47.2404 187.061 47.2404 187.057C47.2404 187.054 47.2404 187.05 47.2404 187.046C47.2404 187.042 47.2404 187.039 47.2404 187.035C47.2404 187.031 47.2404 187.028 47.2404 187.024C47.2404 187.02 47.2404 187.016 47.2404 187.013C47.2404 187.009 47.2405 187.005 47.2405 187.002C47.2405 186.998 47.2405 186.994 47.2405 186.991C47.2405 186.987 47.2405 186.983 47.2405 186.979C47.2405 186.976 47.2405 186.972 47.2405 186.968C47.2405 186.965 47.2405 186.961 47.2405 186.957C47.2405 186.954 47.2405 186.95 47.2405 186.946C47.2405 186.943 47.2405 186.939 47.2406 186.935C47.2406 186.932 47.2406 186.928 47.2406 186.924C47.2406 186.921 47.2406 186.917 47.2406 186.913C47.2406 186.91 47.2406 186.906 47.2406 186.902C47.2406 186.899 47.2406 186.895 47.2406 186.891C47.2406 186.888 47.2406 186.884 47.2406 186.88C47.2406 186.877 47.2406 186.873 47.2406 186.869C47.2407 186.866 47.2407 186.862 47.2407 186.858C47.2407 186.855 47.2407 186.851 47.2407 186.847C47.2407 186.844 47.2407 186.84 47.2407 186.837C47.2407 186.833 47.2407 186.829 47.2407 186.826C47.2407 186.822 47.2407 186.818 47.2407 186.815C47.2407 186.811 47.2407 186.807 47.2407 186.804C47.2407 186.8 47.2408 186.797 47.2408 186.793C47.2408 186.789 47.2408 186.786 47.2408 186.782C47.2408 186.779 47.2408 186.775 47.2408 186.771C47.2408 186.768 47.2408 186.764 47.2408 186.761C47.2408 186.757 47.2408 186.753 47.2408 186.75C47.2408 186.746 47.2408 186.742 47.2408 186.739C47.2408 186.735 47.2408 186.732 47.2409 186.728C47.2409 186.725 47.2409 186.721 47.2409 186.717C47.2409 186.714 47.2409 186.71 47.2409 186.707C47.2409 186.703 47.2409 186.699 47.2409 186.696C47.2409 186.692 47.2409 186.689 47.2409 186.685C47.2409 186.682 47.2409 186.678 47.2409 186.674C47.2409 186.671 47.2409 186.667 47.2409 186.664C47.241 186.66 47.241 186.657 47.241 186.653C47.241 186.65 47.241 186.646 47.241 186.642C47.241 186.639 47.241 186.635 47.241 186.632C47.241 186.628 47.241 186.625 47.241 186.621C47.241 186.618 47.241 186.614 47.241 186.611C47.241 186.607 47.241 186.604 47.241 186.6C47.241 186.597 47.241 186.593 47.2411 186.59C47.2411 186.586 47.2411 186.582 47.2411 186.579C47.2411 186.575 47.2411 186.572 47.2411 186.568C47.2411 186.565 47.2411 186.561 47.2411 186.558C47.2411 186.554 47.2411 186.551 47.2411 186.547C47.2411 186.544 47.2411 186.54 47.2411 186.537C47.2411 186.534 47.2411 186.53 47.2411 186.527C47.2411 186.523 47.2412 186.52 47.2412 186.516C47.2412 186.513 47.2412 186.509 47.2412 186.506C47.2412 186.502 47.2412 186.499 47.2412 186.495C47.2412 186.492 47.2412 186.488 47.2412 186.485C47.2412 186.481 47.2412 186.478 47.2412 186.475C47.2412 186.471 47.2412 186.468 47.2412 186.464C47.2412 186.461 47.2412 186.457 47.2412 186.454C47.2413 186.451 47.2413 186.447 47.2413 186.444C47.2413 186.44 47.2413 186.437 47.2413 186.433C47.2413 186.43 47.2413 186.427 47.2413 186.423C47.2413 186.42 47.2413 186.416 47.2413 186.413C47.2413 186.41 47.2413 186.406 47.2413 186.403C47.2413 186.399 47.2413 186.396 47.2413 186.393C47.2413 186.389 47.2413 186.386 47.2414 186.382C47.2414 186.379 47.2414 186.376 47.2414 186.372C47.2414 186.369 47.2414 186.365 47.2414 186.362C47.2414 186.359 47.2414 186.355 47.2414 186.352C47.2414 186.349 47.2414 186.345 47.2414 186.342C47.2414 186.339 47.2414 186.335 47.2414 186.332C47.2414 186.329 47.2414 186.325 47.2414 186.322C47.2414 186.319 47.2414 186.315 47.2415 186.312C47.2415 186.309 47.2415 186.305 47.2415 186.302C47.2415 186.299 47.2415 186.295 47.2415 186.292C47.2415 186.289 47.2415 186.285 47.2415 186.282C47.2415 186.279 47.2415 186.275 47.2415 186.272C47.2415 186.269 47.2415 186.265 47.2415 186.262C47.2415 186.259 47.2415 186.256 47.2415 186.252C47.2415 186.249 47.2415 186.246 47.2416 186.242C47.2416 186.239 47.2416 186.236 47.2416 186.233C47.2416 186.229 47.2416 186.226 47.2416 186.223C47.2416 186.22 47.2416 186.216 47.2416 186.213C47.2416 186.21 47.2416 186.207 47.2416 186.203C47.2416 186.2 47.2416 186.197 47.2416 186.194C47.2416 186.19 47.2416 186.187 47.2416 186.184C47.2416 186.181 47.2416 186.178 47.2417 186.174C47.2417 186.171 47.2417 186.168 47.2417 186.165C47.2417 186.161 47.2417 186.158 47.2417 186.155C47.2417 186.152 47.2417 186.149 47.2417 186.145C47.2417 186.142 47.2417 186.139 47.2417 186.136C47.2417 186.133 47.2417 186.13 47.2417 186.126C47.2417 186.123 47.2417 186.12 47.2417 186.117C47.2417 186.114 47.2417 186.111 47.2417 186.107C47.2418 186.104 47.2418 186.101 47.2418 186.098C47.2418 186.095 47.2418 186.092 47.2418 186.089C47.2418 186.085 47.2418 186.082 47.2418 186.079C47.2418 186.076 47.2418 186.073 47.2418 186.07C47.2418 186.067 47.2418 186.064 47.2418 186.06C47.2418 186.057 47.2418 186.054 47.2418 186.051C47.2418 186.048 47.2418 186.045 47.2418 186.042C47.2418 186.039 47.2419 186.036 47.2419 186.033C47.2419 186.03 47.2419 186.026 47.2419 186.023C47.2419 186.02 47.2419 186.017 47.2419 186.014C47.2419 186.011 47.2419 186.008 47.2419 186.005C47.2419 186.002 47.2419 185.999 47.2419 185.996C47.2419 185.993 47.2419 185.99 47.2419 185.987C47.2419 185.984 47.2419 185.981 47.2419 185.978C47.2419 185.975 47.2419 185.972 47.2419 185.969C47.242 185.966 47.242 185.963 47.242 185.96C47.242 185.957 47.242 185.954 47.242 185.951C47.242 185.948 47.242 185.945 47.242 185.942C47.242 185.939 47.242 185.936 47.242 185.933C47.242 185.93 47.242 185.927 47.242 185.924C47.242 185.921 47.242 185.918 47.242 185.915C47.242 185.912 47.242 185.909 47.242 185.906C47.242 185.903 47.242 185.9 47.2421 185.898C47.2421 185.895 47.2421 185.892 47.2421 185.889C47.2421 185.886 47.2421 185.883 47.2421 185.88C47.2421 185.877 47.2421 185.874 47.2421 185.871C47.2421 185.868 47.2421 185.866 47.2421 185.863C47.2421 185.86 47.2421 185.857 47.2421 185.854C47.2421 185.851 47.2421 185.848 47.2421 185.845C47.2421 185.843 47.2421 185.84 47.2421 185.837C47.2421 185.834 47.2421 185.831 47.2421 185.828C47.2422 185.826 47.2422 185.823 47.2422 185.82C47.2422 185.817 47.2422 185.814 47.2422 185.811C47.2422 185.809 47.2422 185.806 47.2422 185.803L45.2422 185.8ZM46.2191 191.167L128.374 192.549L128.408 190.549L46.2527 189.167L46.2191 191.167ZM129.07 192.283L130.435 191.022L129.077 189.553L127.712 190.815L129.07 192.283Z" fill="black"/>
<path d="M171.804 167.049L129.246 187.23L129.24 191.55L171.796 172.356L171.804 167.049Z" fill="white" stroke="black" stroke-width="2"/>
<path d="M183.72 96.0397L183.721 88.1731L136.152 95.173L136.152 103.673L183.72 96.0397Z" fill="white" stroke="black" stroke-width="2" stroke-linejoin="bevel"/>
<path d="M137.154 95.1729L118.654 77.1729L90.1543 48.6729L140.654 46.6729L181.654 87.6729L137.154 95.1729Z" fill="white"/>
<path d="M136.374 103.796L131.165 103.78L131.17 97.5281L87.9227 54.3188L43.2002 95.8119L43.196 102.027L37.9871 102.011L37.992 94.6868C37.9925 93.9771 38.2851 93.3004 38.8004 92.814L86.1711 48.8181C87.1942 47.8503 88.8084 47.875 89.8079 48.8712L135.613 94.6365C136.1 95.1234 136.375 95.7847 136.374 96.4722L136.369 103.796L136.374 103.796Z" fill="white"/>
<path d="M136.358 97.3137C135.907 97.3123 135.509 96.9883 135.43 96.5298C135.341 96.0171 135.686 95.5327 136.201 95.4481L181.459 87.8367L140.095 47.2125L88.1147 48.9563C87.5998 48.967 87.1569 48.5665 87.1374 48.049C87.118 47.5316 87.5243 47.0967 88.0466 47.0786L140.436 45.3213C140.693 45.3122 140.948 45.4091 141.131 45.592L184.098 87.7907C184.35 88.0379 184.442 88.4052 184.338 88.7425C184.231 89.0797 183.946 89.3277 183.597 89.3857L136.524 97.3019C136.469 97.3116 136.417 97.3164 136.363 97.3162L136.358 97.3137Z" fill="black"/>
<path d="M149.632 39.7224L141.153 40.6756L140.171 54.6333C140.504 55.1337 141.67 56.3366 143.666 57.1449C145.663 57.9531 148.49 58.1673 149.653 58.1734L149.632 39.7224Z" fill="white"/>
<path d="M147.458 59.194C146.699 59.189 145.797 59.0869 144.78 58.7918C140.85 57.6592 139.744 55.7985 139.63 55.5907C139.556 55.4522 139.516 55.2991 139.516 55.1414L139.521 39.6885C139.521 39.1685 139.946 38.7523 140.466 38.7558C140.987 38.7592 141.411 39.1835 141.411 39.701L141.406 54.8532C141.726 55.2324 142.779 56.2598 145.294 56.9862C146.846 57.4352 148.019 57.3419 148.669 57.2106L148.674 39.7491C148.674 39.2291 149.099 38.8129 149.619 38.8163C150.14 38.8198 150.564 39.244 150.564 39.7616L150.558 57.9255C150.558 58.2977 150.34 58.6314 149.997 58.7795C149.94 58.8038 149.003 59.2018 147.455 59.1915L147.458 59.194Z" fill="black"/>
<path d="M149.621 39.7441C149.621 40.3594 147.576 40.8407 145.052 40.8172C142.527 40.7936 140.482 40.2742 140.482 39.6589C140.482 39.0436 142.527 38.5623 145.052 38.5858C147.577 38.6094 149.622 39.1288 149.621 39.7441Z" fill="black"/>
<path d="M145.052 41.7507C143.393 41.735 139.538 41.4979 139.539 39.6494C139.539 37.8009 143.394 37.6364 145.053 37.652C146.711 37.6677 150.566 37.9048 150.566 39.7533C150.565 41.6018 146.711 41.7663 145.052 41.7507ZM142.512 39.6774C143.146 39.7995 144.005 39.8972 145.052 39.907C146.099 39.9169 146.956 39.8354 147.592 39.7253C146.956 39.6032 146.097 39.5056 145.052 39.4957C144.007 39.4859 143.148 39.5673 142.512 39.6774Z" fill="black"/>
<path d="M38.3323 103.912C37.8893 103.91 37.4935 103.598 37.4071 103.151C37.3085 102.643 37.6454 102.154 38.1553 102.06L115.156 87.8003C115.666 87.7062 116.161 88.0388 116.259 88.5442C116.358 89.0521 116.021 89.5415 115.509 89.6356L38.508 103.895C38.4486 103.907 38.3867 103.912 38.3298 103.912L38.3323 103.912Z" fill="black"/>
<path d="M53.4773 94.9252C53.0318 94.9238 52.636 94.6087 52.5521 94.1571C52.4584 93.6491 52.7954 93.162 53.3102 93.0704L100.538 84.5649C101.053 84.4708 101.543 84.8108 101.636 85.3188C101.73 85.8268 101.391 86.3139 100.878 86.4055L53.6506 94.911C53.5936 94.9207 53.5342 94.9254 53.4773 94.9252Z" fill="black"/>
<path d="M136.353 104.737L131.145 104.726C130.623 104.725 130.203 104.302 130.203 103.784L130.209 97.9108L87.9029 55.5887L44.1414 96.2995L44.1357 102.118C44.1352 102.639 43.7115 103.058 43.1917 103.056L37.9837 103.045C37.4614 103.044 37.041 102.621 37.0415 102.103L37.0487 94.7663C37.0497 93.8035 37.4516 92.8713 38.1503 92.2087L85.534 48.0841C86.9338 46.7565 89.1121 46.7883 90.4845 48.1588L136.267 93.9615C136.938 94.6319 137.305 95.5189 137.305 96.4644L137.297 103.801C137.297 104.322 136.873 104.741 136.353 104.74L136.353 104.737ZM132.093 102.847L135.412 102.854L135.418 96.4579C135.419 96.0161 135.246 95.5985 134.934 95.2868L89.1515 49.4865C88.5086 48.8458 87.4912 48.8313 86.8322 49.4545L39.4485 93.579C39.1264 93.8845 38.9403 94.3185 38.9398 94.7703L38.9336 101.166L42.2529 101.173L42.2581 95.8882C42.2584 95.629 42.3676 95.3799 42.5583 95.2025L87.286 53.5928C87.6577 53.248 88.2394 53.2566 88.5979 53.6178L131.824 96.8601C131.999 97.0358 132.101 97.2779 132.1 97.5272L132.095 102.847L132.093 102.847Z" fill="black"/>
<path d="M80.6543 85.6729L61.6543 103.673L101.654 95.1729L89.1543 85.1729L80.6543 85.6729Z" fill="white"/>
</svg>
