<svg width="220" height="215" viewBox="0 0 220 215" fill="none" xmlns="http://www.w3.org/2000/svg">
<g clip-path="url(#clip0_1051_7364)">
<path d="M136.39 80.3444C154.639 80.3444 169.433 65.3361 169.433 46.8224C169.433 28.3086 154.639 13.3003 136.39 13.3003C118.141 13.3003 103.348 28.3086 103.348 46.8224C103.348 65.3361 118.141 80.3444 136.39 80.3444Z" fill="#EAEAEA"/>
<path d="M137.523 77.572C155.147 77.572 169.434 63.1136 169.434 45.2782C169.434 27.4428 155.147 12.9844 137.523 12.9844C119.9 12.9844 105.613 27.4428 105.613 45.2782C105.613 63.1136 119.9 77.572 137.523 77.572Z" fill="#E5E5E5"/>
<path d="M137.524 75.4849C154.008 75.4849 167.372 61.9609 167.372 45.2781C167.372 28.5953 154.008 15.0713 137.524 15.0713C121.039 15.0713 107.676 28.5953 107.676 45.2781C107.676 61.9609 121.039 75.4849 137.524 75.4849Z" fill="white"/>
<path d="M137.523 12.5498C119.69 12.5498 105.184 27.2318 105.184 45.2781C105.184 63.3245 119.691 78.0065 137.523 78.0065C155.355 78.0065 169.863 63.3245 169.863 45.2781C169.863 27.2318 155.355 12.5498 137.523 12.5498ZM137.523 77.1375C120.164 77.1375 106.043 62.8455 106.043 45.2781C106.043 27.7108 120.164 13.4188 137.523 13.4188C154.882 13.4188 169.003 27.7108 169.003 45.277C169.003 62.8432 154.881 77.1363 137.523 77.1363V77.1375Z" fill="black"/>
<path d="M137.523 14.6367C120.828 14.6367 107.246 28.3824 107.246 45.278C107.246 62.1736 120.828 75.9194 137.523 75.9194C154.218 75.9194 167.801 62.1736 167.801 45.278C167.801 28.3824 154.218 14.6367 137.523 14.6367ZM137.523 75.0492C121.302 75.0492 108.105 61.6935 108.105 45.2769C108.105 28.8603 121.302 15.5069 137.523 15.5069C153.745 15.5069 166.942 28.8626 166.942 45.278C166.942 61.6935 153.745 75.0503 137.523 75.0503V75.0492Z" fill="black"/>
<path d="M115.504 45.7128C115.742 45.7128 115.933 45.5177 115.933 45.2783C115.933 45.0388 115.741 44.8438 115.504 44.8438H109.074C108.836 44.8438 108.645 45.0388 108.645 45.2783C108.645 45.5177 108.837 45.7128 109.074 45.7128H115.504Z" fill="black"/>
<path d="M165.973 44.8438H159.543C159.305 44.8438 159.113 45.0388 159.113 45.2783C159.113 45.5177 159.306 45.7128 159.543 45.7128H165.973C166.21 45.7128 166.402 45.5177 166.402 45.2783C166.402 45.0388 166.209 44.8438 165.973 44.8438Z" fill="black"/>
<path d="M137.524 23.4296C137.762 23.4296 137.953 23.2346 137.953 22.9951V16.4877C137.953 16.2471 137.76 16.0532 137.524 16.0532C137.287 16.0532 137.094 16.2482 137.094 16.4877V22.9951C137.094 23.2357 137.287 23.4296 137.524 23.4296Z" fill="black"/>
<path d="M137.524 67.1267C137.286 67.1267 137.094 67.3217 137.094 67.5612V74.0686C137.094 74.3092 137.287 74.5031 137.524 74.5031C137.76 74.5031 137.953 74.3081 137.953 74.0686V67.5612C137.953 67.3206 137.76 67.1267 137.524 67.1267Z" fill="black"/>
<path d="M153.458 62.854C153.292 62.6807 153.02 62.6778 152.851 62.845C152.68 63.0125 152.676 63.2875 152.842 63.4596L155.972 66.7246C156.083 66.8401 156.242 66.88 156.385 66.8438C156.456 66.8259 156.524 66.7889 156.58 66.7336C156.75 66.5661 156.754 66.2912 156.589 66.119L153.458 62.854Z" fill="black"/>
<path d="M120.927 63.234C121.099 63.0662 121.102 62.7904 120.936 62.6194C120.771 62.4472 120.499 62.4429 120.329 62.6104L117.103 65.7787C116.989 65.8909 116.949 66.0513 116.985 66.1963C117.003 66.2682 117.039 66.3366 117.094 66.3933C117.259 66.5654 117.531 66.5698 117.701 66.4023L120.927 63.234Z" fill="black"/>
<path d="M118.038 26.4421C117.872 26.2689 117.6 26.2659 117.431 26.4332C117.261 26.6007 117.256 26.8756 117.422 27.0478L120.552 30.3128C120.663 30.4282 120.822 30.4681 120.965 30.432C121.036 30.414 121.104 30.377 121.16 30.3217C121.33 30.1542 121.334 29.8793 121.169 29.7071L118.038 26.4421Z" fill="black"/>
<path d="M157.185 26.1617C157.356 25.9939 157.359 25.7181 157.194 25.5471C157.029 25.375 156.757 25.3706 156.587 25.5381L153.361 28.7064C153.247 28.8187 153.207 28.9791 153.243 29.124C153.261 29.1959 153.297 29.2643 153.352 29.321C153.517 29.4932 153.789 29.4975 153.959 29.33L157.185 26.1617Z" fill="black"/>
<path d="M138.828 43.1523L137.214 42.7384L136.913 44.124L134.897 45.0044L136.089 47.3879L136.219 47.3115L131.498 69.0004L137.938 46.292L154.731 36.3394L138.785 43.3063L138.828 43.1523Z" fill="black"/>
<path d="M138.299 45.2279C138.299 45.7399 137.888 46.1562 137.382 46.1562C136.876 46.1562 136.465 45.7399 136.465 45.2279C136.465 44.7158 136.875 44.2996 137.382 44.2996C137.889 44.2996 138.299 44.7147 138.299 45.2279Z" fill="#E5E5E5"/>
</g>
<g clip-path="url(#clip1_1051_7364)">
<path d="M184.804 165.29H19.5939C19.142 165.29 18.7377 164.996 18.5967 164.564C10.9029 140.844 10.7534 117.339 18.5916 94.0627C18.7343 93.6369 19.1369 93.3479 19.5837 93.3479H184.802C185.247 93.3479 185.645 93.6301 185.789 94.0525C192.55 113.902 194.529 139.112 185.793 164.581C185.648 165.003 185.247 165.29 184.802 165.29H184.804Z" fill="white"/>
<path d="M24.3652 142.989L27.5012 155.444L159.928 155.531L163.686 142.989H24.3652Z" fill="#E5E5E5"/>
<path d="M183.672 107.834H149.032C148.458 107.834 147.994 107.366 147.994 106.79V99.3403C147.994 98.7623 148.458 98.2954 149.032 98.2954H182.862C183.392 98.2954 183.835 98.6973 183.893 99.2274L184.703 106.677C184.771 107.296 184.289 107.836 183.67 107.836L183.672 107.834Z" fill="#EAEAEA"/>
<path d="M169.938 143.786L167.67 153.602C167.519 154.257 168.013 154.885 168.681 154.885H182.587C183.071 154.885 183.491 154.548 183.599 154.072L185.83 144.256C185.978 143.601 185.483 142.979 184.817 142.979H170.949C170.466 142.979 170.047 143.314 169.938 143.788V143.786Z" fill="#EAEAEA"/>
<path d="M184.806 165.97H19.5956C18.8481 165.97 18.189 165.489 17.958 164.774C10.181 140.798 10.181 116.936 17.9563 93.844C18.1941 93.1412 18.8481 92.6675 19.5871 92.6675H184.806C185.541 92.6675 186.195 93.136 186.431 93.8321C194.254 116.799 194.256 142.002 186.433 164.802C186.194 165.499 185.54 165.968 184.806 165.968V165.97ZM19.5854 94.0287C19.4274 94.0287 19.283 94.133 19.2321 94.2818C11.5536 117.088 11.5553 140.663 19.2389 164.354C19.2881 164.506 19.4342 164.612 19.5939 164.612H184.804C184.96 164.612 185.105 164.509 185.156 164.36C192.88 141.845 192.878 116.956 185.152 94.275C185.103 94.1279 184.962 94.0287 184.802 94.0287H19.5854Z" fill="black"/>
<path d="M191.628 135.548H12.9381C12.5661 135.548 12.2637 135.244 12.2637 134.869C12.2637 134.495 12.5661 134.19 12.9381 134.19H191.626C192 134.19 192.301 134.495 192.301 134.869C192.301 135.244 191.998 135.548 191.626 135.548H191.628Z" fill="black"/>
<path d="M159.927 156.212L27.5018 156.124C27.1927 156.124 26.9243 155.912 26.8478 155.611L23.7102 143.155C23.6592 142.951 23.7034 142.736 23.8308 142.57C23.9582 142.404 24.1552 142.308 24.3642 142.308H163.685C163.899 142.308 164.099 142.411 164.227 142.582C164.354 142.755 164.393 142.977 164.33 143.184L160.573 155.726C160.486 156.013 160.224 156.21 159.927 156.21V156.212ZM28.0268 154.766L159.426 154.852L162.778 143.668H25.2306L28.0251 154.765L28.0268 154.766Z" fill="black"/>
<path d="M186.526 161.906H18.3229C17.9491 161.906 17.6484 161.602 17.6484 161.227C17.6484 160.853 17.9508 160.548 18.3229 160.548H186.526C186.9 160.548 187.201 160.853 187.201 161.227C187.201 161.602 186.898 161.906 186.526 161.906Z" fill="black"/>
<path d="M183.672 108.513H149.03C148.086 108.513 147.316 107.74 147.316 106.789V99.3402C147.316 98.3894 148.084 97.6147 149.03 97.6147H182.86C183.735 97.6147 184.467 98.2748 184.564 99.1521L185.374 106.601C185.427 107.087 185.272 107.574 184.948 107.94C184.623 108.305 184.158 108.515 183.672 108.515V108.513ZM149.03 98.9743C148.83 98.9743 148.667 99.1385 148.667 99.3402V106.789C148.667 106.991 148.83 107.155 149.03 107.155H183.672C183.813 107.155 183.903 107.078 183.942 107.034C183.981 106.988 184.047 106.892 184.032 106.75L183.222 99.3009C183.202 99.1145 183.047 98.9743 182.86 98.9743H149.03Z" fill="black"/>
<path d="M182.586 155.563H168.68C168.155 155.563 167.666 155.326 167.338 154.91C167.012 154.496 166.893 153.963 167.012 153.446L169.28 143.63C169.462 142.845 170.148 142.296 170.948 142.296H184.817C185.342 142.296 185.829 142.534 186.157 142.946C186.483 143.36 186.604 143.89 186.487 144.405L184.256 154.221C184.078 155.009 183.39 155.562 182.586 155.562V155.563ZM170.948 143.656C170.778 143.656 170.632 143.772 170.595 143.938L168.327 153.754C168.293 153.905 168.356 154.012 168.396 154.065C168.437 154.117 168.527 154.204 168.68 154.204H182.586C182.756 154.204 182.902 154.088 182.94 153.92L185.17 144.104C185.204 143.955 185.141 143.846 185.101 143.794C185.06 143.743 184.97 143.656 184.817 143.656H170.948Z" fill="black"/>
<path d="M159.401 146.245H27.5006C27.1269 146.245 26.8262 145.941 26.8262 145.566C26.8262 145.192 27.1286 144.887 27.5006 144.887H159.399C159.773 144.887 160.074 145.192 160.074 145.566C160.074 145.941 159.771 146.245 159.399 146.245H159.401Z" fill="black"/>
<path d="M158.751 148.624H28.2486C27.8766 148.624 27.5742 148.319 27.5742 147.945C27.5742 147.57 27.8766 147.266 28.2486 147.266H158.751C159.125 147.266 159.425 147.57 159.425 147.945C159.425 148.319 159.123 148.624 158.751 148.624Z" fill="black"/>
<path d="M158.102 151.004H28.9967C28.6246 151.004 28.3223 150.7 28.3223 150.325C28.3223 149.951 28.6246 149.646 28.9967 149.646H158.102C158.476 149.646 158.777 149.951 158.777 150.325C158.777 150.7 158.474 151.004 158.102 151.004Z" fill="black"/>
<path d="M157.456 153.385H29.7447C29.371 153.385 29.0703 153.08 29.0703 152.706C29.0703 152.331 29.3727 152.027 29.7447 152.027H157.456C157.83 152.027 158.13 152.331 158.13 152.706C158.13 153.08 157.828 153.385 157.456 153.385Z" fill="black"/>
<path d="M33.7564 196.825C33.6868 196.825 33.6137 196.813 33.5441 196.791C33.1907 196.673 32.9988 196.288 33.116 195.932C33.33 195.284 33.0735 194.566 32.8034 193.803C32.5163 192.996 32.1902 192.083 32.4144 191.129C32.6641 190.06 33.505 189.393 34.2457 188.806C34.8199 188.351 35.3635 187.92 35.5605 187.383C35.8188 186.682 35.5809 185.947 35.304 185.097C35.0441 184.297 34.7757 183.469 34.898 182.561C35.0526 181.431 35.7661 180.765 36.4575 180.122C37.0945 179.531 37.6959 178.97 37.9287 178.01C38.1019 177.29 37.8947 176.596 37.6738 175.862C37.3103 174.652 36.8584 173.145 38.581 171.746C38.8715 171.51 39.2962 171.556 39.5306 171.849C39.765 172.141 39.7192 172.569 39.4287 172.805C38.457 173.595 38.5929 174.228 38.9666 175.471C39.218 176.307 39.5017 177.254 39.2418 178.334C38.9139 179.691 38.0612 180.485 37.3765 181.123C36.7905 181.668 36.3267 182.099 36.2384 182.747C36.1568 183.348 36.3675 183.994 36.5883 184.678C36.8975 185.632 37.2491 186.713 36.8278 187.857C36.4983 188.753 35.7457 189.35 35.0815 189.875C34.4597 190.369 33.872 190.834 33.7293 191.442C33.5968 192.004 33.8295 192.656 34.0741 193.345C34.3952 194.246 34.7587 195.269 34.3986 196.362C34.3051 196.647 34.0401 196.827 33.7581 196.827L33.7564 196.825Z" fill="black"/>
<path d="M54.8558 201.846C54.7607 201.846 54.6639 201.825 54.5721 201.783C54.2341 201.624 54.088 201.22 54.2443 200.88C54.6673 199.963 55.4198 199.399 56.1452 198.855C56.8825 198.303 57.5195 197.824 57.7557 197.051C57.9561 196.399 57.6843 195.684 57.3955 194.929C57.0914 194.128 56.7449 193.222 56.9487 192.264C57.1747 191.19 58.0003 190.506 58.7291 189.903C59.2931 189.434 59.8265 188.993 60.0116 188.451C60.2546 187.743 59.9998 187.014 59.7059 186.171C59.429 185.376 59.1419 184.555 59.2455 183.644C59.3746 182.51 60.0745 181.829 60.7506 181.172C61.3741 180.567 61.9635 179.994 62.1742 179.028C62.3322 178.305 62.1096 177.615 61.8718 176.885C61.4811 175.683 60.9969 174.187 62.6889 172.75C62.9743 172.507 63.4007 172.545 63.6402 172.832C63.8798 173.12 63.8441 173.547 63.5604 173.79C62.6057 174.6 62.7552 175.23 63.1561 176.466C63.4245 177.297 63.7303 178.238 63.4942 179.322C63.1952 180.687 62.3611 181.499 61.69 182.151C61.1159 182.71 60.6623 183.149 60.5875 183.799C60.5196 184.401 60.7438 185.042 60.98 185.721C61.3112 186.669 61.6849 187.741 61.2891 188.895C60.98 189.798 60.241 190.412 59.5886 190.953C58.9771 191.459 58.3995 191.939 58.2704 192.55C58.1498 193.114 58.3961 193.761 58.6577 194.445C58.9992 195.339 59.3848 196.353 59.0484 197.453C58.6815 198.65 57.7642 199.339 56.9538 199.946C56.3355 200.411 55.7494 200.849 55.4691 201.454C55.3553 201.702 55.1107 201.848 54.8575 201.848L54.8558 201.846Z" fill="black"/>
<path d="M153.033 197.258C152.714 197.258 152.43 197.029 152.37 196.702C152.248 196.032 151.677 195.525 151.074 194.99C150.436 194.424 149.714 193.781 149.452 192.839C149.158 191.78 149.574 190.79 149.941 189.915C150.225 189.236 150.495 188.596 150.41 188.03C150.3 187.291 149.737 186.763 149.088 186.152C148.477 185.578 147.845 184.984 147.517 184.128C147.109 183.062 147.415 182.134 147.712 181.236C147.986 180.408 148.244 179.625 147.986 178.671C147.794 177.956 147.278 177.45 146.731 176.913C145.832 176.03 144.712 174.931 145.548 172.866C145.689 172.519 146.083 172.353 146.428 172.494C146.773 172.636 146.939 173.032 146.798 173.379C146.326 174.544 146.749 175.031 147.673 175.938C148.295 176.548 148.998 177.239 149.287 178.311C149.651 179.661 149.285 180.769 148.992 181.66C148.74 182.423 148.541 183.024 148.776 183.635C148.992 184.199 149.486 184.664 150.009 185.155C150.738 185.839 151.564 186.616 151.745 187.823C151.886 188.769 151.514 189.656 151.186 190.44C150.877 191.175 150.587 191.867 150.753 192.469C150.908 193.025 151.423 193.484 151.968 193.967C152.681 194.6 153.49 195.318 153.699 196.452C153.767 196.822 153.524 197.176 153.159 197.244C153.118 197.251 153.075 197.256 153.035 197.256L153.033 197.258Z" fill="black"/>
<path d="M178.862 201.042C178.536 201.042 178.248 200.803 178.196 200.468C178.04 199.469 178.352 198.58 178.655 197.719C178.96 196.847 179.225 196.093 178.993 195.318C178.797 194.665 178.177 194.224 177.518 193.759C176.822 193.266 176.033 192.707 175.671 191.797C175.265 190.778 175.571 189.747 175.841 188.837C176.05 188.131 176.249 187.466 176.103 186.911C175.913 186.188 175.298 185.726 174.586 185.191C173.917 184.687 173.223 184.165 172.804 183.351C172.284 182.337 172.488 181.379 172.685 180.454C172.867 179.601 173.038 178.795 172.68 177.875C172.411 177.186 171.844 176.74 171.243 176.266C170.254 175.486 169.022 174.517 169.631 172.374C169.732 172.013 170.106 171.804 170.465 171.907C170.823 172.01 171.03 172.386 170.928 172.747C170.585 173.956 171.058 174.393 172.075 175.196C172.758 175.734 173.533 176.345 173.937 177.378C174.445 178.679 174.2 179.821 174.005 180.738C173.837 181.525 173.704 182.145 174.003 182.725C174.28 183.262 174.82 183.671 175.395 184.102C176.193 184.702 177.097 185.383 177.408 186.564C177.651 187.488 177.377 188.411 177.134 189.227C176.908 189.991 176.692 190.713 176.923 191.293C177.136 191.828 177.698 192.226 178.294 192.649C179.072 193.201 179.954 193.825 180.284 194.928C180.642 196.129 180.262 197.215 179.925 198.174C179.669 198.908 179.426 199.599 179.528 200.259C179.585 200.63 179.334 200.977 178.965 201.035C178.93 201.04 178.894 201.044 178.86 201.044L178.862 201.042Z" fill="black"/>
<path d="M199.319 76.5971L199.281 76.4936C198.961 75.6118 198.549 73.6743 198.222 72.003C198.201 71.8971 198.181 71.7921 198.161 71.6882C198.134 71.8511 198.106 72.0168 198.078 72.184C197.786 73.9328 197.443 75.8904 197.259 76.5888M199.319 76.5971L197.259 76.5888M199.319 76.5971L199.331 76.6089C199.548 77.0654 200.022 77.3909 200.47 77.6236C200.983 77.8906 201.602 78.106 202.184 78.2738C202.196 78.2773 202.209 78.2809 202.221 78.2844C202.203 78.2896 202.185 78.2949 202.167 78.3003C201.585 78.4707 200.969 78.692 200.468 78.9713C199.999 79.2332 199.49 79.6232 199.366 80.1925L199.366 80.1934C199.206 80.9354 198.839 83.0393 198.515 84.9415C198.474 85.1778 198.435 85.4112 198.396 85.639M199.319 76.5971L193.345 78.6093C194.651 78.9089 196.508 79.4683 196.797 80.2732C197.116 81.163 197.78 84.9672 198.144 87.1337C198.217 86.6947 198.304 86.1832 198.396 85.639M197.259 76.5888C197.184 76.8706 197.003 77.0931 196.812 77.2629C196.618 77.4352 196.379 77.5832 196.128 77.7111C195.626 77.9667 195.007 78.1759 194.422 78.3405C194.405 78.3453 194.388 78.3502 194.37 78.355M197.259 76.5888L194.37 78.355M198.396 85.639C198.351 85.3826 198.305 85.1191 198.258 84.8525C198.086 83.8815 197.9 82.868 197.728 82.0168C197.558 81.1809 197.395 80.4609 197.268 80.1046L197.268 80.1041C197.172 79.8367 196.988 79.6208 196.789 79.4494C196.587 79.2761 196.345 79.1261 196.09 78.9956C195.58 78.7348 194.964 78.5237 194.384 78.3588C194.379 78.3575 194.375 78.3562 194.37 78.355M198.396 85.639L194.37 78.355" fill="white" stroke="black"/>
<path d="M199.652 158.585C199.509 157.742 197.78 156.859 196.546 156.331L199.652 158.585ZM199.652 158.585C199.809 159.517 199.793 163.381 199.77 165.578L199.652 158.585ZM202.763 155.31L202.834 155.725H202.908C203.095 156.083 203.416 156.387 203.732 156.632C204.19 156.986 204.762 157.308 205.305 157.577C205.316 157.583 205.328 157.589 205.339 157.594C205.321 157.596 205.303 157.598 205.286 157.6C204.684 157.664 204.037 157.771 203.496 157.957C202.987 158.131 202.417 158.425 202.195 158.964L202.195 158.965C201.907 159.667 201.175 161.672 200.521 163.486C200.439 163.712 200.359 163.934 200.281 164.152C200.282 163.891 200.284 163.623 200.284 163.351C200.286 162.365 200.281 161.334 200.261 160.466C200.242 159.613 200.208 158.875 200.145 158.502L200.145 158.502C200.098 158.222 199.955 157.977 199.789 157.773C199.622 157.567 199.41 157.376 199.182 157.202C198.726 156.855 198.157 156.537 197.616 156.271C197.611 156.268 197.606 156.266 197.601 156.264C197.619 156.262 197.637 156.26 197.655 156.259C198.26 156.201 198.905 156.106 199.445 155.944C199.714 155.863 199.975 155.76 200.197 155.625C200.416 155.492 200.633 155.305 200.756 155.041L200.756 155.04C201.06 154.386 201.742 152.521 202.338 150.852C202.395 150.693 202.451 150.535 202.507 150.38C202.508 150.486 202.51 150.593 202.511 150.702C202.538 152.405 202.602 154.385 202.763 155.31ZM202.494 148.914C201.833 150.797 200.705 153.964 200.303 154.83L202.494 148.914Z" fill="white" stroke="black"/>
</g>
<g clip-path="url(#clip2_1051_7364)">
<path d="M65.9306 94.5048C63.4942 98.737 58.9667 101.367 54.1145 101.367H53.9865C49.1394 101.367 44.6113 98.7393 42.1704 94.511C40.965 92.4195 40.3281 90.0292 40.3281 87.5998C40.3281 86.9941 40.395 86.393 40.5275 85.8077C44.4276 85.634 48.5496 85.5383 52.7885 85.5236C53.1839 85.5207 53.5832 85.5208 53.982 85.5208H53.9859C54.4745 85.5208 54.9604 85.5207 55.444 85.5236C59.6154 85.5411 63.6936 85.6385 67.5723 85.8134C67.706 86.3992 67.7712 86.9868 67.7712 87.5992C67.7712 90.0303 67.1348 92.4178 65.9301 94.5048H65.9306Z" fill="white"/>
<path d="M46.6645 90.6451C46.7599 90.3519 47.2604 90.2121 47.9001 90.0955C48.0416 89.637 48.2315 89.14 48.5241 88.3764L48.728 87.8444C49.0369 87.0349 49.5677 85.8395 50.0355 84.785C50.4714 83.8035 50.8831 82.8763 51.0375 82.4376C51.5542 80.971 52.3945 77.3592 52.8584 74.0773C52.8663 74.0241 52.9174 73.989 52.9735 73.9987C53.0297 74.0083 53.069 74.0587 53.0617 74.1113C52.5961 77.4039 51.7491 81.0316 51.2324 82.5061C51.0757 82.9516 50.6629 83.8821 50.2254 84.867C49.7581 85.9199 49.2284 87.113 48.9212 87.9179L48.7173 88.45C48.4477 89.1536 48.2669 89.6291 48.1293 90.0558C48.2315 90.0383 48.3365 90.0213 48.4432 90.0043C48.8751 89.9341 49.3222 89.8617 49.6671 89.7581C49.931 89.6789 50.186 89.5583 50.4073 89.4213C50.145 89.0206 50.0041 88.6221 50.1327 88.3793C50.2023 88.2485 50.3792 88.1093 50.8258 88.1902C51.2273 88.2627 51.3296 88.4483 51.3442 88.591C51.3723 88.8632 51.0836 89.1989 50.6859 89.4774C50.814 89.6517 50.9679 89.8289 51.1403 89.9953C51.2504 90.1017 51.4368 90.2308 51.634 90.3677C51.8289 90.503 52.0311 90.6434 52.1805 90.7764C52.2529 90.8409 52.3243 90.9094 52.3922 90.9813C52.5001 90.9207 52.6124 90.8658 52.7242 90.8189C53.1886 90.6224 53.6975 90.3802 54.0216 90.2024C54.2002 90.104 54.3721 89.9874 54.5254 89.8628C54.299 89.4434 54.2249 89.0059 54.3777 88.7619C54.449 88.6481 54.6343 88.4783 55.073 88.6187C55.2932 88.6894 55.3572 88.8293 55.3718 88.9345C55.4122 89.2159 55.1488 89.5877 54.7821 89.9121C54.8736 90.0564 54.9865 90.1979 55.1191 90.3247C55.1668 90.3706 55.2235 90.4255 55.2864 90.4872C55.6021 90.7951 56.0789 91.2604 56.4614 91.5162C56.6108 91.6158 56.767 91.7279 56.9102 91.8462C57.0523 91.7483 57.1871 91.6639 57.2882 91.6034C57.6656 91.3764 58.3418 90.8749 58.4907 90.734C58.5862 90.6434 58.6732 90.5494 58.749 90.456C58.3115 90.1543 57.9959 89.8074 58.0436 89.5351C58.0661 89.4094 58.175 89.2543 58.5699 89.2334C59.0113 89.2096 59.1866 89.3698 59.2562 89.5079C59.3781 89.7508 59.2596 90.0904 59.0372 90.4124C59.1692 90.4945 59.3146 90.5743 59.4719 90.6485C59.7173 90.7645 60.0768 90.859 60.425 90.9502C60.4812 90.9649 60.5373 90.9796 60.593 90.9943C60.53 90.7843 60.4626 90.5466 60.3868 90.2817L60.3806 90.2596C60.3245 90.0626 60.2256 89.7626 60.1307 89.4723C60.0465 89.2164 59.9594 88.9515 59.8971 88.7449C59.6819 88.0312 59.2804 87.0638 58.8558 86.0398C58.307 84.7176 57.7392 83.3501 57.4735 82.3006C57.2764 81.5218 56.7984 79.3607 56.6636 78.0118C56.6586 77.9586 56.6996 77.9128 56.7557 77.9099C56.8119 77.9071 56.8619 77.9484 56.8675 78.0022C56.9939 79.2662 57.4539 81.4012 57.6723 82.2633C57.9346 83.2997 58.4997 84.6599 59.0462 85.9759C59.473 87.0044 59.8763 87.9757 60.0942 88.6996C60.1554 88.9034 60.2425 89.1672 60.3262 89.4219C60.4267 89.7275 60.5216 90.0162 60.5789 90.2166L60.5851 90.2387C60.6682 90.5302 60.748 90.8092 60.8238 91.0572C61.2815 91.1873 61.6618 91.3334 61.7618 91.5739C61.8117 91.6934 61.7893 91.8207 61.6955 91.9532C61.5966 92.093 61.4422 92.2753 61.2501 92.2385C61.0204 92.1949 60.8631 91.8592 60.6604 91.2111C60.5666 91.1856 60.4722 91.1607 60.3801 91.1364C60.0223 91.0424 59.6522 90.9456 59.3882 90.8206C59.2287 90.7453 59.0709 90.6592 58.922 90.567C58.8355 90.6745 58.7395 90.7781 58.639 90.8732C58.4811 91.0226 57.7982 91.5309 57.4039 91.7675C57.2803 91.8417 57.1685 91.9136 57.068 91.982C57.3168 92.2141 57.4876 92.457 57.4359 92.6602C57.3893 92.843 57.1742 92.9505 56.7978 92.9754C56.5563 92.9913 56.2255 92.9885 56.1458 92.7796C56.0576 92.5487 56.3929 92.226 56.7473 91.9622C56.6366 91.8734 56.5052 91.7766 56.3496 91.673C55.9503 91.4064 55.465 90.9326 55.1438 90.619C55.0809 90.5579 55.0247 90.503 54.9775 90.4577C54.8455 90.3315 54.7287 90.1883 54.6304 90.0383C54.4715 90.1634 54.3007 90.2777 54.13 90.3717C53.8009 90.5523 53.2847 90.7979 52.8146 90.9972C52.7152 91.039 52.6197 91.086 52.5298 91.1353C52.8129 91.4743 52.9949 91.8445 52.8691 92.076C52.8011 92.2017 52.6197 92.3279 52.1412 92.2158C51.7682 92.1287 51.6694 91.96 51.6525 91.8337C51.6183 91.583 51.8777 91.3073 52.2215 91.0838C52.167 91.0277 52.108 90.9711 52.0446 90.9145C51.9047 90.79 51.7081 90.6536 51.5183 90.5217C51.3138 90.3796 51.1201 90.2455 50.9976 90.1272C50.8269 89.9625 50.6623 89.7757 50.5219 89.5843C50.2742 89.7372 49.9984 89.8645 49.7367 89.9432C49.3795 90.0508 48.9257 90.1238 48.487 90.1951C48.3483 90.2177 48.2056 90.2409 48.0658 90.2653C48.004 90.4758 47.9523 90.6824 47.9052 90.9072C47.7962 91.4302 47.4598 91.4477 47.3199 91.4313C46.9925 91.3934 46.6605 91.0634 46.6487 90.7651C46.647 90.7221 46.6527 90.6819 46.665 90.644L46.6645 90.6451ZM47.8378 90.3077C47.2958 90.413 46.8447 90.5483 46.8526 90.7679C46.8605 90.9706 47.1082 91.2128 47.3351 91.2394C47.5687 91.2666 47.6636 91.0504 47.703 90.8624C47.7434 90.6683 47.7872 90.4883 47.8378 90.3077ZM51.1251 88.7081C51.1375 88.6696 51.1425 88.634 51.1392 88.6023C51.1279 88.4953 51.0117 88.4211 50.7943 88.3815C50.6151 88.3493 50.386 88.3385 50.3147 88.4738C50.2298 88.6317 50.3382 88.9566 50.5702 89.3132C50.8606 89.1072 51.0684 88.8808 51.1251 88.7087V88.7081ZM52.3585 91.2366C52.0434 91.4404 51.8345 91.6696 51.8542 91.8179C51.8693 91.9317 52.0401 91.9945 52.1805 92.0273C52.4506 92.0907 52.6343 92.0738 52.6843 91.9815C52.7522 91.8575 52.6388 91.5677 52.358 91.2366H52.3585ZM55.1488 89.106C55.1674 89.0489 55.1747 88.9974 55.1679 88.9521C55.1617 88.9068 55.1387 88.8423 55.014 88.8027C54.7821 88.7279 54.627 88.7494 54.5535 88.8666C54.4496 89.0319 54.4984 89.3755 54.6782 89.7304C54.9157 89.5125 55.0904 89.2855 55.1488 89.106ZM56.9029 92.0975C56.476 92.4117 56.3053 92.6432 56.3356 92.7202C56.3474 92.7507 56.4536 92.8028 56.7731 92.7813C57.0472 92.7632 57.2118 92.6969 57.2354 92.6064C57.2584 92.5169 57.1725 92.3432 56.9034 92.0975H56.9029ZM59.0636 89.9155C59.1074 89.7819 59.1124 89.6664 59.0709 89.5843C58.9967 89.4366 58.7681 89.4168 58.589 89.4264C58.4688 89.4326 58.2655 89.4587 58.2441 89.5747C58.2177 89.7253 58.4542 90.014 58.8642 90.2992C58.9568 90.164 59.0254 90.0326 59.0636 89.9155ZM61.5708 91.7466C61.5899 91.6872 61.5759 91.6526 61.5697 91.6379C61.5107 91.4958 61.2271 91.3798 60.8912 91.2779C61.0355 91.7222 61.1653 92.0262 61.2793 92.0477C61.299 92.0517 61.3742 92.0477 61.5214 91.8394C61.5466 91.8032 61.5618 91.7726 61.5708 91.746V91.7466Z" fill="#342F3D" stroke="black" stroke-miterlimit="10" stroke-linejoin="round"/>
<path d="M86.4369 92.4834C81.6657 93.286 74.9292 93.9041 67.3867 94.2347C68.3825 92.1987 68.906 89.9436 68.906 87.6523C68.906 87.0602 68.8487 86.4886 68.7397 85.9214C76.0682 86.278 82.3436 86.8887 86.9188 87.6931C93.7986 88.9027 93.8789 90.0359 93.8789 90.0472C93.8789 90.0585 93.7935 91.2449 86.4369 92.4828V92.4834Z" fill="white"/>
<path d="M21.6023 92.4897C14.2065 91.2496 14.1211 90.0598 14.1211 90.0479C14.1211 90.036 14.2008 88.8994 21.1193 87.6875C25.7193 86.8815 32.0255 86.2713 39.3888 85.9153C39.2799 86.4858 39.2215 87.0672 39.2215 87.6524C39.2215 89.9426 39.7449 92.2005 40.7424 94.241C33.1668 93.9116 26.3989 93.2935 21.6029 92.4892L21.6023 92.4897Z" fill="white"/>
<path d="M95 89.4275C95 75.4024 83.5844 63.4398 67.6878 58.9925C66.7375 52.4435 61.2541 47.36 54.5608 47.0894V13.1147C54.5608 12.8028 54.3103 12.5498 54.0008 12.5498C53.6914 12.5498 53.4403 12.8028 53.4403 13.1147V47.09C46.7471 47.3606 41.2636 52.4435 40.3133 58.9931C24.4156 63.4398 13 75.4024 13 89.4275C13 89.513 13.0202 89.5928 13.0539 89.6652C13.0146 89.7971 13 89.925 13 90.0479C13 91.0463 13.9571 92.3533 21.4181 93.6042C26.4741 94.4521 33.3707 95.0714 41.3748 95.3991C44.0506 99.817 48.8583 102.549 53.9997 102.549H54.1278C59.2748 102.549 64.0831 99.8136 66.7532 95.3923C74.7242 95.0635 81.5905 94.4437 86.6218 93.5974C94.0474 92.3476 94.9994 91.0435 94.9994 90.0473C94.9994 89.9245 94.9848 89.7971 94.9455 89.6652C94.9792 89.5928 95 89.513 95 89.4275ZM53.9997 48.2051C60.2161 48.2051 65.4013 52.726 66.4977 58.6755C62.5554 57.6799 58.3565 57.1399 54.0003 57.1399C49.6441 57.1399 45.4446 57.6799 41.5023 58.6755C42.5981 52.7254 47.7828 48.2051 53.9997 48.2051ZM53.9997 58.2697C75.5987 58.2697 93.2403 71.7554 93.8598 88.5156C92.8034 87.893 90.8112 87.2313 87.111 86.5809C82.3358 85.7415 75.7448 85.1109 68.0518 84.7577C64.0343 84.5698 59.7988 84.4651 55.4634 84.447C54.581 84.4413 53.6768 84.4402 52.7955 84.447C51.6947 84.4509 50.6017 84.46 49.5183 84.4747C46.268 84.5189 43.103 84.6111 40.0752 84.7515C32.3479 85.1036 25.726 85.7341 20.9272 86.5747C17.2034 87.2268 15.2006 87.8907 14.1402 88.5156C14.7602 71.7554 32.4013 58.2697 53.9997 58.2697ZM21.6023 92.4897C14.2064 91.2495 14.1211 90.0597 14.1211 90.0479C14.1211 90.036 14.2008 88.8994 21.1193 87.6875C25.7192 86.8815 32.0255 86.2713 39.3888 85.9153C39.2799 86.4858 39.2214 87.0671 39.2214 87.6524C39.2214 89.9426 39.7449 92.2005 40.7424 94.241C33.1668 93.9116 26.3983 93.2941 21.6023 92.4897ZM65.9439 94.558C63.5074 98.7902 58.9799 101.42 54.1278 101.42H53.9997C49.1526 101.42 44.6246 98.7925 42.1836 94.5642C40.9783 92.4727 40.3414 90.0824 40.3414 87.653C40.3414 87.0473 40.4082 86.4462 40.5408 85.8609C44.4409 85.6872 48.5629 85.5915 52.8017 85.5768C53.1971 85.5739 53.5965 85.5739 53.9952 85.5739H53.9992C54.4878 85.5739 54.9736 85.5739 55.4572 85.5768C59.6286 85.5943 63.7068 85.6917 67.5856 85.8666C67.7193 86.4524 67.7844 87.04 67.7844 87.6524C67.7844 90.0835 67.1486 92.471 65.9439 94.558ZM86.437 92.4835C81.6657 93.2861 74.9292 93.9042 67.3868 94.2348C68.3826 92.1988 68.9061 89.9437 68.9061 87.6524C68.9061 87.0603 68.8488 86.4886 68.7398 85.9215C76.0683 86.2781 82.3437 86.8888 86.9189 87.6932C93.7986 88.9028 93.8789 90.036 93.8789 90.0473C93.8789 90.0586 93.7936 91.2456 86.437 92.4835Z" fill="black"/>
<path d="M53.9993 48.2052C60.2157 48.2052 65.401 52.7261 66.4973 58.6756C62.555 57.68 58.3561 57.14 53.9999 57.14C49.6437 57.14 45.4442 57.68 41.502 58.6756C42.5977 52.7255 47.7829 48.2046 53.9999 48.2046L53.9993 48.2052Z" fill="white"/>
<path d="M54.0002 58.2698C75.5992 58.2698 93.2408 71.7555 93.8603 88.5157C92.8038 87.8931 90.8116 87.2314 87.1115 86.581C82.3363 85.7416 75.7452 85.111 68.0522 84.7578C64.0347 84.5699 59.7993 84.4652 55.4639 84.4471C54.5815 84.4414 53.6772 84.4403 52.796 84.4471C51.6952 84.451 50.6022 84.4601 49.5187 84.4748C46.2684 84.5189 43.1035 84.6112 40.0756 84.7516C32.3484 85.1036 25.7265 85.7342 20.9277 86.5748C17.2039 87.2268 15.201 87.8908 14.1406 88.5157C14.7607 71.7555 32.4017 58.2698 54.0002 58.2698Z" fill="white"/>
</g>
<defs>
<clipPath id="clip0_1051_7364">
<rect width="66.5158" height="67.7934" fill="white" transform="translate(103.348 12.5498)"/>
</clipPath>
<clipPath id="clip1_1051_7364">
<rect width="196" height="133.803" fill="white" transform="translate(12 68.7471)"/>
</clipPath>
<clipPath id="clip2_1051_7364">
<rect width="82" height="90" fill="white" transform="translate(13 12.5498)"/>
</clipPath>
</defs>
</svg>
