<?xml version="1.0" encoding="UTF-8" standalone="no"?>
<!DOCTYPE svg PUBLIC "-//W3C//DTD SVG 1.1//EN" "http://www.w3.org/Graphics/SVG/1.1/DTD/svg11.dtd">
<svg xmlns="http://www.w3.org/2000/svg" version="1.1" viewBox="0 0 1000 300">
<path fill="#3bbbbc" d="
  M 192.19 34.10
  C 216.46 48.10 240.85 62.00 265.06 76.17
  C 274.82 81.89 281.15 85.03 284.54 95.27
  Q 285.99 99.65 286.00 108.90
  Q 286.03 131.11 285.96 153.32
  A 0.99 0.98 75.6 0 1 285.46 154.18
  L 230.76 185.76
  A 1.00 1.00 0.0 0 1 229.26 184.89
  Q 229.24 162.47 229.26 140.06
  C 229.27 126.97 227.42 120.14 216.32 113.71
  Q 176.39 90.57 136.34 67.50
  Q 134.84 66.64 136.34 65.77
  L 191.19 34.10
  A 1.00 1.00 0.0 0 1 192.19 34.10
  Z"
/>
<path fill="#666464" d="
  M 894.85 99.32
  A 21.00 17.36 0.0 0 1 873.85 116.68
  A 21.00 17.36 0.0 0 1 852.85 99.32
  A 21.00 17.36 0.0 0 1 873.85 81.96
  A 21.00 17.36 0.0 0 1 894.85 99.32
  Z
  M 883.0497 99.4002
  A 9.19 7.58 0.5 0 0 873.9261 91.7403
  A 9.19 7.58 0.5 0 0 864.6703 99.2398
  A 9.19 7.58 0.5 0 0 873.7939 106.8997
  A 9.19 7.58 0.5 0 0 883.0497 99.4002
  Z"
/>
<path fill="#666464" d="
  M 688.07 140.00
  L 638.75 140.00
  A 1.00 1.00 0.0 0 1 637.75 139.00
  L 637.75 119.00
  A 1.00 1.00 0.0 0 1 638.75 118.00
  L 703.25 118.00
  A 1.00 1.00 0.0 0 0 704.25 117.00
  L 704.25 101.50
  A 1.00 1.00 0.0 0 1 705.25 100.50
  L 730.25 100.50
  A 1.00 1.00 0.0 0 1 731.25 101.50
  L 731.25 117.00
  A 1.00 1.00 0.0 0 0 732.25 118.00
  L 749.75 118.00
  A 1.00 1.00 0.0 0 1 750.75 119.00
  L 750.75 139.00
  A 1.00 1.00 0.0 0 1 749.75 140.00
  L 732.25 140.00
  A 1.00 1.00 0.0 0 0 731.25 141.00
  L 731.25 219.75
  A 1.00 1.00 0.0 0 1 730.25 220.75
  L 705.24 220.75
  A 1.00 1.00 0.0 0 1 704.24 219.75
  L 704.27 162.84
  Q 704.27 159.80 702.77 162.45
  Q 699.49 168.26 695.60 173.64
  Q 691.24 179.68 685.51 185.53
  Q 665.63 205.85 639.16 217.62
  A 1.01 1.01 0.0 0 1 637.75 216.70
  L 637.75 193.06
  A 1.01 0.99 -13.7 0 1 638.30 192.17
  Q 672.07 175.16 688.96 141.45
  A 1.00 1.00 0.0 0 0 688.07 140.00
  Z"
/>
<path fill="#666464" d="
  M 391.53 119.87
  L 460.93 117.95
  A 1.01 1.01 0.0 0 1 461.96 118.94
  Q 462.06 127.74 461.98 136.38
  C 461.88 145.08 454.74 155.33 448.53 161.14
  Q 430.02 178.45 405.27 185.18
  A 1.00 1.00 0.0 0 1 404.00 184.22
  L 404.00 163.77
  A 1.00 0.99 81.9 0 1 404.71 162.81
  Q 411.41 160.79 417.56 157.58
  Q 427.86 152.23 433.07 142.18
  A 1.00 1.00 0.0 0 0 432.15 140.72
  L 391.55 142.05
  A 1.00 1.00 0.0 0 0 390.58 143.01
  Q 389.89 162.37 390.52 180.50
  C 391.07 196.41 404.37 195.17 416.00 195.02
  Q 437.12 194.75 458.17 193.01
  A 1.00 0.99 -2.4 0 1 459.25 194.00
  L 459.25 214.89
  A 1.00 1.00 0.0 0 1 458.30 215.89
  Q 432.38 217.31 406.51 216.94
  C 386.19 216.65 366.67 211.19 365.55 186.93
  Q 364.55 165.32 364.46 143.77
  A 1.00 1.00 0.0 0 0 363.43 142.78
  L 345.52 143.22
  A 1.00 1.00 0.0 0 1 344.50 142.22
  L 344.50 122.13
  A 1.00 1.00 0.0 0 1 345.48 121.13
  L 363.77 120.69
  A 1.01 1.00 -0.9 0 0 364.75 119.69
  L 364.75 101.75
  A 1.00 1.00 0.0 0 1 365.75 100.75
  L 389.50 100.75
  A 1.00 1.00 0.0 0 1 390.50 101.75
  L 390.50 118.87
  A 1.00 1.00 0.0 0 0 391.53 119.87
  Z"
/>
<path fill="#666464" d="
  M 551.25 121.25
  L 601.09 121.25
  A 0.99 0.99 0.0 0 1 602.08 122.22
  Q 603.01 157.28 600.82 191.97
  Q 600.75 193.16 599.94 196.57
  C 597.31 207.68 595.34 213.30 583.48 216.88
  C 570.82 220.69 555.99 219.31 543.66 214.88
  A 1.00 1.00 0.0 0 1 543.00 213.94
  L 543.01 193.30
  A 1.00 1.00 0.0 0 1 544.40 192.38
  Q 554.80 196.79 566.06 196.08
  C 571.19 195.75 573.78 193.78 574.39 188.67
  Q 577.02 166.76 576.32 144.72
  A 1.00 1.00 0.0 0 0 575.32 143.75
  L 550.72 143.75
  A 1.01 1.00 -89.1 0 0 549.72 144.73
  Q 549.45 156.58 546.94 166.47
  Q 541.46 188.14 525.34 202.57
  Q 512.05 214.47 494.60 221.08
  A 1.00 0.99 79.5 0 1 493.25 220.15
  L 493.26 196.39
  A 1.01 1.00 77.5 0 1 493.83 195.48
  Q 516.69 184.72 521.86 159.84
  Q 523.41 152.35 523.40 144.75
  A 1.01 1.00 89.7 0 0 522.40 143.75
  L 495.50 143.75
  A 1.00 1.00 0.0 0 1 494.50 142.75
  L 494.50 122.25
  A 1.00 1.00 0.0 0 1 495.50 121.25
  L 523.25 121.25
  A 1.00 1.00 0.0 0 0 524.25 120.25
  L 524.25 102.50
  A 1.00 1.00 0.0 0 1 525.25 101.50
  L 549.25 101.50
  A 1.00 1.00 0.0 0 1 550.25 102.50
  L 550.25 120.25
  A 1.00 1.00 0.0 0 0 551.25 121.25
  Z"
/>
<path fill="#666464" d="
  M 813.75 122.75
  L 885.00 122.75
  A 1.00 0.99 90.0 0 1 885.99 123.75
  L 886.00 144.25
  A 1.00 1.00 0.0 0 1 885.00 145.25
  L 813.76 145.25
  A 1.00 1.00 0.0 0 0 812.76 146.25
  Q 812.74 162.38 812.75 178.63
  C 812.76 190.33 819.41 193.29 830.07 193.56
  Q 857.59 194.27 884.86 190.40
  A 1.00 1.00 0.0 0 1 886.00 191.39
  L 886.00 212.20
  A 1.01 1.00 87.2 0 1 885.10 213.20
  Q 859.56 215.79 834.01 215.72
  C 816.96 215.68 792.31 212.02 787.21 192.43
  Q 786.31 189.00 786.29 180.84
  Q 786.20 142.93 786.27 105.00
  A 1.00 1.00 0.0 0 1 787.27 104.00
  L 811.75 104.00
  A 1.00 1.00 0.0 0 1 812.75 105.00
  L 812.75 121.75
  A 1.00 1.00 0.0 0 0 813.75 122.75
  Z"
/>
<path fill="#666464" d="
  M 243.35 224.53
  A 1.00 1.00 0.0 0 1 243.35 226.26
  L 188.53 257.90
  A 1.00 1.00 0.0 0 1 187.53 257.90
  Q 149.93 236.22 112.26 214.43
  C 99.01 206.76 93.85 200.74 93.78 185.55
  Q 93.67 162.10 93.83 138.65
  A 1.00 0.99 -15.3 0 1 94.33 137.79
  L 148.99 106.22
  A 1.00 1.00 0.0 0 1 150.49 107.09
  Q 150.51 129.57 150.50 152.05
  C 150.49 166.84 153.04 172.35 165.20 179.37
  Q 204.20 201.87 243.35 224.53
  Z"
/>
</svg>
