<?xml version="1.0" standalone="no"?>
<!DOCTYPE svg PUBLIC "-//W3C//DTD SVG 20010904//EN"
 "http://www.w3.org/TR/2001/REC-SVG-20010904/DTD/svg10.dtd">
<svg version="1.0" xmlns="http://www.w3.org/2000/svg"
 width="300.000000pt" height="300.000000pt" viewBox="0 0 300.000000 300.000000"
 preserveAspectRatio="xMidYMid meet">
<metadata>
Created by potrace 1.14, written by Peter Selinger 2001-2017
</metadata>
<g transform="translate(0.000000,300.000000) scale(0.100000,-0.100000)"
fill="#000000" stroke="none">
<path d="M1500 2927 c-14 -7 -57 -32 -95 -54 -39 -22 -86 -50 -106 -61 -20
-11 -105 -60 -190 -108 -176 -101 -192 -111 -247 -141 -23 -13 -43 -27 -46
-32 -5 -8 45 -40 188 -120 21 -12 117 -67 213 -122 96 -55 193 -111 216 -124
169 -94 438 -251 466 -272 47 -36 88 -106 97 -166 4 -29 8 -197 8 -374 1 -177
4 -325 8 -328 3 -4 44 15 90 41 45 26 96 55 111 63 16 9 36 21 46 26 9 6 119
68 244 140 l227 130 -1 340 c-1 305 -3 346 -20 401 -28 90 -79 141 -223 226
-161 95 -867 498 -873 498 -2 0 -21 11 -41 25 -43 29 -40 29 -72 12z"/>
<path d="M647 1807 l-348 -202 3 -360 c4 -346 5 -362 26 -408 39 -86 108 -140
378 -296 137 -80 297 -173 357 -208 59 -35 112 -63 117 -63 6 0 10 -4 10 -10
0 -5 4 -10 10 -10 5 0 70 -36 146 -80 75 -44 138 -80 140 -80 2 0 63 34 136
76 73 42 153 88 178 102 25 14 56 33 70 42 14 9 30 19 36 21 28 11 284 164
284 171 0 4 -39 30 -87 58 -49 28 -95 55 -103 60 -8 5 -51 30 -95 55 -500 289
-765 446 -801 478 -29 26 -50 56 -65 95 -21 54 -22 74 -24 402 -3 384 -2 360
-12 360 -5 0 -165 -92 -356 -203z"/>
</g>
</svg>
